<svg xmlns="http://www.w3.org/2000/svg" width="50" height="50" viewBox="0 0 50 50">
  <g id="icona_accessibilità" data-name="icona accessibilità" transform="translate(-34 -193.344)">
    <path id="Tracciato_93" data-name="Tracciato 93" d="M36.334,16.536a16.035,16.035,0,0,0-3.246.764,42.964,42.964,0,0,1-6.658,1.18c-4.111.318-8.4-.867-12.321-1.944a1.639,1.639,0,0,0-.523,0,1.976,1.976,0,0,0-.874,3.111c1.164,1.173,5.616,1.943,7.363,2.681,1,.423.938,1.134.875,2.122-.063,1.022-.28,2.33-.437,3.36-.577,3.816-1.453,7.595-2.073,11.4a1.936,1.936,0,0,0,3.54.965c.581-.95.922-3.857,1.194-5.114a29.1,29.1,0,0,1,1.316-4.991c.393-.891.6-.78.959.043a31.6,31.6,0,0,1,1.41,5.326c.253,1.139.629,4.153,1.257,4.93a1.961,1.961,0,0,0,3.423-1.091c-.6-3.694-1.477-7.354-2.06-11.051-.166-1.055-.681-4.1-.419-4.977.115-.384.605-.609.954-.762,1.809-.787,3.919-1.27,5.77-2.007,1.229-.489,2.281-1.075,1.852-2.618a1.809,1.809,0,0,0-1.3-1.331" transform="translate(34 193)" fill="#fc1233"/>
    <path id="Tracciato_94" data-name="Tracciato 94" d="M25.267,16.52c4.462-.313,4.01-7.3-.656-6.841-4.343.432-3.855,7.156.656,6.841" transform="translate(34 193)" fill="#fc1233"/>
    <path id="Tracciato_95" data-name="Tracciato 95" d="M25,.344a25,25,0,1,0,25,25,25.028,25.028,0,0,0-25-25m0,46.95a21.949,21.949,0,1,1,21.95-21.95A21.974,21.974,0,0,1,25,47.294" transform="translate(34 193)" fill="#fc1233"/>
  </g>
</svg>
