<svg xmlns="http://www.w3.org/2000/svg" width="52.776" height="50" viewBox="0 0 52.776 50">
  <g id="icona_requisiti" data-name="icona requisiti" transform="translate(-35.012 -194.94)">
    <path id="Tracciato_109" data-name="Tracciato 109" d="M239.656,39.328l-19.5.023a1.432,1.432,0,0,0,.334,2.815l18.9,0a1.428,1.428,0,0,0,.27-2.836" transform="translate(-161 193)" fill="#fc1233"/>
    <path id="Tracciato_110" data-name="Tracciato 110" d="M239.386,26.045l-19.054.021a1.42,1.42,0,0,0-.023,2.815h19.347a1.428,1.428,0,0,0-.27-2.836" transform="translate(-161 193)" fill="#fc1233"/>
    <path id="Tracciato_111" data-name="Tracciato 111" d="M206.57,30.639a1.455,1.455,0,0,0,1.535-.128l6.057-6.087a1.406,1.406,0,0,0-1.55-2.078,1.234,1.234,0,0,0-.6.286l-4.746,4.74c-.56-.508-1.091-1.342-1.943-1.32a1.442,1.442,0,0,0-1.159,2.2c.144.218,2.215,2.279,2.405,2.385" transform="translate(-161 193)" fill="#fc1233"/>
    <path id="Tracciato_112" data-name="Tracciato 112" d="M239.386,13.575l-19.054.021a1.42,1.42,0,0,0-.023,2.815h19.347a1.428,1.428,0,0,0-.27-2.836" transform="translate(-161 193)" fill="#fc1233"/>
    <path id="Tracciato_113" data-name="Tracciato 113" d="M206.57,18.17a1.455,1.455,0,0,0,1.535-.128l6.057-6.087a1.406,1.406,0,0,0-1.55-2.078,1.234,1.234,0,0,0-.6.286l-4.746,4.74c-.56-.508-1.091-1.342-1.943-1.32a1.442,1.442,0,0,0-1.159,2.2c.144.218,2.215,2.279,2.405,2.385" transform="translate(-161 193)" fill="#fc1233"/>
    <path id="Tracciato_114" data-name="Tracciato 114" d="M212.7,35.542a1.875,1.875,0,0,0-.777.376l-4.662,4.65c-.437-.249-.965-1.069-1.455-1.2a1.429,1.429,0,0,0-1.551,2.255,20.329,20.329,0,0,0,2.138,2.115,1.4,1.4,0,0,0,1.624.055l6.144-6.177a1.416,1.416,0,0,0-1.461-2.078" transform="translate(-161 193)" fill="#fc1233"/>
    <path id="Tracciato_115" data-name="Tracciato 115" d="M240.413,1.94H204.387a8.474,8.474,0,0,0-8.375,8.551v32.9a8.474,8.474,0,0,0,8.375,8.551h36.026a8.474,8.474,0,0,0,8.375-8.551v-32.9a8.474,8.474,0,0,0-8.375-8.551m5.42,41.449a5.483,5.483,0,0,1-5.42,5.534H204.387a5.485,5.485,0,0,1-5.422-5.534v-32.9a5.486,5.486,0,0,1,5.422-5.534h36.026a5.484,5.484,0,0,1,5.42,5.534Z" transform="translate(-161 193)" fill="#fc1233"/>
  </g>
</svg>
