<svg xmlns="http://www.w3.org/2000/svg" width="49.711" height="50" viewBox="0 0 49.711 50">
  <g id="icona_data" data-name="icona data" transform="translate(6.514 -203)">
    <path id="Tracciato_98" data-name="Tracciato 98" d="M177.121,17.319c-.051,1.887-.112,3.835-.02,5.7a1.444,1.444,0,0,1-1.461,1.339,1.461,1.461,0,0,1-1.482-1.461,49.487,49.487,0,0,1,0-5.752,48.8,48.8,0,0,0,.011-5.723c-.163-2.019-1.908-4.271-4.018-4.271H166.62v2.83c0,.518-.863,1.127-1.441,1.137-.609,0-1.491-.6-1.491-1.137V7.153H153.663v2.83c0,.518-.862,1.127-1.44,1.137-.609,0-1.492-.6-1.492-1.137V7.153h-9.923v2.83c0,.518-.862,1.127-1.441,1.137-.608,0-1.5-.6-1.5-1.137V7.153h-3.419c-1.908,0-4.008,2.211-4.018,4.22l-.01,31.291a4.515,4.515,0,0,0,3.987,4.241h.071l15.666.03a1.442,1.442,0,0,1,1.349,1.431,1.459,1.459,0,0,1-1.258,1.5c-.863-.051-1.776-.071-2.8-.071-1.573,0-3.186.05-4.749.1s-3.155.1-4.708.1c-1.38,0-2.587-.041-3.683-.122a7.56,7.56,0,0,1-6.808-6.859L127.5,10.9c.071-3.054,3.623-6.677,6.555-6.677h3.815V1.38c0-.508.872-1.117,1.451-1.127.6,0,1.491.589,1.491,1.127V4.22h9.923V1.38c0-.508.862-1.117,1.441-1.127.609,0,1.491.589,1.491,1.127V4.22h10.025V1.38c0-.508.862-1.117,1.43-1.127V0h.01V.253c.609,0,1.492.589,1.492,1.127V4.22h3.926c3.267,0,6.342,3.785,6.565,6.89a60.331,60.331,0,0,1,.01,6.209" transform="translate(-134 203)" fill="#fc1233"/>
    <path id="Tracciato_99" data-name="Tracciato 99" d="M173.762,30.306a11.291,11.291,0,0,0-8.036-3.338,11.407,11.407,0,0,0-10.856,7.549,11.219,11.219,0,0,0,1.36,10.389,11.452,11.452,0,1,0,17.532-14.6m-.984,12.774a8.51,8.51,0,0,1-14.793-8.35,8.433,8.433,0,0,1,7.67-4.84,8.5,8.5,0,0,1,7.468,4.485,8.418,8.418,0,0,1-.345,8.705" transform="translate(-134 203)" fill="#fc1233"/>
    <path id="Tracciato_100" data-name="Tracciato 100" d="M140.788,20.455a1.433,1.433,0,0,1-1.461,1.532,1.474,1.474,0,0,1-.244-2.922c.1-.01.193-.02.285-.02a1.388,1.388,0,0,1,1.42,1.41" transform="translate(-134 203)" fill="#fc1233"/>
    <path id="Tracciato_101" data-name="Tracciato 101" d="M149.392,20.455a1.433,1.433,0,0,1-1.461,1.532,1.474,1.474,0,0,1-.244-2.922c.1-.01.193-.02.285-.02a1.388,1.388,0,0,1,1.42,1.41" transform="translate(-134 203)" fill="#fc1233"/>
    <path id="Tracciato_102" data-name="Tracciato 102" d="M157.995,20.455a1.368,1.368,0,0,1-1.257,1.522,1.474,1.474,0,0,1-.448-2.912c.1-.01.194-.02.286-.02a1.388,1.388,0,0,1,1.419,1.41" transform="translate(-134 203)" fill="#fc1233"/>
    <path id="Tracciato_103" data-name="Tracciato 103" d="M166.6,20.455a1.368,1.368,0,0,1-1.258,1.522,1.314,1.314,0,0,1-.193.01,1.474,1.474,0,0,1-.254-2.922c.1-.01.193-.02.285-.02a1.382,1.382,0,0,1,1.42,1.41" transform="translate(-134 203)" fill="#fc1233"/>
    <path id="Tracciato_104" data-name="Tracciato 104" d="M140.788,29.058a1.433,1.433,0,0,1-1.461,1.532,1.474,1.474,0,0,1-.244-2.922,2.812,2.812,0,0,1,.285-.01,1.38,1.38,0,0,1,1.42,1.4" transform="translate(-134 203)" fill="#fc1233"/>
    <path id="Tracciato_105" data-name="Tracciato 105" d="M149.392,29.058a1.433,1.433,0,0,1-1.461,1.532,1.474,1.474,0,0,1-.244-2.922,2.812,2.812,0,0,1,.285-.01,1.38,1.38,0,0,1,1.42,1.4" transform="translate(-134 203)" fill="#fc1233"/>
    <path id="Tracciato_106" data-name="Tracciato 106" d="M140.788,37.662a1.433,1.433,0,0,1-1.461,1.532,1.474,1.474,0,0,1-.244-2.922,2.812,2.812,0,0,1,.285-.01,1.38,1.38,0,0,1,1.42,1.4" transform="translate(-134 203)" fill="#fc1233"/>
    <path id="Tracciato_107" data-name="Tracciato 107" d="M149.392,37.662a1.433,1.433,0,0,1-1.461,1.532,1.474,1.474,0,0,1-.244-2.922,2.812,2.812,0,0,1,.285-.01,1.38,1.38,0,0,1,1.42,1.4" transform="translate(-134 203)" fill="#fc1233"/>
    <path id="Tracciato_108" data-name="Tracciato 108" d="M169.978,38.413a1.423,1.423,0,0,1-1.289,1.471c-.274.031-.832.051-1.43.051a9.374,9.374,0,0,1-2.222-.162,1.5,1.5,0,0,1-.863-1.259,30.334,30.334,0,0,1,0-4.068,1.485,1.485,0,0,1,1.472-1.552,1.436,1.436,0,0,1,1.461,1.288,7.594,7.594,0,0,1,.02,1.177,10.131,10.131,0,0,0-.01,1.116l.03.446.447.031h.213c.111,0,.213,0,.324-.01h.477a1.442,1.442,0,0,1,1.37,1.471" transform="translate(-134 203)" fill="#fc1233"/>
  </g>
</svg>
