<svg xmlns="http://www.w3.org/2000/svg" width="50.047" height="50" viewBox="0 0 50.047 50">
  <g id="icona_normativa" data-name="icona normativa" transform="translate(84.353 -231.125)">
    <path id="Tracciato_96" data-name="Tracciato 96" d="M112.21,39.99l-.29.23,0,0,.244-.278L91.627,21.98a3.632,3.632,0,0,0,.511-2.819,3.016,3.016,0,0,0-1.324-1.843,3.132,3.132,0,0,1,.731-.691,2.111,2.111,0,0,1,.4.044,3.125,3.125,0,0,0,.757.06,4.033,4.033,0,0,0,3.522-2.473,4.551,4.551,0,0,0-.81-4.724A67.3,67.3,0,0,0,90,4.127C88.822,3.031,87.6,1.9,86.516.791L86.444.734A4.232,4.232,0,0,0,80.1,5.141L68.712,16.529a4.221,4.221,0,0,0-4.312,6.48c1.177,1.127,2.377,2.423,3.537,3.676a61.12,61.12,0,0,0,5.2,5.195A4.284,4.284,0,0,0,80.258,27.9l.614-.631c.074.076.145.156.22.239a3.658,3.658,0,0,0,.617.59,3.2,3.2,0,0,0,2.787.451,2.648,2.648,0,0,0,.785-.384c.079-.051.156-.1.234-.146L103.164,48.32a6.089,6.089,0,0,0,8.536.116,6.038,6.038,0,0,0,.51-8.446m-8.231-3.731-4.153,4.172-.727-.9,4.015-4.014c.292.23.664.542.865.742m5.293,10.7c-2.743,1.509-4.432-.6-6.217-2.822-.485-.6-.947-1.181-1.429-1.676l4.345-4.409,4.092,3.522a3.462,3.462,0,0,1-.792,5.384ZM101.03,33.738l-3.851,3.728L87.463,26.222,89.729,23.9ZM83.035,25.093l5.535-5.547a.46.46,0,0,1,.218-.123.583.583,0,0,1,.751.336.6.6,0,0,1-.013.473l-5.65,5.658a.6.6,0,0,1-.418.1.6.6,0,0,1-.423-.894m.272-22a1.607,1.607,0,0,1,.611-.288h0a1.56,1.56,0,0,1,1.189.259l8.566,8.555A1.553,1.553,0,0,1,91.4,13.694L83.016,5.316a1.589,1.589,0,0,1,.291-2.225m5.809,12.15L78.745,25.548l-7.532-7.6L81.447,7.66ZM67,19.389a1.538,1.538,0,0,1,.481-.24,1.706,1.706,0,0,1,1.368.265l8.4,8.4a1.557,1.557,0,0,1-1.985,2.347l-8.593-8.582A1.567,1.567,0,0,1,67,19.389" transform="translate(-148 231)" fill="#fc1233"/>
    <path id="Tracciato_97" data-name="Tracciato 97" d="M91.362,47.349a5.085,5.085,0,0,0-2.433-3.9,3.739,3.739,0,0,0-3.051-5.628,90.35,90.35,0,0,0-9.122-.02c-2.621.083-5.332.168-7.967.052a3.751,3.751,0,0,0-2.66,5.6,5.082,5.082,0,0,0-2.424,3.81c-.082.806-.251,2.483.932,2.79l25.684.028c1.265-.254,1.11-1.926,1.036-2.73Zm-4.845-5.062a4.04,4.04,0,0,1-.447.276l-16.823.077a1.083,1.083,0,0,1-.019-2.152l16.58,0a1.1,1.1,0,0,1,.957,1.217,1.13,1.13,0,0,1-.248.585m-8.4,2.989c2.787.088,5.67.177,8.35.034a2.525,2.525,0,0,1,2.2,2.138l-22.293,0A2.525,2.525,0,0,1,68.845,45.3a92.175,92.175,0,0,1,9.274-.02" transform="translate(-148 231)" fill="#fc1233"/>
  </g>
</svg>
