<svg id="UI" xmlns="http://www.w3.org/2000/svg" xmlns:xlink="http://www.w3.org/1999/xlink" width="358.326" height="56.829" viewBox="0 0 358.326 56.829">
  <defs>
    <clipPath id="clip-path">
      <rect id="Rettangolo_16" data-name="Rettangolo 16" width="358.326" height="56.829" fill="#fff"/>
    </clipPath>
  </defs>
  <g id="Raggruppa_30" data-name="Raggruppa 30">
    <g id="Raggruppa_29" data-name="Raggruppa 29" clip-path="url(#clip-path)">
      <path id="Tracciato_1" data-name="Tracciato 1" d="M67.482,35a6.144,6.144,0,0,0-4.934,3.316L47.493,69.006h6.22a6.141,6.141,0,0,0,4.933-3.316L73.7,35Z" transform="translate(-29.144 -21.478)" fill="#fc1333"/>
      <path id="Tracciato_2" data-name="Tracciato 2" d="M17.9,70.046a6.144,6.144,0,0,0-4.934,3.316L0,99.813H6.22A6.142,6.142,0,0,0,11.153,96.5l12.97-26.451Z" transform="translate(0 -42.984)" fill="#fc1333"/>
      <path id="Tracciato_3" data-name="Tracciato 3" d="M117.07,0a6.144,6.144,0,0,0-4.934,3.316L95.02,38.2h6.22a6.142,6.142,0,0,0,4.933-3.316L123.29,0Z" transform="translate(-58.309)" fill="#fc1333"/>
      <path id="Tracciato_4" data-name="Tracciato 4" d="M247.346,53.063h5.8V24.827h-5.8ZM241.636,35.4h17.218V30.894H241.636Zm-9.94.736a4.719,4.719,0,0,1,2.119,3.546H218.738a6.274,6.274,0,0,1,2.587-3.457,10.563,10.563,0,0,1,10.371-.089m-.223,12.043a9.966,9.966,0,0,1-4.617.959,10.549,10.549,0,0,1-4.3-.8A7.118,7.118,0,0,1,219.7,46.15a6.387,6.387,0,0,1-1.271-3.078h21.143a14.13,14.13,0,0,0-1.182-7.115,9.024,9.024,0,0,0-4.3-4.171,16.879,16.879,0,0,0-7.271-1.383,18.676,18.676,0,0,0-7.472,1.383,11.3,11.3,0,0,0-4.974,3.992,10.835,10.835,0,0,0-1.784,6.267,10.534,10.534,0,0,0,1.829,6.245,11.454,11.454,0,0,0,5.085,3.948,19.308,19.308,0,0,0,7.494,1.36,17.743,17.743,0,0,0,6.423-1.026,10.328,10.328,0,0,0,4.171-2.81,8.009,8.009,0,0,0,1.9-4.059h-5.62a4.576,4.576,0,0,1-2.387,2.475M181.7,24.2h-5.933v28.86H181.7V29.511l-1.873.759,23.329,22.794h5.932V24.2h-5.932V47.934l1.873-.758Z" transform="translate(-107.859 -14.852)" fill="#fc1333"/>
      <path id="Tracciato_5" data-name="Tracciato 5" d="M595.97,29.974l-8.609,18.869-6.755,12.611h6.022L602.17,29.974ZM585.8,52.143l5-.892-9.591-21.278H575.05Zm-31.023-8.208a5.063,5.063,0,0,1-2.253-1.807,4.919,4.919,0,0,1-.8-2.833,4.889,4.889,0,0,1,3.078-4.751,8.362,8.362,0,0,1,3.39-.647,8.169,8.169,0,0,1,3.39.647,5.182,5.182,0,0,1,2.231,1.851,5.108,5.108,0,0,1,.8,2.9,4.921,4.921,0,0,1-.8,2.833,5.067,5.067,0,0,1-2.253,1.807,8.445,8.445,0,0,1-3.368.624,8.562,8.562,0,0,1-3.412-.624m16.661,17.517V59.191a7.063,7.063,0,0,0-1.115-4.215,6.008,6.008,0,0,0-3.234-2.186,17.632,17.632,0,0,0-5.107-.647H554.71a2.6,2.6,0,0,1-1.517-.379,1.214,1.214,0,0,1-.535-1.049q0-1.114,1.36-1.494a19.131,19.131,0,0,1,4.171-.469l-2.81-.491a18.716,18.716,0,0,0-4.327.134,6.658,6.658,0,0,0-3.123,1.227,3.228,3.228,0,0,0-1.16,2.7,3.968,3.968,0,0,0,.357,1.673,3.459,3.459,0,0,0,1.16,1.361,5.973,5.973,0,0,0,2.164.892,15.371,15.371,0,0,0,3.368.312h6.914a6.876,6.876,0,0,1,3.591.8,3.071,3.071,0,0,1,1.316,2.855v1.236ZM564.59,47.661a9.183,9.183,0,0,0,4.171-3.167,8.37,8.37,0,0,0,1.472-4.973,5.949,5.949,0,0,0-.825-3.145,8.979,8.979,0,0,0-2.164-2.409,14.969,14.969,0,0,0-2.855-1.762l.134.312a33.887,33.887,0,0,0,4.126,1.316,17.113,17.113,0,0,0,4.617.558V30.019l-11.2-.045q-.936-.223-1.9-.357a14.416,14.416,0,0,0-1.985-.134,15.929,15.929,0,0,0-6.445,1.2,9.56,9.56,0,0,0-4.216,3.39,9.044,9.044,0,0,0-1.472,5.174,8.715,8.715,0,0,0,1.517,5.174,9.254,9.254,0,0,0,4.26,3.234,19.166,19.166,0,0,0,12.757,0M534.926,35.215a4.72,4.72,0,0,1,2.119,3.546H521.968a6.274,6.274,0,0,1,2.587-3.457,10.564,10.564,0,0,1,10.371-.089M534.7,47.259a9.961,9.961,0,0,1-4.617.959,10.543,10.543,0,0,1-4.3-.8,7.117,7.117,0,0,1-2.855-2.186,6.388,6.388,0,0,1-1.271-3.078H542.8a14.135,14.135,0,0,0-1.182-7.115,9.027,9.027,0,0,0-4.3-4.171,16.875,16.875,0,0,0-7.271-1.383,18.67,18.67,0,0,0-7.472,1.383,11.3,11.3,0,0,0-4.973,3.993,10.83,10.83,0,0,0-1.785,6.267,10.535,10.535,0,0,0,1.829,6.245,11.45,11.45,0,0,0,5.085,3.948,19.307,19.307,0,0,0,7.494,1.36,17.748,17.748,0,0,0,6.424-1.026,10.335,10.335,0,0,0,4.171-2.81,8.013,8.013,0,0,0,1.9-4.059H537.09a4.575,4.575,0,0,1-2.386,2.475m-32.333,4.885h5.8V23.907h-5.8Zm-5.71-17.664h17.218V29.974H496.661Zm-9.5,11.955q0,1.294.089,2.631t.312,3.078h5.4V29.974h-5.8Zm-12.6.847a6.709,6.709,0,0,1-2.743-2.476,6.923,6.923,0,0,1-.981-3.724,6.758,6.758,0,0,1,2.052-5.152,8.042,8.042,0,0,1,5.754-1.941,11.3,11.3,0,0,1,4.527.825,6.584,6.584,0,0,1,2.944,2.409,6.84,6.84,0,0,1,1.048,3.858,6.55,6.55,0,0,1-3.97,6.2,10.7,10.7,0,0,1-4.549.892,8.911,8.911,0,0,1-4.082-.892m7.249,4.3a9.454,9.454,0,0,0,3.39-2.766,12.1,12.1,0,0,0,1.918-3.747,13.537,13.537,0,0,0,.624-3.992,15.506,15.506,0,0,0-1.07-5.888,8.878,8.878,0,0,0-3.413-4.171,11.086,11.086,0,0,0-6.178-1.539,13.119,13.119,0,0,0-6.223,1.45,11.161,11.161,0,0,0-4.349,4.037,11.357,11.357,0,0,0-1.606,6.111,11.416,11.416,0,0,0,1.584,6.044,11.012,11.012,0,0,0,4.282,4.059,12.477,12.477,0,0,0,6,1.45,11.177,11.177,0,0,0,5.041-1.048m-18.631-22.1a7.8,7.8,0,0,0-3.435.714,8.057,8.057,0,0,0-2.5,1.851,10.948,10.948,0,0,0-1.65,2.364,13.619,13.619,0,0,0-.937,2.275,8.611,8.611,0,0,0-.357,1.584l.045,2.453a9.018,9.018,0,0,1,1.561-2.676,9.105,9.105,0,0,1,7.271-3.3Zm-14.319,22.66h5.8V29.974h-5.8Zm-15.211,0h5.8V23.907h-5.8Zm-5.71-17.664h17.218V29.974H427.938ZM397.762,44.917a9.079,9.079,0,0,0,1.584,2.766,12.233,12.233,0,0,0,2.9,2.543,15.369,15.369,0,0,0,4.238,1.851,24.717,24.717,0,0,0,13-.379,8.676,8.676,0,0,0,4.193-3.011,7.762,7.762,0,0,0,1.361-4.572,7.457,7.457,0,0,0-.8-3.613,6.656,6.656,0,0,0-2.3-2.431,13.625,13.625,0,0,0-3.568-1.561,33.184,33.184,0,0,0-4.617-.959q-2.721-.4-4.549-.8a17.569,17.569,0,0,1-2.9-.848,3.525,3.525,0,0,1-1.517-1.048,2.3,2.3,0,0,1-.446-1.405,2.956,2.956,0,0,1,1.851-2.9A11.345,11.345,0,0,1,410.9,27.7a10.183,10.183,0,0,1,5.108,1.16,4.4,4.4,0,0,1,2.208,3.791h5.8a8.553,8.553,0,0,0-3.279-7.293q-3.368-2.653-9.613-2.654a20.042,20.042,0,0,0-7,1.071,9.319,9.319,0,0,0-4.3,2.988,7.193,7.193,0,0,0-1.45,4.461,6.419,6.419,0,0,0,.959,3.546,8.07,8.07,0,0,0,2.632,2.52,16.037,16.037,0,0,0,3.859,1.673,33.094,33.094,0,0,0,4.639,1q3.122.447,5.041.87a7.808,7.808,0,0,1,2.81,1.071,2.148,2.148,0,0,1,.892,1.851,3.324,3.324,0,0,1-.714,2.141,4.552,4.552,0,0,1-2.186,1.383,12.033,12.033,0,0,1-3.747.491,13.765,13.765,0,0,1-4.505-.691,8.31,8.31,0,0,1-3.234-1.918,4.581,4.581,0,0,1-1.405-2.743h-6.022a6.267,6.267,0,0,0,.379,2.5" transform="translate(-243.845 -13.932)" fill="#000"/>
    </g>
  </g>
</svg>
