<?xml version="1.0" encoding="UTF-8"?>
<svg xmlns="http://www.w3.org/2000/svg" version="1.1" viewBox="0 0 1771 640">
  <defs>
    <style>
      .cls-1 {
        fill: #1d1d1b;
      }
    </style>
  </defs>
  <!-- Generator: Adobe Illustrator 28.7.1, SVG Export Plug-In . SVG Version: 1.2.0 Build 142)  -->
  <g>
    <g id="Livello_1">
      <g id="v99u6e.tif">
        <g>
          <path class="cls-1" d="M752,640c-1.7-1.5-3.3-2.9-4.9-4.3v-104c2.5-3.7,6.1-4.7,10.2-4.7,20.7,0,41.3-.1,62,0,8.6,0,16.8,2.4,23.9,7.6.6.5,1.4.8,2,1.3,1.7,1.4,3,1.1,4.7-.3,4.6-3.6,9.9-5.9,15.4-7.4,2.8-.8,5.7-1.2,8.6-1.3,12.2-.1,24.3-.4,36.5,0,8.8.3,16.7,3.6,24.1,8.7,4.5,3.1,7.4,7.3,10.2,11.6,2.2,3.5,3.3,7.7,3.3,11.9,0,20.5.1,41,0,61.5,0,3.5-.6,7.1-.9,10.7-.3,4.7-3.7,7.3-8.5,7.5-4.4.2-8.7,0-11.5-5.2,0-1.4,0-3.6,0-5.7,0-22.2,0-44.3,0-66.5,0-9.8-6.8-15-14.9-16.8-7.7-1.7-15.5-.6-23.2-.9-4.3-.2-8.7-.2-13,0-6.6.3-11.9,3-16,8.4-1.6,2.1-2,4.3-2,6.8,0,23.7,0,47.3,0,71,0,4.4-1.7,7.2-5.3,8.4-1.7.5-3.6.2-5.4.4-4.3.5-7.8-.9-10.4-5v-22.5c0-16.8-.2-33.7,0-50.5.1-6.9-3.3-10.9-8.6-14.2-3-1.9-6.2-2.8-9.6-2.8-16.8,0-33.6,0-50.8,0,0,1.4-.2,2.6-.2,3.9,0,27.2,0,54.3,0,81.5,0,1.8-.1,3.5-.7,5.3-.8,2.8-2.2,4.2-4.9,4.6-.2,0-.3.5-.4.8h-10Z"/>
          <path class="cls-1" d="M1689,639.1c-8.9,0-17.3-2.3-24.7-7.1-7.9-5.2-13.5-12.2-13.3-22.4,0-1.5,0-3,0-4.5-.3-8.8,3.9-15.5,10.4-20.5,6.7-5.1,14.6-7.4,23.1-8.6,7.3-1,14.5-.6,21.7-.8,7.3-.2,14.7-.2,22,0,6,.2,11.1-1.6,15.8-5,3.3-2.4,5-5.4,5.1-9.4,0-1.3,0-2.7,0-4,0-2.1-.7-3.8-2.1-5.3-4.4-4.8-9.8-7.4-16.3-7.4-20.8,0-41.7,0-62.5,0-2.6,0-5.2-.5-7.6-1.1-2.8-.7-4.4-3.2-4.5-6.2,0-1.7,0-3.3,0-4.9,2.5-3.7,6-4.8,10.2-4.8,21.8,0,43.7,0,65.5,0,8.9,0,17.5,2.2,25.2,7,6.6,4,11.4,9.4,13.1,17.1,0,.3.6.5,1,.8v33c-1.6.2-1,1.5-1,2.3,0,8.3,0,16.5,0,24.8.3,2.5-.7,4.8-1.6,7-4.1,10-12.5,14.8-22.1,17.8-4.9,1.5-10.1,2.5-15.3,2.2-14,0-28,0-42.1,0ZM1749.8,588.2c-4.8,1-9.1,2.4-13.5,2.7-7,.4-14,0-21,.2-7.1.2-14.1.6-21.2.9-3.1.1-6.1.1-9.2,1-4.2,1.1-7.2,3.6-10,6.6-2.3,2.4-1.8,5.4-2,8.3-.4,4,1.6,7.1,4.2,9.4,4,3.6,8.9,5.7,14.4,5.7,12.6,0,25.3,0,37.9,0,5,0,9.5-1.8,13.5-4.5,4-2.8,6.4-6.7,6.2-12-.2-5.5-.7-11.2.8-16.7.1-.4,0-.9-.1-1.5Z"/>
          <path class="cls-1" d="M1524,640c-.4-.3-.8-.8-1.3-1-3-1.5-4.2-4.1-4.6-7.3,0-.7,0-1.3,0-2,0-30.8,0-61.6,0-92.5,0-1.4,0-3,.6-4.3,1.5-4.1,4.3-5.9,8.7-5.9,14.8,0,29.7,0,44.5,0,10.2,0,20.3-.2,30.5,0,5.8.2,11.5,1.5,16.7,4,7.1,3.4,13,8.4,16.3,15.8,1.6,3.7,2.8,7.4,2.8,11.6-.1,25.3,0,50.6,0,76.1-1.5,1.5-3,3-4.3,4.4-3,0-5.7,0-8.4,0-4.9,0-7.8-2.8-8.2-7.7,0-.8,0-1.7,0-2.5,0-17,0-34,0-51,0-2.4.7-4.8.8-7.2.1-2.5.2-5,0-7.5-.2-2.7-.3-5.6-1.4-8-2.4-5-6.5-8.4-11.9-10.2-2.8-.9-5.7-1.1-8.7-1-18.5,0-37,0-56,0v3.9c0,27.2,0,54.3,0,81.5,0,1.8-.2,3.5-.7,5.3-.8,2.9-2.2,4.1-4.9,4.6-.2,0-.3.5-.4.8h-10Z"/>
          <path class="cls-1" d="M487,640c-1.7-1.4-3.3-2.9-5-4.3v-104c2.5-3.7,6.1-4.7,10.2-4.7,23.5,0,47,0,70.5,0,7.8,0,15.3,1.8,22,6,9.5,5.9,15.2,14.3,15.2,25.9,0,24,0,48,0,72,0,3.2-.7,5.7-3.7,7.2-.8.4-1.8.8-2.7.9-2.5.1-5,.1-7.5,0-3.7-.2-6-2.5-6.2-6.1,0-1.3,0-2.7,0-4,0-21.8-.2-43.7.2-65.5.2-9.7-5.5-15.8-13.8-18.5-2.1-.7-4.1-.9-6.2-.9-18.8,0-37.7,0-56.8,0,0,1.3-.3,2.5-.3,3.8,0,27.3,0,54.6,0,82,0,2.5-.7,4.6-1.8,6.9-1,2.2-3.6,1.4-4.2,3.4h-10Z"/>
          <path class="cls-1" d="M966,640c-.4-.3-.9-.8-1.3-1-3-1.5-4.2-4.1-4.6-7.3,0-.7,0-1.3,0-2,0-30.8,0-61.6,0-92.4,0-1.6,0-3.1.7-4.8,1.5-3.9,4.4-5.2,8.1-5.5,1.3-.1,2.7,0,4,0,5.1,0,8.7,3.6,9.1,8.8,0,.8,0,1.7,0,2.5,0,30.1,0,60.3,0,90.4,0,1.8-.3,3.5-.8,5.2-.7,2.6-1.8,4.3-4.3,5.1-.4.1-.6.6-.8,1h-10Z"/>
          <path class="cls-1" d="M719,640c-1.7-1.5-3.3-2.9-4.9-4.3v-103.8c1.4-3.1,4.2-4.3,6.8-4.7,3.1-.5,6.5-.6,9.7.8,3,1.4,4.2,3.8,4.5,6.8,0,1,0,2,0,3,0,30.5,0,61,0,91.5,0,1.8-.1,3.5-.7,5.3-.8,2.8-2.2,4.2-4.9,4.6-.2,0-.3.5-.4.8h-10Z"/>
          <path class="cls-1" d="M221,1c0-.3,0-.7,0-1,37.3,0,74.7,0,112,0,0,.3,0,.7,0,1-37.3,0-74.6,0-111.9,0Z"/>
          <path class="cls-1" d="M1188,640c0-.3,0-.6,0-1,24,0,48,0,72.1,0,0,.3,0,.6,0,1h-72Z"/>
          <path class="cls-1" d="M1771,612c-.3,0-.6,0-1,0,0-8.3,0-16.5,0-24.8,0-.8-.6-2.1,1-2.3v27Z"/>
          <path class="cls-1" d="M221,1c37.3,0,74.6,0,111.9,0,4,6.2,8,12.5,12,18.7,2.6,4.1,5.1,8.1,7.8,12.2h29.8c17.9,28.2,36,56.5,54.1,85,15,0,30.1,0,45.3,0,8.8,0,17.7-.1,26.5,0,9,.2,18.1.6,27.3.9v304.5s-.1.2-.3.3c-.1,0-.3.2-.4.2-27.5,0-55,0-82.8,0-.1-1.1-.2-2.2-.3-3.3-1.4-10-1.5-20.2-.7-30.2,1.3-16.9.4-33.8.7-50.7.2-17.2,0-34.3,0-51.5,0-17,0-34,0-51,0-1.6,0-3.3,0-5.6-12.6,17.7-24.8,34.9-37.2,52.3,3,4.7,6.1,9.6,9.2,14.5,6,9.5,12,19,18,28.5,1.6,2.6,3.3,5.2,5.1,7.6.9,1.2,1.1,2.1.2,3.5-5.6,7.8-10.9,15.6-16.5,23.4-7.4,10.3-15,20.4-22.4,30.7-5.9,8.3-11.6,16.7-17.5,25-1.7,2.4-3.6,4.6-5.4,6.8h-89.2c-13.7,1.8-27.5.6-41.2.9-13.8.2-27.7,0-41.5,0-1.5,0-2.9,0-5,0,2.7-5.8,6.5-10.4,9.3-15.7-6.1-9.3-12.3-18.7-18.3-28.2-7.6-12.1-15.1-24.3-22.7-36.4-3.8-6-7.8-11.9-11.6-17.8-.9-1.5-1.8-3-2.3-4.7-.5-1.5-1.3-2.2-2.9-2.1-1,0-2,0-3,0-33.5,0-67,0-100.8,0-18.4-28.9-36.9-58-55.6-87.2,18.5-29.1,37.1-58.3,55.8-87.7h111.2c5.4,8.5,11,17.3,16.9,26.4,2.4-2.9,4.1-5.7,5.8-8.5,3-4.8,6-9.5,9.2-14.2,1.7-2.5,1.4-4.6-.2-7-8.6-13.4-17-26.9-25.6-40.3-2.6-4.1-5.4-8-8.3-12.3,2.3-3.8,4.5-7.5,6.8-11.1,7.9-12.5,15.7-25.1,23.7-37.6,3.5-5.6,7.3-11,10.9-16.6,4.1-6.4,8-12.8,12.1-19.2.6-1,1.3-1.8,2-2.8ZM310.5,149.2h-104.4c-4.1,6.3-8.1,12.5-12.1,18.7-3.7,5.7-7.4,11.3-11,17-5.4,8.5-10.7,17.1-16.1,25.7-3.7,5.8-7.5,11.6-11.3,17.4-1.1,1.7-1.1,3.4,0,5.1,1.1,1.9,2.4,3.8,3.6,5.7,3.9,6.1,7.9,12.1,11.8,18.2,5.4,8.5,10.7,17.1,16.1,25.7,4.3,6.9,8.6,13.9,13,20.8,2,3.1,4.3,6,6.2,8.7h81.4c.7-.8,1.7-1.7,2.5-2.8,4.2-5.5,8.4-11.1,12.6-16.7,6.9-9.2,13.8-18.4,20.7-27.6,3.7-4.9,7.7-9.7,11.4-14.6,3.6-4.8,7.1-9.6,10.6-14.4,3.1-4.2,6.2-8.3,9.4-12.4,1.3-1.6,1.2-2.7,0-4.3-1.6-2.2-2.8-4.7-4.2-7-3.9-6.1-7.9-12.1-11.8-18.2-5.4-8.5-10.7-17.1-16.1-25.7-4.1-6.5-8.3-13-12.4-19.3ZM146.9,230.8c3.1-5.2,6.2-10.4,9.5-15.6,7.9-12.3,15.8-24.6,23.8-36.8,1-1.5.9-2.4-.1-3.9-5.3-8-10.4-16.2-15.7-24.3H60c-2.8,4.5-5.3,9.1-8.3,13.5-8,11.8-15.6,24-23.1,36.1-5.7,9.3-11.7,18.4-17.6,27.6-1,1.6-2.2,3.1-3,4.4,17.4,27.4,34.6,54.3,51.7,81.2h105.1c5.8-9.1,11.6-18.1,17.3-27.1-11.6-18.3-23.2-36.4-35.1-55.1ZM378.9,38h-104.3c-1.6,2.6-3.2,5.2-4.9,7.8-3.9,5.9-8,11.7-11.6,17.8-5.9,10.1-12.5,19.8-18.8,29.7-5.3,8.3-10.5,16.5-15.8,24.8-.7,1.1-.7,2,0,3.1,4.7,7.3,9.4,14.6,14.1,21.9h76.3c6.2,9.6,12.4,19.3,18.7,29.1,6.2,9.7,12.1,19.7,18.5,28.8h21.3c3.1-4,6-7.9,9-11.8,3.9-5.2,7.8-10.4,11.7-15.5,3.5-4.7,7.2-9.3,10.7-13.9,2.8-3.6,5.7-7.1,8.2-10.9,6.5-9.6,12.8-19.3,19.3-29.1-8.7-13.7-17.3-27.5-26.1-41.1-8.8-13.6-17.1-27.6-26.3-40.7ZM225.4,6c-.7.8-1.7,1.8-2.4,2.8-3.9,6.1-7.7,12.2-11.6,18.3-4.4,6.9-8.9,13.7-13.3,20.6-5.5,8.7-10.9,17.4-16.4,26.1-3,4.7-5.9,9.5-8.9,14.2,11.7,18.4,23.3,36.5,34.9,54.8h22.5c-1.3-2.1-2.4-4-3.6-5.8-3.1-4.9-6.3-9.7-9.5-14.6-1.2-1.9-1.5-3.8,0-5.8.3-.4.7-.7.9-1.1,4-6,8.1-12,12-18.1,6.2-9.7,12.3-19.5,18.5-29.3,4.2-6.8,8.4-13.7,12.7-20.4,3.4-5.3,6.9-10.5,10.4-15.7,23.8,0,47.4,0,71.1,0,.7,0,1.3,0,2,0,.1,0,.3-.2.4-.3,0-.1,0-.3.1-.5-2.6-4.1-5.1-8.5-8-12.5-3-4.2-4.7-9.2-8.5-12.5h-103ZM410.9,288.4c-.6,1.1-.9,1.8-1.3,2.4-4.2,5.9-8.5,11.8-12.7,17.7-3.3,4.6-6.5,9.2-9.8,13.8-5.7,8-11.4,16-17.1,24-5,7-9.9,14-14.8,20.9-6.4,8.9-12.7,17.9-19.1,26.8-4.7,6.6-9.5,13.1-14.2,19.7-.4.5-.6,1.1-.9,1.7-.2.4-.6.8-1.1,1.5h63c1.6-2.3,3.4-4.8,5.2-7.3,4.9-7,9.8-14,14.8-20.9,5.7-7.9,11.4-15.7,17.1-23.5,6.4-8.9,12.7-17.9,19.1-26.8,1.2-1.7,1.4-3.7.3-5.5-6.2-9.9-12.5-19.8-18.8-29.7-3.1-4.8-6.3-9.6-9.7-14.8ZM169.2,320.7c3.3,5.3,6.8,10.7,10.2,16.2,3.5,5.6,7.1,11.1,10.6,16.7,3.4,5.4,6.9,10.8,10.3,16.3,3.5,5.6,6.9,11.3,10.7,16.6,3.7,5.2,6.2,11.2,10.8,16,.7-.5,1.1-.7,1.4-1,6.3-9,12.7-17.9,18.9-26.9,1.4-2,2.6-4,3.9-6-1.3-2.2-2.5-4.4-3.8-6.6,0-.1-.2-.2-.3-.4-4.9-7.7-9.9-15.4-14.9-23.1-1.2-1.8-1.4-3.5,0-5.3,1.6-2.2,3-4.6,4.5-6.9,1.6-2.5,3.1-5,5-8h-33.9c-5.2-8.2-10.3-16.1-15.7-24.6-6.4,9-11.5,18.4-17.7,27.2ZM283.5,318.2h-40c-2.9,4.5-5.9,9.1-8.8,13.7-2.2,3.4-2.2,3.8,0,7.3,3.9,6.1,7.6,12.3,11.5,18.3,1.2,1.9,2.7,3.6,4.1,5.4,11-14.8,21.9-29.4,33.2-44.7ZM355.2,207.2c2.3,3.1,2.9,6.9,5.9,9,2-3.2,4.7-5.5,6.1-9h-12.1Z"/>
          <path class="cls-1" d="M640,307.3v115.1c-3.7.8-73.4.9-81.8.2V118c1.3,0,2.6,0,3.8,0,12,0,24,0,36,0,7.1.1,14.2.3,21.2,1.1,5.8.7,11.7.9,17.4,2,13.7,2.4,27.3,5,40.5,9.8,12.4,4.6,24.2,10.1,34.7,18.2,4.4,3.4,8.8,6.8,12.7,10.8,8.9,9.1,14.5,19.8,16.7,32.6,1.4,8.2,2.2,16.3,1.7,24.4-.7,10.4-3,20.6-6.9,30.4-3.1,7.8-7.3,15.1-12.6,21.5-5.1,6.2-11,11.9-18,16-6.2,3.6-12.6,6.8-19.4,9.3-5.7,2-11.4,4.1-17.2,5.7-6.4,1.9-13,3.4-19.5,5-3.1.8-6.2,1.5-9.2,2.3Z"/>
          <path class="cls-1" d="M693.3,119.1c1.3,0,2.6,0,3.9,0,19.7,0,39.3.3,59-.3,8.7-.3,17.5-.7,26.1-.8.2.2.3.3.4.4,0,.1.2.3.2.4,0,101.2,0,202.3,0,303.5-.1.1-.2.3-.3.4-.1,0-.3.2-.4.2-27,0-54,0-81,.1-.6,0-1.3,0-2,0v-113.8c.6-.4,1.5-.9,2.4-1.5,5.5-3.3,11.3-6.1,16.5-9.9,7.2-5.2,13.5-11.4,19.2-18.4,4.1-5.1,8-10.2,11.5-15.7,4.8-7.6,7.9-15.9,10.3-24.6,3.3-12.1,3.3-24.3,2.7-36.6-.3-6.1-1.7-12.1-3.1-18-1.2-5.1-2.8-10.2-5-14.9-2.6-5.7-6-11.1-10.4-15.7-9.7-10.1-20.5-18.7-32.3-26.2-4.4-2.8-9.2-5-14.3-6.7-1.2-.4-2.4-.8-3.6-1.2,0-.2,0-.5,0-.7Z"/>
          <path class="cls-1" d="M932.9,380.4V113.1c4-.3,7.7,0,11.8-.2,0,1.4.2,2.6.2,3.9,0,100.3,0,200.6,0,300.9,0,.7,0,1.3,0,2,0,2.5-.7,3.1-3.2,3.2-1.7,0-3.3,0-5.1,0-1.5-1-2.2-2.4-2.8-4.2-2.3-6.5-5.1-12.7-7.6-19.1-3.5-8.9-6.8-17.8-10.3-26.7-3.4-8.6-6.9-17.1-10.2-25.7-4-10.1-7.8-20.1-11.8-30.2-3.3-8.3-6.8-16.5-9.9-24.8-3.3-8.8-7.1-17.3-10.2-26.2-2.6-7.3-6-14.4-8.8-21.6-3.4-8.7-6.7-17.5-10.1-26.3-2.6-6.8-5.3-13.6-8-20.4-4-10.2-8-20.4-12-30.6-1.7-4.4-3.6-8.7-5.8-14v269.8c-3.6.1-7.1,0-10.5,0-.1-.1-.3-.2-.4-.3-.1-.1-.2-.3-.2-.4,0-102.9,0-205.9,0-309h9.7c3,7.7,6.1,15.6,9.2,23.4,2.6,6.7,5.3,13.3,7.9,19.9,3.4,8.6,6.8,17.1,10.1,25.7,2.5,6.5,4.8,13.1,7.5,19.6,4.3,10.8,8.4,21.6,12.7,32.4,4.2,10.3,8.1,20.7,12.4,31,4.8,11.6,8.8,23.5,13.6,35.1,4.3,10.3,8.5,20.6,12.4,31,4.1,11,9.1,21.7,12.6,32.9,1.7,5.3,4.3,10.4,6.8,16.1Z"/>
          <path class="cls-1" d="M975.2,113c5.7,0,11.1,0,16.6,0,11.7,0,23.3,0,35,0,12.4,0,22.8,4.7,32.2,12.5,7.7,6.3,13.3,14.1,18,22.7,5.8,10.4,9.6,21.4,13.1,32.7,2.4,8,3.5,16.2,5.7,24.2.8,3.1.7,6.4,1.2,9.7.2,1.9.7,3.8.9,5.7.3,1.7-.5,3.7.9,5.2.2.2,0,.6,0,1,.4,6.4.7,12.8,1.1,19.2.3,5.2.7,10.5.9,15.7.2,5.2.1,10.3,0,15.5,0,3.4-.7,6.8-.8,10.2-.2,3.3.4,6.8-.3,10-.7,3.6-.3,7.2-1,10.7-1.2,6-1.8,12.1-2.6,18.1-1.4,10.2-4.2,20.1-6.4,30.1-1.4,6.2-4.2,12-6.5,17.9-3.2,8.1-7.3,15.7-12.3,22.8-6.1,8.7-13.4,16-23.1,20.6-5.9,2.7-11.9,4.6-18.6,4.6-17.3-.1-34.7,0-52,0-.6,0-1.3,0-2.1,0V113ZM986.1,402c14.1,0,27.8,0,41.5,0,1.2,0,2.4.2,3.5,0,7.7-1.9,14.8-5.1,20.9-10.4,7.2-6.3,12.7-14,17-22.5,4.3-8.5,7.7-17.4,10.5-26.6,3-9.9,4.5-20,6.5-30,1-5.2,1-10.6,2-15.9.5-3.1,0-6.3.2-9.5.2-3.2.8-6.5.8-9.7.1-5.3.2-10.7,0-16-.2-5.4-.6-10.8-.9-16.2-.3-4.9-.3-9.9-1.2-14.7-.5-2.9-.2-6-1-8.7-1.3-4.5-1.5-9.2-2.8-13.7-1.5-5.1-2.4-10.3-3.8-15.3-3-10.3-6.7-20.2-12.2-29.5-4.7-7.9-9.8-15.2-17.1-21-7.9-6.2-16.4-9.4-26.4-9.3-11,.1-22,0-33,0s-2.9,0-4.5,0v269.1Z"/>
          <path class="cls-1" d="M1489.2,422.9c-3.1,0-5.6,0-8.1,0-2.3,0-2.9-.6-3-2.8,0-.8,0-1.7,0-2.5,0-100.1,0-200.3,0-300.4s0-2.6,0-4.2c1.9,0,3.6,0,5.2,0,11.5,0,23-.2,34.5,0,10.9.3,19.5,5.4,26.2,13.8,5.5,6.8,9.1,14.6,11.4,23,1.6,6,2.8,12.2,3.9,18.3.9,5,.3,10,1.5,15,1.1,4.8.3,9.9.2,14.9,0,3.1-.6,6.1-.9,9.2-.3,2.9-.3,5.8-.8,8.7-.7,4.3-1.2,8.6-2.3,12.8-2.9,10.4-6.1,20.6-13.3,29-2.1,2.5-4.2,5-6.5,7.4-2.6,2.7-2.4,2.6-.6,6,3,5.6,5.7,11.4,7.7,17.5,3.1,9.7,7,19.2,9.5,29,2.5,9.7,5.5,19.3,8.3,28.9,3.1,10.7,6.4,21.3,9.6,32,3.4,11.3,6.4,22.6,10,33.9.8,2.4,1.1,5,2.2,7.3.4.8,0,1.9,0,3.1-3.4,0-6.6,0-9.7,0-1.9,0-2.8-.6-3.4-2.6-1.8-6.4-4-12.7-5.8-19.2-3.1-11-6-22.1-9.1-33.2-1.8-6.4-4-12.7-5.9-19.2-2.1-7-3.9-14.1-6.1-21.1-2.6-8.4-5.2-16.7-8-25-2.3-7-5.1-13.8-9.1-20-3.5-5.4-8.8-8.3-15.1-8.7-7.5-.4-14.9,0-22.7,0v148.9ZM1489.3,133v121c8.5,0,16.8.1,25.1,0,2.5,0,5.1-.7,7.5-1.4,8.2-2.4,14.1-7.8,18-15.2,3.8-7.2,6.7-14.9,7.1-23.2,1.7-2.9.4-6.2,1.1-9.2.8-3.1.8-6.1.8-9.2,0-4.7-.4-9.5-.7-14.2-.5-7.6-1.7-15.1-4.2-22.2-2.8-8-6.5-15.3-13.6-20.6-4.4-3.3-9.4-5.2-14.6-5.5-8.8-.6-17.6-.2-26.5-.2Z"/>
          <path class="cls-1" d="M1122.1,113.1h11.7c0,1.5.1,3.1.1,4.7,0,62.5,0,125,.2,187.5,0,6.6.5,13.3,1.8,19.9.7,3.5.6,7.2,1.1,10.7.9,5.7,2.1,11.4,3.3,17,1.8,8.1,4.6,15.9,7.8,23.5,1.9,4.5,4.7,8.8,7.6,12.8,3.1,4.2,6.8,7.8,11.2,10.6,10.3,6.5,21.4,5.3,30.2-1.4,8.6-6.6,13.8-15.5,17.9-25.3,2.6-6.2,4.9-12.5,6.3-19,1-4.4,2-8.8,2.8-13.2.5-2.8.5-5.7,1.5-8.5,1-3,.8-6.4,1.1-9.6.8-7.9.9-15.8,1.4-23.7,1.4-20.2.5-40.5.7-60.7.2-20.5,0-41,0-61.5v-63.6h10.8c0,.8.2,1.8.2,2.7,0,60,0,120,0,180,0,7.4-.3,14.8-1.1,22.2-.6,6.1-1.1,12.3-2,18.4-.9,5.4-1.4,10.8-2.7,16.1-1.3,5.1-1.7,10.5-3.2,15.5-2.3,7.4-4.7,14.8-7.8,22-3,6.8-6.5,13.3-11.1,19-6.2,7.8-13.4,14.1-23.4,16.7-6.1,1.6-12.1,1-18-1-5.1-1.7-9.5-4.7-13.5-8.3-7-6.3-11.9-14.1-16.1-22.5-4-8-6.7-16.5-9.2-25.1-1.3-4.4-2.3-8.9-3.5-13.4-.6-2.3-.7-4.8-1.3-7.1-1-3.8-.9-7.6-1.8-11.4-.7-3.1-.8-6.5-1-9.7-.5-8.1-.8-16.2-1.4-24.2-1.2-15.8-.4-31.5-.6-47.2-.2-15.8,0-31.7,0-47.5v-95.5Z"/>
          <path class="cls-1" d="M1690.7,110.1c1.1,4.8,2.2,9.6,3.2,14.5,1.3,5.9,2.6,11.9,3.8,17.8,1.1,5.7,2.2,11.3,3.3,17,1,5,1.7,10.1,3.2,15,1.2,4.2,1.7,8.4,2.7,12.6,1.4,5.7,2.2,11.6,3.8,17.4,1.1,3.8,1.6,7.8,2.3,11.8,1.1,5.5,2.1,11,3.3,16.5.9,4.2,1.9,8.4,2.7,12.6.8,3.8,1.4,7.6,2.2,11.3.9,4.2,1.9,8.4,2.8,12.6,1.2,5.6,2.4,11.3,3.6,16.9.8,4.1,1.6,8.2,2.4,12.2.7,3.6,1,7.4,2.1,10.9,1.4,4.1,1.8,8.4,2.8,12.6,1.3,5.4,1.8,11.1,3.3,16.5,1.2,4.2,1.7,8.4,2.7,12.6,1.4,5.7,2.2,11.6,3.8,17.4,1.1,3.8,1.6,7.8,2.3,11.8.7,3.8,1.2,7.6,2.2,11.3,1.2,4.3,1.8,8.8,2.8,13.1.9,4.2,1.9,8.4,2.7,12.7.3,1.7.3,3.5.4,5.6-2.7,0-5,0-7.3,0-3,0-4.5-.9-4.7-3.7-.2-3.9-1.5-7.6-2.2-11.4-.6-3.9-1.6-7.8-2.4-11.8-.8-4.1-1.8-8.1-2.6-12.2-.8-3.8-1.1-7.7-2.2-11.3-1.3-4.2-1.7-8.4-2.7-12.6-1.4-5.7-2.1-11.6-3.8-17.3-1.1-3.7-1.5-7.5-2.3-11.3-1-5.3-2.1-10.7-3.1-16.1h-67.5c-2,2.6-1.6,6.1-2.4,9.3-.9,3.7-1.6,7.5-2.3,11.3-.9,4.2-1.8,8.4-2.7,12.7-1.1,5.3-1.7,10.8-3.2,16-1.2,4.2-1.7,8.5-2.7,12.7-1,4-1.7,8.1-2.7,12.2-1,3.9-1.6,7.9-2.4,11.8-1.3,6.6-2.6,13.2-4.1,19.7-.2.8-1.1,2.1-1.7,2.1-3,.1-5.9,0-8.9-.2-.4,0-.7-.6-1.1-1,1.3-6.4,2.3-12.9,3.9-19.2,2.2-8.7,3.5-17.5,5.6-26.2,1.4-5.7,2.7-11.6,3.4-17.5.4-3.5,1.4-6.9,2.1-10.3.9-4.2,1.9-8.4,2.8-12.6.8-3.8,1.4-7.6,2.2-11.3.9-4.2,1.9-8.4,2.8-12.6,1.1-5.5,2.1-11,3.3-16.5.9-4.2,1.9-8.4,2.7-12.7.8-3.8,1.4-7.5,2.2-11.3.9-4.2,1.9-8.4,2.8-12.7,1.2-5.6,2.4-11.2,3.6-16.9.8-4.1,1.6-8.2,2.4-12.3.7-3.8,1.5-7.5,2.3-11.3.9-4.1,1.9-8.1,2.7-12.2,1.1-5.5,1.7-11.1,3.2-16.5,1.2-4.2,1.7-8.5,2.7-12.7,1.4-5.7,2.2-11.6,3.8-17.3,1.1-3.8,1.6-7.9,2.3-11.8.7-3.8,1.2-7.6,2.2-11.3,1.2-4.3,1.9-8.8,2.8-13.1.8-3.8,1.3-7.6,2.1-11.4.2-1.2,1-2,2.4-2,1.3,0,2.6,0,4.2,0ZM1658,294.8h58.8c.9-2.9-.3-5.3-.8-7.8-.8-4.6-1.7-9.1-2.9-13.6-1-3.7-1.4-7.6-2.2-11.3-.7-3.9-1.5-7.9-2.3-11.8-1.2-5.3-2.8-10.5-3.6-15.9-1.1-7.3-2.9-14.5-4.3-21.7-1.1-5.8-2.2-11.6-3.7-17.3-1.4-5.6-2.2-11.3-3.3-17-.9-4.4-1.8-8.8-2.8-13.1-1-4.7-2.2-9.4-3.4-14.6-9.9,48.4-19.8,96.2-29.6,144.2Z"/>
          <path class="cls-1" d="M1260,639c-24,0-48,0-72.1,0-9.4.2-17.8-3-25.2-8.2-5.8-4.1-9.6-9.8-10.9-17.2-.6-3.6-.8-7.1-.8-10.7,0-14.8-.1-29.7,0-44.5,0-7.2,2.6-13.5,7.7-18.8,5.6-5.8,12.3-9.1,20.1-10.8,5-1.1,9.8-1.9,14.9-1.9,13.3,0,26.7-.3,40,.2,8.8.3,17.3,2.5,24.9,7.7,9.8,6.7,14.2,15.8,13.3,27.4-.4,4.4-2.2,8.6-5,12.3-6,7.9-14.2,12.5-23.4,15.1-3.8,1.1-8,1.4-12.1,1.4-6.7,0-13.5.6-20.2.8-6.8.2-13.7-.3-20.5.2-6.1.5-11.9,2.4-15.5,8.2-2.7,4.2-2.8,10.6.2,14.5,4,5,9.1,8.3,15.8,8.3,21.8,0,43.6,0,65.5,0,2.1,0,4.1.1,6.1,1.2,2.9,1.6,4.4,3.7,4.2,7,0,1,0,2,0,3.2-2.1,1.8-3.2,5.1-7,4.6ZM1174,578.3c1.3-.6,2.1-1.2,3-1.2,7-.7,13.8-2.3,20.9-2.1,10.3.3,20.6,0,31,0,2.6,0,5.1-.3,7.7-.9,4.9-1,8.4-3.8,11.1-7.4,3.1-4.1,3.3-8.8,1.1-13.7-2.1-4.8-11.4-9-15.7-9-14,0-28-.2-41.9,0-6.3,0-11.6,2.9-15.4,8-.8,1.1-1.5,2.6-1.5,3.9-.1,7.3,0,14.6,0,22.3Z"/>
          <path class="cls-1" d="M1333.7,127.9v26.2c-.7-.2-1.3-.2-1.5-.5-2-2.2-4.1-4.3-5.7-6.8-3.7-5.6-8.6-10-14.4-13-8.3-4.4-15.4-3.9-23.1,2.9-4.6,4-7.5,9.4-9.7,14.9-2.3,5.6-3.8,11.5-5.1,17.4-.9,3.9-1,8.1-1.1,12.2-.2,6.2-.1,12.3,0,18.5.2,9.9,2.7,19.4,7,28.3,2.1,4.4,5,8.3,8.2,12,5.9,6.7,12.9,11.9,19.6,17.6,9.6,8.3,17.9,17.8,22.7,29.7,2.5,6.2,4.6,12.5,5.7,19.2.8,5,1.4,9.9,2.1,14.9,1.6,11.4.9,22.8.6,34.2-.2,6.5-1.3,13.1-2.7,19.6-1.4,6.4-3,12.8-5.2,18.9-3.6,9.7-8.5,18.9-16.4,26-3.5,3.2-7.6,5-12.3,6.1-7.5,1.8-13.6-1.3-19.3-5-8.1-5.3-14.1-12.8-19.6-20.6-.8-1.1-1.1-2.7-1.1-4.1-.1-7.7,0-15.3,0-23,0-.5.2-.9.5-2,.7.9,1.1,1.4,1.5,2,3.7,5.3,7.1,10.8,11.1,15.9,3.8,4.8,7.9,9.6,13.4,12.4,7.6,4,13.7,3.3,20.6-2.4,6.9-5.6,10.2-13.6,12.9-21.8,2.1-6.4,3.1-13.1,4.1-19.7,1.4-9.1,1.2-18.2.6-27.2-.7-10.3-2.7-20.6-7.6-30-4.5-8.6-10-16.3-18-22.1-2.6-1.9-5-4.2-7.5-6.4-3.1-2.7-6.3-5.3-9.2-8.3-4.3-4.5-8.3-9.2-11.4-14.6-4.8-8.2-7.9-17.1-10-26.3-.7-3.2-.4-6.5-1.2-9.7-1.3-5.7-.7-11.5-1-17.2,0-1.7-1-3.6-.8-5.2,1-5.7.2-11.5,1-17.2,1.4-10.6,3.2-21.2,6.9-31.3,3.8-10.5,8.9-20.1,17.5-27.5,4.3-3.7,9-5.9,14.9-6.1,9.1-.3,16.3,3.5,22.8,9.1,3.8,3.3,7.2,6.9,10.4,10Z"/>
          <path class="cls-1" d="M1467,639.1c-14,0-28,0-42.1,0-7.3.2-14.1-1.5-20.4-5-6.9-3.8-12.6-8.9-16.1-16.2-1.5-3.2-2.5-6.6-2.5-10.2,0-15.8.2-31.6,0-47.5,0-5.7,1.7-10.5,4.5-15,5.7-9.1,14.4-14.1,24.4-17.1,3.2-1,6.8-1,10.2-1.1,14.3-.1,28.6-.2,43,0,7.6.1,14.8,2.1,21.6,5.8,8.2,4.4,12.3,11.6,15.2,19.8,1,3,1.1,6.4,1.1,9.6.1,14.5.3,29,0,43.5-.3,12-5.6,21.2-16.3,27.3-7.1,4-14.5,6.1-22.6,6ZM1445.4,622h0c6.5,0,13,0,19.5,0,.5,0,1,0,1.5,0,2.1.1,4.2-.2,6.2-1,7.4-2.7,12.3-7.6,12.4-16.6.1-14.3.1-28.7,0-43,0-5.4-2.3-9.8-6.9-13-4.3-3-9-4.3-14-4.3-11.8-.2-23.7,0-35.5,0-3.6,0-6.9.7-10.4,1.9-5.5,1.8-11.3,8.7-11.2,15.4.3,14.5,0,29,0,43.5,0,9.4,7.8,17.2,17.4,17.3,7,0,14,0,21,0Z"/>
          <path class="cls-1" d="M432,639.1c-14.7,0-29.4,0-44.1,0-8.2-.1-15.8-2.2-22.6-7-6.3-4.4-11.2-10-13.8-17.2-.9-2.5-1.4-5.3-1.4-8-.1-15.8-.2-31.6,0-47.4,0-5.7,2.3-10.8,5.5-15.6,3.3-4.9,7.8-8.3,12.6-11.3,3.8-2.3,8.2-3.5,12.5-4.5,4.9-1.2,9.8-1,14.7-1,11.3,0,22.6.1,34,0,7.4-.1,14.6,1.2,21.1,4.4,9.3,4.7,15.8,12,17.7,22.9.7,3.9.8,7.8.8,11.7,0,12.8-.4,25.7.1,38.4.8,16.4-11.3,28.5-24.2,32.5-4.2,1.3-8.4,2.3-12.8,2.1ZM448,583.4c0-7.8,0-15.6,0-23.5,0-3.7-1.4-6.6-3.8-9.1-4.3-4.6-9.9-6.6-16-6.7-12-.2-24,0-35.9-.1-3.6,0-6.9.7-10.4,1.9-6.1,2.1-10.7,9-10.8,15.2-.2,14.6,0,29.3,0,43.9,0,2.8.6,5.5,2,7.8,3.4,5.5,8.3,9.1,15,9.2,13,.2,26,0,38.9,0,2.9,0,5.8-.2,8.7-.9,6.7-1.6,12.5-8.2,12.3-14.8-.2-7.7,0-15.3,0-23Z"/>
          <path class="cls-1" d="M1462.9,113.2v19.5c-4.3.6-8.8.2-13.2.3-4.3,0-8.7,0-13,0h-26.7v289.9c-3.1,0-5.8,0-8.6,0-1.5,0-2.4-.9-2.4-2.5,0-1.2,0-2.3,0-3.5,0-92.8,0-185.6,0-278.5s0-3.3,0-5.3c-5.8-.4-11.6-.1-17.4-.2-5.7,0-11.3,0-17,0h-17.5v-19.8h115.8Z"/>
          <path class="cls-1" d="M329,639.1h-70.1c-8.3-.1-16.2-2.1-23.6-6-8.1-4.3-12.8-11.1-15.3-19.7-.3-1.1,0-2.3-.1-3.5,0-17.7-.3-35.3.1-53,.2-8.2,3.7-15,10.5-20.3,5.1-4,10.8-6.3,16.7-8.2,2.6-.8,5.4-1.3,8.1-1.3,24.8-.1,49.7,0,74.5-.1,6.8,0,10,6.9,7.2,12-1.4,2.5-3.4,3.9-6.2,4-1.8,0-3.7,0-5.5,0-20.3,0-40.7,0-61,0-4.9,0-9.6.9-14,3.2-5.4,2.8-8.5,7.2-8.4,13.7.2,15.5,0,31,0,46.5,0,6.8,4.2,12.2,10.7,14.7,3.7,1.4,7.4,2,11.4,2,21.2,0,42.3,0,63.5,0,1.8,0,3.5.4,5.2.8,3.3.8,4.6,3,5.1,5.8.7,3.5-.6,6.5-3.7,8.4-1.6,1-3.3,1.2-5.2,1.1Z"/>
          <path class="cls-1" d="M1084,639.1c-4.7,0-9.4,0-14,0-6.2.2-12.2-1.1-17.9-3.6-10.3-4.5-16.6-12.4-18.2-23.8-.7-4.5-2.2-9-3.3-13.5-2-7.9-4.2-15.7-5.7-23.7-1.2-5.9-3-11.7-4.5-17.6-1.5-5.7-3-11.4-4.4-17.1-.3-1.1-.1-2.3-.1-3.5,0-4.1,2.5-6.9,6.7-7.2,2.8-.2,5.7-.2,8.5,0,3.3.2,5.1,2.1,5.9,5.4,2.7,10.7,4.7,21.5,7.7,32.1,1.5,5.2,2.2,10.6,3.3,16,.6,3,1.1,6,2,8.9,1.6,5,2.3,10.3,3.9,15.3.6,1.8.6,3.8,1.1,5.7,1.3,5,6.2,8.8,11.5,9.9,5.4,1.1,10.8,1,16.2.8,4.1-.2,8.1-1.3,11.8-3.5,3.3-2,4.6-4.9,5.5-8.1,1.2-4.6,1.9-9.4,3.1-14,2.5-8.9,4.4-17.9,6.7-26.9,1.5-5.9,2.9-11.8,4.2-17.7,1.4-6.1,2.7-12.2,4-18.2.8-3.5,2.8-5.2,6.4-5.4,2.2-.1,4.3,0,6.5,0,5.2-.3,9.4,4.6,7.8,10.7-1.7,6.3-3.2,12.7-4.7,19-1.9,7.9-4.3,15.7-5.7,23.7-1.2,6.8-3.1,13.4-4.6,20.1-1.4,6.5-2.5,13.1-5.7,19.2-4.2,8-10.9,12.7-19.2,15.2-4.8,1.4-9.7,2.7-14.8,2.2Z"/>
          <path class="cls-1" d="M1594,113.1h10.8v309.8c-2.9,0-5.7,0-8.4,0-1.5,0-2.4-.8-2.4-2.4,0-.8,0-1.7,0-2.5,0-101,0-202,0-302.9v-1.9Z"/>
          <path class="cls-1" d="M1372.9,531.7v6.7c-3.1,4.2-7.4,5.7-12.4,5.6-12,0-24,0-36,0-5.7,0-10.4,2.3-14.5,5.8-2.3,2-3.8,4.9-4.4,8.4-.7,4.1-.7,8.1-.7,12.2,0,20,0,40,0,59.9,0,6.5-2.2,8.7-8.7,8.8-1.5,0-3,0-4.5,0-4.8-.2-7.8-3.2-7.8-8,0-24.3-.2-48.6.1-72.9,0-6.7,2.8-12.8,7.3-17.9,6.3-7.1,14.3-10.6,23.5-12.3,4.8-.9,9.5-.8,14.2-.8,11.2,0,22.3,0,33.5,0,4.1,0,7.7.9,10.3,4.7Z"/>
          <path class="cls-1" d="M634,594.4c0,11.5.1,23,0,34.5,0,4.2-1.6,8.1-6,9.6-2.1.7-4.5.5-6.8.5-5.4,0-6.7-1.4-8.2-6.8-.6-2.3-.8-4.5-.8-6.7,0-20-.2-40,.1-60,0-4.9.2-10,1.8-14.9,1.3-3.9,2.9-7.5,6.1-10.3,2.7-2.4,5.3-5,8.2-7.1,4.2-3,9.2-4.2,14.2-5.3,7.5-1.6,15.1-.7,22.7-.9,5.7-.2,11.3-.1,17,0,3.5.1,6.7,1,8.2,4.8,1.4,3.6.4,6.8-2.7,9.2-2.7,2.2-5.7,2.9-9,2.9-8.8,0-17.7-.2-26.5,0-8.1.2-14.2,4-17.4,11.6-.6,1.3-.8,2.8-.8,4.2,0,11.5,0,23,0,34.5Z"/>
          <path class="cls-1" d="M670.3,478c7.3,0,14.6,0,22,0,3.1,0,6,.8,7.6,3.6,2.4,4.1,1.4,8.4-2,10.9-2.2,1.5-4.7,2.6-7.6,2.6-12.6-.1-25.3-.3-37.9,0-7.9.2-14.1,3.8-17.6,11.5-.8,1.8-.5,3.5-.7,5.3-.2,1.8-.2,3.4-.9,5.2-2.4,6.3-8.6,8.7-16.2,5.8-2.4-.9-4.3-2.9-4-6.2.3-3,.2-6,0-9-.2-5.3,2.2-9.7,4.8-13.9,4.4-6.9,11.3-11.1,18.8-13.5,4.2-1.4,8.7-2.4,13.3-2.3,6.8.1,13.6,0,20.5,0Z"/>
          <path class="cls-1" d="M734,502.8c0,2.3,0,4.7,0,7-.2,3.7-2.4,6-6.1,6.2-2.2.1-4.3,0-6.5,0-4.6,0-7.1-1.6-7.9-6.2-.8-5.1-1-10.3.3-15.6.9-3.6,3.2-4.7,6.2-5.1,2.6-.4,5.3-.2,8,0,3.6.2,5.9,2.6,6,6.3.1,2.5,0,5,0,7.5Z"/>
          <path class="cls-1" d="M980.9,493.8v18.2c-1.8,1.2-3.6,3.4-5.7,3.8-3.1.6-6.6.4-9.8-.2-3.2-.6-5.3-3.8-5.3-7.2,0-4,0-8,0-11.9,0-4.2,3.1-7.2,7.3-7.5,1.2,0,2.3,0,3.5,0,4.3-.5,7.7,1.1,10.1,4.8Z"/>
        </g>
      </g>
    </g>
  </g>
</svg>