<?xml version="1.0" encoding="UTF-8"?>
<svg xmlns="http://www.w3.org/2000/svg" version="1.1" viewBox="0 0 776.8 153.8">
  <defs>
    <style>
      .cls-1 {
        fill: #1d1d1b;
      }
    </style>
  </defs>
  <!-- Generator: Adobe Illustrator 28.7.1, SVG Export Plug-In . SVG Version: 1.2.0 Build 142)  -->
  <g>
    <g id="Livello_1">
      <g id="_x38_xOvhM">
        <g>
          <path class="cls-1" d="M57.2,153.2c-8.2-2.1-13.5-7.1-15.4-15.5-2-9,3.4-18.6,9.8-20.8,1.2,2,2.3,4,3.6,6.2-5.3,4.5-7.8,9.7-4.3,16.4,2.2,4.1,6.8,6.6,11.6,5.9,6.5-1,9.7-5.5,10.7-11.7h7.1c.9,9.1-5.2,16.6-15.6,19.5l-2.3.5h-2.3c-1-.2-2-.4-3-.6Z"/>
          <path class="cls-1" d="M97.7.6c7.1,2.4,12.1,6.9,13.9,14.3,2.1,8.7-1.5,17.7-9.4,21.9-1.2-2.1-2.5-4.2-3.8-6.5,5-4.1,7.7-8.9,4.8-15.3-2-4.5-6.1-7-11-7-5.6,0-9,3.4-12,11.6h-7.3c.1-7.3,3.3-12.7,9.2-16.5,1.8-1.2,3.9-2,5.8-3,2.5,0,5,0,7.5,0,.8.2,1.5.4,2.3.6Z"/>
          <path class="cls-1" d="M413.8,16.3h6.8c3.8,10.8,7.6,21.5,11.6,32.5h-5.7c-1.2-3.4-2.5-7-3.9-10.8h-11.9c-1.4,3.4-2.9,7.1-4.3,10.6-6.9,2.3-11.4-.7-15.2-5.8-1.5-2-3-4-4.5-6h-6v12.1h-5.6V16.3c5.3-.2,10.6-.7,15.9.5,3.5.8,5.8,3.2,6.5,6.9.8,3.7,0,6.9-2.7,9.6-.7.7-1.5,1.2-2.5,1.9,2.7,3.9,5.1,7.8,9.9,9.9,3.9-9.6,7.7-19.1,11.7-28.9ZM380.5,32.2c2.5,0,4.6.3,6.7,0,3.2-.5,4.7-2.7,4.6-6.1,0-3.2-1.2-4.6-4.6-5.1-2.2-.3-4.4-.3-6.7-.4v11.7ZM416.9,20.4c-1.5,4.8-3.5,8.6-4.3,13h8.5c-1.4-4.2-2.7-8.2-4.2-13Z"/>
          <path class="cls-1" d="M272.7,43.8c.4,1,.8,1.8,1.4,3.2,4.3-10.6,8.3-20.5,12.4-30.6h6.8c3.8,10.6,7.6,21.3,11.6,32.4h-5.7c-1.3-3.5-2.5-7-3.8-10.7h-12c-1.4,3.5-2.8,7-4.3,10.5-.3.2-.5.4-.7.4-5.6-.6-11.1.9-16.6.5-7.7-.5-13.5-5.6-14.5-13.2-1.3-9.6,2.5-16.7,9.8-19.3,5.6-2,11.2-1.7,17,.7-.5,1.3-.9,2.6-1.4,4-2.1-.4-4-.8-5.9-1.2-2.8-.6-5.4,0-8,1.1-4.7,1.8-6.6,6.6-6.2,11.7.6,8.3,6.8,12.9,15,11.6,1.7-.3,3.4-.6,5.3-.9ZM293.7,33.3c-1.1-4.2-2.2-8.1-4.2-12.4-1.6,4.5-3,8.3-4.4,12.4h8.6Z"/>
          <path class="cls-1" d="M336.4,16.4h6.4v32.4h-5.2v-20.2c-.3,0-.6-.1-.8-.2-2.1,3.1-3,6.8-4.5,10.2-1.5,3.4-2.8,6.9-4.3,10.3h-6.7c-2.6-7.3-5.1-14.5-7.7-21.7-.1,0-.3,0-.4,0v21.6h-5.2V16.4h6.5c3.3,9,6.7,18.1,10.3,28,2.1-5,4-9.6,5.9-14.2,1.9-4.6,3.8-9.2,5.7-13.9ZM337.5,26.3c-.1,0-.3,0-.4,0,0,.4,0,.8,0,1.3.2,0,.3,0,.5,0,0-.4-.1-.8-.2-1.2Z"/>
          <path class="cls-1" d="M581.2,44.5c4-9.6,7.8-18.9,11.7-28.1h6.3v32.5h-5.2v-21c-.3,0-.6,0-.8-.1-2.9,7.1-5.8,14.2-8.7,21.3h-6.7c-2.6-7.2-5.1-14.4-7.7-21.6-.1,0-.3,0-.4,0v21.4h-5.1V16.3h6.4c3.4,9.2,6.8,18.5,10.3,28.2ZM569.4,25.3c0,0-.2-.2-.2-.3,0,.2-.2.4-.3.6,0,0,.2.2.2.3,0-.2.2-.4.3-.6Z"/>
          <path class="cls-1" d="M634.9,16.4h6.3v32.5h-5.3v-21c-.3,0-.6,0-.8-.1-2.9,7.1-5.8,14.2-8.7,21.3h-6.7c-2.6-7.2-5.1-14.4-7.7-21.6h-.4v21.5h-5.1V16.3h6.4c3.4,9.2,6.8,18.5,10.3,28.2,4-9.6,7.8-18.9,11.7-28.1ZM611,25.9h.2c0,.1,0,0,0,0h-.2Z"/>
          <path class="cls-1" d="M663.7,68.3v23.3h-5.2v-32.4h6.4c4.8,8,9.6,16,14.4,24.1.2,0,.4-.1.7-.2v-23.9h5.2v32.4h-6.5c-4.6-7.7-9.4-15.6-14.2-23.5-.3,0-.5.2-.8.3Z"/>
          <path class="cls-1" d="M57.7,23.1c.8-1.5,1.5-2.8,2.2-4.1.5-.8,1-1.6,1.5-2.4,7.6,3.2,12.3,14.8,8.8,23.8-3.8,9.7-13.8,13.8-21.1,12.6-10.3-1.7-16.9-9.4-17-19.8h7.4c1.1,6.3,4,10.8,10.7,11.7,5.9.8,10.4-2.5,12.1-6.8,2.4-6.1.5-11.2-4.7-15.1Z"/>
          <path class="cls-1" d="M92.1,16.3c1.3,2.2,2.4,4.2,3.7,6.5-5.5,4.5-7.6,9.9-4.2,16.4,2.3,4.4,7.4,6.6,12.4,5.8,5.2-.9,8.6-4.9,9.7-11.5h7.6c-.2,10.5-6.8,18-17.6,19.5-7.9,1.1-17-3.6-20.3-12.6-3.4-9.3,0-18.9,8.8-24.1Z"/>
          <path class="cls-1" d="M98.9,118.8h7.5c.4,3.5,1.3,6.8,4.1,8.9,1.8,1.3,4.1,2.5,6.4,2.8,5.2.8,9.8-1.9,12-6.3,2.5-5.1,1.1-10-4.5-15.8,1.2-2.1,2.4-4.2,3.6-6.3,8.5,4.5,12.2,14.5,8.8,23.7-3.6,9.7-13.2,14.7-23.4,12.3-7.6-1.8-15.3-9.6-14.5-19.2Z"/>
          <path class="cls-1" d="M128.1,51.6c-1.3-2.3-2.5-4.4-3.6-6.5,7.7-5.5,18.6-2.8,24.3,3.5,6.6,7.3,6.9,17.7.8,25.7-5,6.6-16.2,10.1-25.2,4.6,1.2-2.2,2.4-4.5,3.6-6.7,7,2.5,12.4,1.3,15.7-3.3,3.1-4.4,3.1-10-.2-14.3-3.3-4.4-8.6-5.5-15.3-3Z"/>
          <path class="cls-1" d="M17,59.9c9-5.4,19.1-2.4,24.5,3.8,6.7,7.8,6.7,17.9.2,25.9-5.1,6.2-16,9.5-24.7,4.1,1.2-2.2,2.4-4.4,3.5-6.6,7.4,2.5,12.1,1.4,15.6-3.3,3.3-4.6,3.3-9.7,0-14.2-3.5-4.6-8.2-5.6-15.3-3.2-1.2-2.1-2.4-4.2-3.7-6.6Z"/>
          <path class="cls-1" d="M32.5,119.9c-.3-9.5,6.3-17.2,16-19.2,8.6-1.8,18.2,3.5,21.6,11.7,4.1,9.9-.8,21.2-8.6,24.8-1.2-2.1-2.4-4.2-3.8-6.5,5.1-4.2,7.8-9.2,4.7-15.7-2.4-5.1-7.1-7-11.2-6.6-5.5.5-9.4,2.8-11.5,11.5h-7.2Z"/>
          <path class="cls-1" d="M96,130.5c-.8,1.3-1.3,2.4-2,3.5-.6,1-1.2,1.9-1.8,2.8-8.1-3.4-11.4-13.2-9.3-21.9,2.4-9.6,11.6-15.6,21.6-14.3,10.4,1.4,17.1,10.2,16.9,19.6h-7.5c-1-7-4.9-11.2-11.8-11.9-4.2-.4-9.2,2.9-11,7.2-2.5,6.1-.3,10.9,4.8,15.1Z"/>
          <path class="cls-1" d="M85.6,86.9c1.3,2.3,2.6,4.4,3.8,6.5-7.6,4.9-18.6,3.1-24.6-3.7-6.3-7.2-6.6-18.8.1-26.3,5.8-6.5,16.9-8.8,24.6-3.6-1,1.7-2,3.4-3,5.1-.2.4-.6.8-.9,1.1-8.5-2-12.9-.7-16.1,4.6-2.6,4.2-2.3,9.4.9,13.3,3.6,4.5,8.3,5.5,15.2,3Z"/>
          <path class="cls-1" d="M0,94.5c0-2,0-4,0-6,2-10.7,11.2-17,20.9-16.5,2.7.2,5.5,1,8.6,2.8-1.2,2.1-2.5,4.2-3.8,6.5-6.4-2.5-12-1.9-16,4-2.9,4.3-2.7,9.4.2,13.3,3.5,4.7,8,5.8,15.6,3.6,1.2,2.1,2.4,4.2,3.8,6.6-5.8,3.2-11.7,3.4-17.6,1-6.8-2.8-10.4-8.1-11.8-15.2Z"/>
          <path class="cls-1" d="M54.7,34.5h-7.4c-1.1-6.8-4.8-11-11.7-11.7-4.5-.4-9.2,2.8-11.1,6.9-2.3,5.1-1.2,9.1,4.6,15.5-1.1,2.1-2.3,4.2-3.5,6.3-8.7-4.1-11.9-15-8.9-23.7,3.4-9.5,12.6-14.3,22-12.6,10.4,1.8,16.7,11.2,15.9,19.3Z"/>
          <path class="cls-1" d="M133.1,66.3c-6.6-2.6-12.2-1.8-16.1,4.3-2.8,4.2-2.4,9.2.7,13.3,3.3,4.4,8.2,5.5,15.4,3.3.1.2.4.5.6.8,1.1,1.8,2.1,3.7,3.1,5.5-6.7,4.9-17.7,3.5-23.9-3-6.9-7.2-7.1-18.9-1-26.3,5.7-7,16.9-9.6,25.2-4.3-1.2,2.1-2.5,4.2-3.8,6.5Z"/>
          <path class="cls-1" d="M282.9,59.2h5.1v32.3h-6.6c-4.7-7.9-9.5-15.9-14.8-24.7v24.6h-5.3v-32.2h6.3c4.8,8.1,9.8,16.3,14.8,24.6.2,0,.3-.1.5-.2v-24.5ZM266,66.4h.2c0,.1,0,0,0,0h-.2Z"/>
          <path class="cls-1" d="M520.3,58.8c5.2.2,10.3,0,15.4.7,3.5.4,6,2.8,6.9,6.5,1,3.8.3,7.1-2.5,10-.8.8-1.7,1.4-2.6,2.2,3.1,3.9,5.4,8.3,10.7,10-.3,1.4-.6,2.6-1,4.2-8.2-.8-10.9-7.9-15.4-12.8h-5.9v12.1h-5.6v-32.8ZM526,74.9c2.5,0,4.6.3,6.7,0,3.2-.5,4.7-2.7,4.6-6.2-.1-3.2-1.3-4.6-4.7-5.1-2.2-.3-4.3-.3-6.6-.4v11.7Z"/>
          <path class="cls-1" d="M742.6,75.2c-.3-8.1,4.8-13.7,10.1-15.5,7.3-2.6,15.4-1.1,19.6,4.1,4.7,5.9,5,12.7,2.3,19.4-2.6,6.5-8.1,8.9-14.9,9.2-8.2.3-14.5-3.5-16.5-11.9-.4-1.7-.4-3.5-.5-5.2ZM770.7,75.3c0-.7,0-1.6-.1-2.5-.6-5.5-4.6-9.5-9.9-9.9-6.4-.4-10.5,2.3-12,8.1-.5,1.8-.8,3.7-.6,5.5,1.1,10.8,9.2,12.9,16,10.3,5.1-1.9,6.5-6.4,6.6-11.6Z"/>
          <path class="cls-1" d="M542.2,49.5c-8.3.5-16.5-5.1-16.2-16.3,0-1.7,0-3.5.3-5.2,1.5-6.7,5.8-10.7,12.4-11.9,8.9-1.6,17.2,1.3,19.9,10.6,1.3,4.4,1.1,8.9-.5,13.2-2.1,5.5-7.5,9.8-15.8,9.5ZM553.9,32.6c0-.9,0-1.7-.2-2.6-.7-5.4-4.6-9.4-9.6-9.8-6.5-.6-10.8,2.2-12.3,8.2-.5,2-.7,4.2-.5,6.2,1,8.4,8.4,12.7,16.1,9.5,5-2.1,6.4-6.5,6.5-11.5Z"/>
          <path class="cls-1" d="M404,135c-10.1,0-16.2-6.2-16.4-16.7-.1-10.3,6.6-16.9,17.1-17,8.1-.1,16.5,4.2,16.5,17,0,12.6-8.9,17.1-17.2,16.8ZM393.2,118c0,.5,0,1,0,1.5.3,6.1,4.3,10.7,9.6,11.1,7,.5,11.6-2.7,12.8-9.2.3-1.9.4-4,0-6-.7-4-2.5-7.3-6.6-8.8-6.8-2.6-16.1.5-15.8,11.5Z"/>
          <path class="cls-1" d="M759.4,49.5c-9.4.3-16.5-5.7-16.3-17.1.1-12.1,8.7-16.8,17.4-16.6,10.1.2,16,6.5,16.1,17,0,10.2-6.8,17.1-17.2,16.8ZM748.6,32.6c0,8.5,4.5,13,12.5,12.5,5.5-.3,9.1-4,10-10.6.6-4.5-.4-8.8-4.1-11.8-3.5-2.9-7.8-3.1-12-1.5-4.3,1.6-6.5,5.6-6.5,11.5Z"/>
          <path class="cls-1" d="M690.6,35.4c4.7,6.7,6,7.9,10.6,10.3-.3,1.2-.6,2.3-1,3.9-8.1-.8-10.8-7.7-15.3-12.7h-6.2v12h-5.3V16.2c5.3,0,10.6-.7,15.8.6,7,1.9,9.2,11,4,16.2-.8.8-1.7,1.4-2.7,2.3ZM678.6,32.7c3.1-.4,5.8-.4,8.4-1.2,2.6-.8,3.4-2.6,3.3-5.6-.1-2.6-1.1-4.4-3.3-4.9-2.7-.7-5.6-1.1-8.4-.2v11.8Z"/>
          <path class="cls-1" d="M203.3,137.9h-3.6V15.7c1.2,0,2.3-.1,3.6-.2v122.4Z"/>
          <path class="cls-1" d="M690.7,135c-13.1,0-17.5-10.4-15.9-20.2,2-12.2,17.3-17.9,27.1-10.4,4.8,3.7,5.9,8.9,5.9,14.6,0,1.6-.3,3.2-.8,4.8-2.1,7.4-7.9,11.3-16.4,11.2ZM691.1,130.6c6.7.5,11.2-4.8,11.3-10.3,0-1.5,0-3,0-4.5-.5-6.6-5.3-9.9-10.3-10.2-6.6-.3-10.9,3.3-12,9.3-.4,2.4-.2,5,.4,7.4,1.3,5.7,4.9,8.3,10.7,8.3Z"/>
          <path class="cls-1" d="M444.5,16.3c5.9.2,11.6-.7,17.2.9,7.2,2.1,11,7.1,11.1,14.5,0,1.6,0,3.3-.2,4.8-1.2,6.5-5.6,11.1-12.2,11.9-5.1.6-10.4.1-15.8.1V16.3ZM450.4,20.3c-1,3.3-.9,21.4,0,24.4,1.1,0,2.2,0,3.3,0,1.1,0,2.2-.2,3.3-.3,6.7-.8,9.9-3.9,10.3-10.5.4-6.8-2.5-11.3-8.5-12.7-2.7-.6-5.7-.6-8.4-.9Z"/>
          <path class="cls-1" d="M295,91.6v-32.5c5.8,0,11.5-.6,17.1.9,8.5,2.3,11.4,8.7,11.1,16-.4,9.9-5.4,14.9-15.4,15.6-4.2.3-8.4,0-12.8,0ZM300.4,87.5c1.6,0,3.1,0,4.6,0,1.6-.1,3.2-.2,4.8-.6,4.3-1,7.3-4.5,7.7-8.9.1-1.4.1-2.7,0-4.1-.3-4.9-3.4-8.9-8.1-9.9-2.9-.6-5.9-.6-9-.9v24.4Z"/>
          <path class="cls-1" d="M661.2,120.8c3.1,4.3,5.6,8.3,10.6,10.3-.3,1.3-.6,2.6-1,4-8.1-1-10.7-7.9-15-12.7h-6.3v11.8h-5.3v-32c5,0,10-.3,14.9.1,3.5.3,6.2,2.6,7.1,6.3,1,4,.4,7.7-2.8,10.6-.6.6-1.4,1-2.3,1.7ZM649.4,118.5c3-.4,5.6-.5,8.1-1.1,2.7-.7,3.7-2.5,3.7-5.7,0-3.4-.8-4.7-3.9-5.4-2.5-.5-5.1-.5-7.8-.7v12.8Z"/>
          <path class="cls-1" d="M427,78.1c3,4.1,5.5,8.2,10.6,10.1-.3,1.3-.6,2.5-.9,4.1-8.1-.8-10.9-7.7-15.3-12.8h-6.2v12h-5.1v-32.2c5,0,10-.3,14.9,0,3.4.3,6.1,2.5,7,5.9.9,3.7,1,7.5-2.1,10.5-.8.8-1.7,1.4-2.8,2.4ZM415.2,75.3c2.7-.2,5.2-.1,7.6-.6,2.8-.6,4.4-3.2,4.2-5.9-.2-3.1-1.6-4.8-4.7-5.2-2.3-.3-4.6-.3-7.1-.5v12.2Z"/>
          <path class="cls-1" d="M538.3,133.5c-.3,1.8-1.6,1.6-2.8,1.3-2.8-.9-5.1-2.6-7-4.8-2-2.4-3.8-4.9-5.9-7.6h-6.3v11.9h-5.1v-32.4c5.1,0,10.4-.7,15.4.5,7,1.6,9.3,11,4.2,16.2-.8.8-1.7,1.4-2.8,2.3,2.7,3.8,5,7.9,9.8,9.8.4.2.7.9,1,1.4,0,.3-.1.5-.2.8h0c-.2.2-.4.4-.5.7ZM516.3,118.3c3.2-.5,6.1-.6,8.8-1.5,2.3-.7,3.1-3.2,2.8-5.9-.4-2.8-1.4-4.1-4.1-4.5-2.4-.4-4.9-.4-7.4-.5v12.4Z"/>
          <path class="cls-1" d="M330,120.9c3.2,4,5.5,8.5,10.8,10-.4,1.4-.7,2.6-1.1,4.1-8.1-.6-10.7-7.7-15.3-12.7h-6.1v12h-5v-32.3c4.6,0,9.1-.2,13.7,0,3.9.2,6.9,2.2,8,6.1,1.2,4,.8,7.7-2.4,10.6-.7.7-1.5,1.3-2.5,2.1ZM318.3,118.3c3.2-.5,6-.6,8.7-1.4,2.3-.7,3.2-3.2,2.9-5.9-.4-2.8-1.4-4.2-4.1-4.6-2.4-.4-4.9-.4-7.5-.6v12.4Z"/>
          <path class="cls-1" d="M741.2,134.2h-6.2c-4.9-8.2-9.8-16.4-14.7-24.5-.2,0-.4.2-.6.3v24.1h-4.6v-31.9h6c4.8,8.1,9.7,16.3,14.7,24.5.3,0,.5,0,.8-.1.2-8,0-16,.1-24.3h4.6v32Z"/>
          <path class="cls-1" d="M349.4,59.1h5.4c0,4.6,0,9.1,0,13.5,0,3.4,0,6.7-.6,10-1,5.8-4.5,8.5-9.8,9.3-3,.5-6.2,0-9.2-.6-4.8-1.1-7.6-4.6-7.8-9.4-.4-7.6,0-15.2,0-22.9h4.9c0,.9.2,1.8.2,2.8,0,5,0,10,0,15,0,1.2,0,2.5.2,3.7,1,5.8,5.5,8.6,11.2,6.9,2.9-.9,4.7-2.8,5.1-5.8.2-1.6.3-3.2.3-4.8,0-5.8,0-11.7,0-17.7Z"/>
          <path class="cls-1" d="M497.5,101.9h5.1c0,7.5.4,14.8-.1,22.1-.4,6.6-5.4,10.8-12,11-2.1,0-4.3,0-6.3-.5-5.7-1.3-8.9-5.1-9-10.8-.2-7.1,0-14.2,0-21.7h5.4c0,4.1,0,8.2,0,12.3,0,3.2,0,6.5.3,9.7.4,4,2.8,6.2,6.9,6.5,4.6.4,7.8-1.3,9-5,.5-1.6.7-3.4.7-5.1,0-6.1,0-12.2,0-18.5Z"/>
          <path class="cls-1" d="M305.2,103.2c-.5,1.5-.9,2.7-1.4,4-1.8-.4-3.5-.8-5.1-1-5.1-.8-9.8,0-13,4.5-2.9,4.2-2.6,11.2.4,15.2,2.9,3.9,8.4,5.4,14.2,3.9v-11.3h5.3v15c-6.2,2.1-12.4,2.6-18.5,0-6.2-2.6-8.8-8.1-8.7-15.6,0-1.6.2-3.3.5-4.8,1.5-6,5.2-9.8,11.3-11.1,5-1.1,9.9-1,15,1.3Z"/>
          <path class="cls-1" d="M611.2,60.4c-.5,1.5-.9,2.8-1.3,3.7-3.4-.4-6.5-1.2-9.6-.9-9.1.8-10.9,7.3-10.6,13.1.5,8.5,8.2,13.3,16.5,10.4v-11h5.3v14.9c-6.9,2.2-13.8,2.8-20.5-1-3.6-2-5.7-5.4-6.3-9.3-.5-3.3-.5-6.8,0-10,1.2-6,5.1-9.8,11.2-11.2,5-1.1,9.9-1,15.1,1.2Z"/>
          <path class="cls-1" d="M637.3,59h6.7c3.8,10.7,7.6,21.4,11.6,32.5h-5.7c-1.2-3.4-2.6-7-3.9-10.8h-12c-1.4,3.5-2.9,7-4.4,10.8h-5.5c4.4-10.8,8.7-21.6,13.1-32.5ZM640.4,63.2c-1.6,4.6-3.1,8.6-4.5,12.8h8.8c-1.4-4.3-2.7-8.3-4.2-12.8Z"/>
          <path class="cls-1" d="M257.4,101.8h6.7c3.8,10.7,7.7,21.4,11.6,32.5h-5.7c-1.2-3.4-2.5-7-3.9-10.8h-12c-1.4,3.6-2.9,7.1-4.3,10.8h-5.5c4.4-11,8.7-21.7,13.1-32.6ZM260.9,107.1c-.3,0-.5,0-.8,0-1.4,3.8-2.8,7.7-4.2,11.7h8.8c-1.3-4.1-2.6-7.9-3.8-11.7Z"/>
          <path class="cls-1" d="M478.9,91.6h-5.7c-1.3-3.6-2.5-7.1-3.8-10.8h-12c-1.4,3.5-2.9,7.2-4.4,10.8h-5.5c4.4-11,8.7-21.6,13-32.5h6.8c3.8,10.6,7.6,21.4,11.6,32.5ZM467.9,76.1c-1.4-4.2-2.6-8-3.9-11.9-.2,0-.5,0-.7.1-1.4,3.9-2.7,7.7-4.2,11.8h8.8Z"/>
          <path class="cls-1" d="M707.2,59.1c3.8,10.8,7.6,21.4,11.5,32.4h-5.7c-1.3-3.4-2.6-7-3.9-10.7h-11.9c-1.4,3.4-2.8,7-4.4,10.8h-5.5c4.4-10.9,8.7-21.6,13.1-32.4h6.8ZM698.9,76h8.8c-1.4-4.3-2.7-8.2-4.2-12.7-1.6,4.5-3,8.5-4.6,12.7Z"/>
          <path class="cls-1" d="M508,80.7h-11.9c-1.4,3.5-2.9,7.1-4.5,10.9h-5.5c4.4-11,8.8-21.7,13.1-32.6h6.8c3.8,10.7,7.6,21.3,11.6,32.6-1.9,0-3.5.2-5.5.3-1.3-3.6-2.7-7.3-4.2-11.2ZM506.7,76.2c-1.5-4.5-2.8-8.4-4.3-13-1.6,4.6-3.1,8.6-4.6,13h8.9Z"/>
          <path class="cls-1" d="M539.4,132c4.1-10,8.2-20,12.3-30.1h6.8c3.8,10.7,7.6,21.4,11.5,32.4h-5.6c-1.3-3.5-2.7-7.2-4-10.9h-11.9c-1.5,3.7-3,7.4-4.6,11.2-1.9-.5-3.9.8-5.3-1,0-.3.2-.5.3-.8,0,0,0,0,0,0,.2-.3.4-.5.6-.8ZM558.9,118.9c-1.3-4.2-2.6-8.1-4.2-13-1.7,4.8-3.2,8.8-4.7,13h8.9Z"/>
          <path class="cls-1" d="M755.4,123.2c-1.6,3.9-3,7.4-4.4,10.9h-5.3c4.4-10.8,8.6-21.4,12.9-32.1h6.7c3.8,10.6,7.5,21.2,11.4,32.1h-5.4c-1.3-3.5-2.6-7.2-4-10.9h-12ZM761.8,105.6c-1.7,4.8-3.3,8.9-4.9,13.3h9.1c-1.4-4.4-2.7-8.5-4.2-13.3Z"/>
          <path class="cls-1" d="M378.4,60.7c-.5,1.4-.9,2.5-1.4,3.8-1.5-.4-2.9-1-4.3-1.1-1.7-.2-3.5-.2-5.1,0-1.5.3-2.7,1.2-2.9,3-.2,1.7.4,3,1.8,3.8,1.6.9,3.3,1.7,5,2.6,1.8.9,3.6,1.7,5.2,2.9,5.9,4.3,5,12.6-1.8,15.3-5.4,2.2-10.9,1.7-16.4-1,.5-1.5,1-2.7,1.5-4.1,1.9.5,3.6,1.3,5.4,1.5,2.1.2,4.2,0,6.2-.3,1.8-.3,3.1-1.5,3.4-3.5.3-2.1-.8-3.6-2.5-4.6-1.2-.7-2.4-1.2-3.7-1.8-1.5-.7-3-1.3-4.4-2.1-4.1-2.4-5.6-5.4-4.9-9.5.6-3.6,3.6-6.3,7.9-6.9,3.7-.5,7.4-.3,11.2,2Z"/>
          <path class="cls-1" d="M523,43.8c.4,1.4.7,2.6,1.1,4.2-7.3,2.3-14.2,2.6-20.9-1.5-.1,0-.2-.2-.3-.2-5.2-4.1-7.3-12.1-5-19.4,1.8-5.8,5.8-10.1,14.1-10.9,3.9-.4,8-.3,11.9,1.9-.4,1.2-.8,2.5-1.3,3.9-1.9-.4-3.7-.7-5.5-1.1-5.4-1-10.7.8-12.8,4.7-2.7,4.9-2.7,10.1.5,14.8,2.9,4.3,7.5,5,12.3,4.7,1.8-.1,3.7-.6,5.9-1Z"/>
          <path class="cls-1" d="M384.2,103.3c-.5,1.4-.9,2.5-1.5,3.9-1.5-.3-2.9-.6-4.3-.8-.9-.2-1.7-.4-2.6-.5-6.4-.2-12,2-13.1,10.2-.8,5.6,1.8,12.9,9.3,13.9,2.2.3,4.4.2,6.6.2,1.3,0,2.7-.4,4.3-.6.4,1.2.9,2.3,1.5,3.9-1.2.4-2.3.8-3.5,1.1-4.2,1-8.4,1-12.6-.1-6.1-1.7-10.4-6.5-10.9-12.8-.2-2.7-.1-5.5.4-8.2,1.4-6.9,6.1-10.7,12.8-11.8,4.4-.7,8.9-.5,13.5,1.8Z"/>
          <path class="cls-1" d="M727.6,43.8c.4,1.4.8,2.6,1.1,3.7-6.3,3.6-16.9,2.6-21.9-2-4.5-4.2-5.7-9.6-4.9-15.4,1.7-12.2,11-15.4,21.5-14.1,1.7.2,3.3.9,5.3,1.5-.4,1.4-.8,2.7-1.2,4.2-1.9-.4-3.7-1-5.5-1-2.6,0-5.2.2-7.7.5-.7,0-1.4.6-2,1-5.1,3.3-5.4,8.4-4.6,13.6.7,4.6,3.6,7.4,8.2,8.6,3.9,1.1,7.6.2,11.8-.6Z"/>
          <path class="cls-1" d="M607.8,102.1h5.2c-4.3,10.8-8.5,21.5-12.7,32.1h-7c-3.7-10.5-7.5-21.1-11.4-32h5.6c3,8.9,6.1,18,9.4,27.8,3.8-9.7,7.3-18.8,10.8-27.9Z"/>
          <path class="cls-1" d="M668.4,44.6v4.1h-19.9V16.4h18.9v4h-13.7v9.9h12.6c0,1.5.1,2.6.2,4h-12.9v10.2h14.7Z"/>
          <path class="cls-1" d="M350,16.3h19c0,1.2.1,2.4.2,4h-14.1v10.1h12.6v4h-12.6v10.1h14.6v4.3h-19.7V16.3Z"/>
          <path class="cls-1" d="M555.4,63.6h-10.4v-4.5h26.6v4.5h-10.4v28h-5.8v-28Z"/>
          <path class="cls-1" d="M741.9,63.6h-10.4v28h-5.4v-27.9h-10.8v-4.6h26.6v4.5Z"/>
          <path class="cls-1" d="M460.4,134.4h-5.4v-28h-10.6c0-1.6-.2-2.9-.2-4.5h26.9c0,1.3.1,2.6.2,4.3h-10.9v28.2Z"/>
          <path class="cls-1" d="M635.3,116.1v3.9h-12.8v10.5h15v3.7h-20v-32h18.6v3.6h-13.6v10.3h12.8Z"/>
          <path class="cls-1" d="M407.4,59.2c0,1.6-.1,2.8-.2,4.3h-10.8v28h-5.3v-27.9h-10.5v-4.4h26.8Z"/>
          <path class="cls-1" d="M427.9,134.2v-32.2h5.1v27.8h14c0,1.5.2,2.8.2,4.4h-19.3Z"/>
          <path class="cls-1" d="M579.7,91.6h-5.4v-32.5h5.4v32.5Z"/>
          <path class="cls-1" d="M445.4,91.7h-5v-32.6h5v32.6Z"/>
          <path class="cls-1" d="M482.6,48.9h-4.9V16.4h4.9v32.5Z"/>
          <path class="cls-1" d="M622.1,91.6h-5v-32.3h5v32.3Z"/>
          <path class="cls-1" d="M350.3,134.3h-4.8v-32.3h4.8v32.3Z"/>
          <path class="cls-1" d="M254.2,91.6h-4.9v-32.3h4.9v32.3Z"/>
          <path class="cls-1" d="M733.3,16.4h4.9v32.3h-4.9V16.4Z"/>
          <path class="cls-1" d="M569.4,25.3c0,.2-.2.4-.3.6,0,0-.2-.2-.2-.3,0-.2.2-.4.3-.6,0,0,.2.2.2.3Z"/>
          <polygon class="cls-1" points="611 25.9 611.2 25.8 611.2 26 611 25.9"/>
          <polygon class="cls-1" points="266 66.4 266.2 66.3 266.2 66.5 266 66.4"/>
        </g>
      </g>
    </g>
  </g>
</svg>