<?xml version="1.0" encoding="UTF-8"?>
<svg xmlns="http://www.w3.org/2000/svg" version="1.1" viewBox="0 0 445.3 119.1">
  <!-- Generator: Adobe Illustrator 28.7.1, SVG Export Plug-In . SVG Version: 1.2.0 Build 142)  -->
  <g>
    <g id="Livello_1">
      <g id="_x35_xdxT4.tif">
        <g>
          <path d="M286.3,119.1c-7.3-.4-12.7-4.2-17.3-9.6-4.1-4.8-3.8-16.4.1-21,1.2-1.4,2.3-2.8,3.5-4.4-.9-1.6-1.9-3.1-2.7-4.7-3.4-6.5-2.1-13.2,3.4-18.4,8.4-8,24.4-8.4,33.3-.4,6.3,5.6,7.5,12.7,3.4,20.1-.6,1.2-1.4,2.3-2.1,3.6.7.9,1.3,1.9,2.1,2.7,6.1,6.2,6.5,18.8-1,25.5-4.2,3.7-8.9,6.3-14.6,6.7-1.2,0-6.9,0-8,0ZM290.5,90.2c-5.9,0-10.5,3.2-11,7.9-.7,6.4,5.4,11.6,12.3,10.6,5.4-.8,9.1-3.9,9.5-8,.7-6.3-3.6-10.5-10.8-10.5ZM290.2,81.8c4.7,0,9.8-4.6,9.8-8.8,0-4.1-4.7-8.3-9.4-8.5-4.7-.1-9.8,4.2-10,8.5-.1,4.3,4.7,8.7,9.7,8.8Z"/>
          <path d="M38,0c2.3,1.6,4.6,3.2,7,4.7,11.6,7.5,13.9,16.2,11.8,29.5-.7,4.5-2,9-2.5,13.5-.2,2.2.7,4.6,1.8,7,2.6-7.5,4.2-15.2,12.2-20.1,0,2.4.3,4.2,0,5.9-1.6,9.4,1,17.6,6.3,25.5,6,8.7,7.5,18.6,4.4,28.8-1,3.3-3.2,6.6-5.7,9-6.9,6.7-15,11.4-24.6,13.3h-.1c5.6-5.5,6.8-12.7,6.1-20-.4-4.4-2.9-8.6-4.6-12.8-2.9-7.2-5.8-14.3-8.8-21.5-.4-1-.8-2-1.5-3.8-1,1.6-1.6,2.4-2,3.4-3.3,7-6.5,14.1-9.8,21.1-3.8,8.2-6.4,16.7-3.6,25.8.8,2.6,2.4,4.9,3.8,7.7-6.3-2.8-12.9-4.9-18.4-9.2C3.6,102.8.5,96.5,0,88.6c-.4-7.7.7-15.1,3.3-22.3,3.3-9.3,6.6-18.7,7.3-28.6.3-4.2-.5-8.4-.9-12.8,10.7,5.3,13.3,14.9,14.2,25.8,7.1-8.7,14.1-17.1,16.9-27.8,1.3-5.1.5-10.5-1.1-15.6-.7-2.3-1.1-4.8-1.7-7.2h-.1Z"/>
          <path d="M445,90.3c-7.8,0-15.3,0-22.7,0-7.4,0-14.8-.4-22.1.3-.4,11.6,19,17.3,31,7.1,2.8,3,5.6,6,8.7,9.4-6,5.2-12.2,8.5-19.6,8.9-7.7.4-15.1,0-22.2-4-11.4-6.4-16.2-21.2-14.3-32.4,2.5-14.5,11.2-22.8,25.2-25.8,13.5-2.9,32.8,3.5,36,22.3.7,4.3.1,8.8.1,14.1ZM400.9,78.7h27.4c-.4-8-5.9-12.6-14-12.3-7.7.3-13.7,5.7-13.4,12.3Z"/>
          <path d="M121.9,116.1c-15.8.1-32.3-10.7-32.4-31,0-19.4,15.5-32.1,33.5-31.8,15.6.3,31.9,11.1,32.1,31.7.2,18.9-14.8,31.1-33.2,31.1ZM138.3,85c0-.9,0-1.9,0-2.9-.3-7.3-5.8-13.8-12.4-14.8-8.9-1.3-15.6,2.1-18.4,9.8-1.9,5.3-2,10.8.1,16,2.5,6,7.2,9.3,13.8,9.8,10.4.7,16.9-8.6,16.8-17.9Z"/>
          <path d="M335.1,115.7h-15.4v-61.1h15.2c.3,1.8.7,3.7,1.2,6.3,1.6-1,2.8-1.5,3.9-2.4,13.3-11.1,34.1-3.9,36.6,13.8.3,2.4.8,4.9.8,7.3,0,10.2,0,20.5,0,30.7v5.2h-15.9c-.1-1.7-.3-3.4-.3-5.1,0-9.4,0-18.8,0-28.2,0-2.3-.3-4.6-.8-6.8-1.3-6.2-3.5-8.4-9.2-9.4-4.7-.8-10.5,1.5-12.6,6-1.7,3.8-2.7,8.1-2.9,12.3-.4,9.2-.1,18.5-.2,27.7,0,1.1-.2,2.2-.4,3.7Z"/>
          <path d="M216.3,64c-2.7,3.5-5.3,6.7-7.5,9.6-4.4-2-8.2-4.4-12.4-5.7-8.4-2.5-18.1,2.5-20.8,10.2-3.3,9.7.3,19.3,9.3,22.7,6.5,2.5,13.1,1.8,18.7-2.9,1.3-1.1,2.4-2.2,4-3.8,3,3.3,6,6.5,8.9,9.6-5.4,9.3-20.4,14.8-32.8,11.9-12.4-2.9-23.3-10.6-25.3-29.3-1.2-11.2,7-24.7,18.3-30,14.4-6.7,31.6-1.8,39.7,7.5Z"/>
          <path d="M257.9,65.5h-14c-.2,1.7-.5,2.9-.5,4.2,0,8.3,0,16.5,0,24.8,0,6.2,3.5,8.9,9.6,7.5,2.4-.6,4.7-1.4,7.3-2.2,1,3.3,1.9,6.5,2.9,9.7-7.7,8.5-22.7,8.7-30.2,1.5-5.1-4.9-6.4-11-6.6-17.5-.3-7.3,0-14.5,0-21.8,0-1.8,0-3.6,0-5.7-2.3-.3-4.2-.6-6.5-1v-10.3c1.9-.2,3.8-.5,6.3-.8v-18h17.2v18.2h14.7v11.4Z"/>
          <path d="M38.2.1c-.1,0-.2,0-.3,0,0,0,.1,0,.2,0h.1Z"/>
          <path d="M48.8,117.2c0,0-.2.2-.3.2,0,0,0-.1.1-.2,0,0,.1,0,.1,0Z"/>
        </g>
      </g>
    </g>
  </g>
</svg>