<?xml version="1.0" encoding="UTF-8"?>
<svg xmlns="http://www.w3.org/2000/svg" version="1.1" viewBox="0 0 1033 227">
  <!-- Generator: Adobe Illustrator 28.7.1, SVG Export Plug-In . SVG Version: 1.2.0 Build 142)  -->
  <g>
    <g id="Livello_1">
      <g>
        <path d="M1031.8,181.8c0-2.8-1.3-5.8-2.9-8.1-2.4-3.5-6.4-3.5-10.4-3.5-89.3,0-178.6,0-267.9,0-160.3,0-320.5,0-480.8,0-9.8,0-13.5,3.7-13.6,13.6,0,9,.4,18-.1,27-.4,6.8,1.1,12.3,6.9,16.3h762c3.8-3,7.1-6.1,7-11.7-.2-11.2.1-22.3-.2-33.5ZM426.4,212.8c-4.5.3-8.9,0-13.8,0v-29.8c3.9,0,7.3,0,10.8,0,3.9,0,7.4.8,9.2,4.6,1.6,3.6.4,6.7-2.1,8.7,1.6,2.6,3.6,4.6,4.2,6.9,1.2,4.8-2.7,9.2-8.3,9.6ZM467,212.8c-1,.1-1.8.3-2.6.3-5.1,0-10.3,0-15.8,0v-29.8c1.2,0,2.4-.2,4.2-.3v26.1h14.3v3.8ZM493.2,213.4c-8.5,0-14.2-6.2-14.2-15.2,0-9.4,5.6-15.5,14.4-15.5,8.6,0,14.5,6.5,14.3,15.7-.2,9.1-6,15-14.5,15ZM547.4,208.6c-6.4,5.4-14.9,6.4-21.1,2.4-5.2-3.4-7.5-10.4-5.7-17.3,1.8-7,6-10.6,13-10.9,7.2-.4,10.7,1.8,13.4,8.6-1.2.3-2.1.6-3,.8-4.7-8-11.5-7.1-15.6-4.3-4.8,3.3-5.9,12.5-2.4,17.7,3,4.6,11.4,6.4,17.5,1.1v-5.3c-2.7-.1-5.4-.3-8.3-.4v-2.9h12.2v10.5ZM595,213.4c-7,.2-11.2-2.6-13.3-8.9-1.5-4.7-1.6-9.5.4-14.1,2.2-5.2,7.2-7.9,13.4-7.6,5.5.2,8.5,2.5,10.6,8.4-1,.3-2.1.6-3.1.9-1-1.4-1.5-3-2.7-3.7-1.7-1.1-3.8-2.1-5.8-2.2-5.6-.3-9.1,3.5-9.6,9.8-.7,8.1,2.1,13.2,7.9,14.1,4.6.7,7.4-1.1,10.7-7.2,1.2.3,2.3.5,3.3.8-2.1,6.9-5.4,9.6-11.6,9.8ZM632.7,213.4c-8.3-.2-13.9-6.6-13.7-15.7.2-9.3,6-15.3,14.9-15,8.3.2,14,6.7,13.8,15.7-.2,9.3-6.2,15.3-14.9,15ZM684.3,212.7h-3.9c-4.8-7.2-9.6-14.4-15.1-22.5v22.2c-1.5.2-2.6.4-3.9.5v-29.7h3.8c4.9,7.3,9.9,14.7,14.9,22.1.3-.1.7-.2,1-.3v-21.8c1.1,0,2,0,3.3-.2v29.6ZM716.6,212.2c-8,3.8-16.4,0-18.3-8.5.9-.2,1.8-.5,3-.8,1.8,5.4,5.6,7.7,11.1,6.9,2.8-.4,5.4-1.4,5.7-4.7.3-3.2-2.3-4.2-4.7-5-2.7-.9-5.5-1.3-8.2-2.3-4.1-1.4-6.2-4.4-5.9-7.7.3-3.5,3.2-6.4,7.2-7.3,7.4-1.6,12.4,1.1,14.5,8.3-1.3.2-2.2.3-3.5.5-1.1-4.3-4-5.9-8.2-5.7-3,.2-5.6,1-6.3,4.3.3,3.1,2.7,3.7,4.9,4.4,2.7.8,5.5,1.3,8.2,2.2,3.4,1.2,5.7,3.5,5.7,7.4,0,3.7-2,6.2-5.3,7.8ZM759.1,202.3c0,4.2-1.2,8-5.4,9.8-4.5,1.9-9.1,1.9-13.4-.5-2.8-1.6-4.1-4.4-4.1-7.6-.1-6.8,0-13.6,0-20.7h3.9c0,6.5-.1,13,0,19.4.1,4.9,2.8,7.2,7.7,7.1,4.9,0,7.3-2.2,7.4-7.4.2-6.3,0-12.6,0-19.3h3.5c.2.5.5.8.5,1.1,0,6,0,12,0,18ZM802.1,212.7c-.9,0-1.8.1-3.1.2v-22c-.4-.1-.8-.2-1.2-.3-2.6,7.3-5.1,14.6-7.8,22.1-1.1.1-2.2.2-3.6.3-2.6-7.6-5.2-15-7.7-22.5-.3,0-.5,0-.8.1v22c-1.4,0-2.4.1-3.7.2v-29.4h5.7c2.7,7.8,5.4,15.8,8.5,24.9,3.1-8.9,5.9-16.9,8.8-25h4.9v29.4ZM839.5,212.7h-21.9v-29.4h21v3.3h-17.1v9.2h16.1v3.3h-16.1v10.2h18v3.4ZM874.7,212.8c-1.7-2.6-3.3-5.2-5.1-7.8-3.6-5.4-4.8-5.8-12.1-4.5v12.3h-3.9v-29.6c5.1,0,10.1-.1,15,0,4.9.2,7.7,2.4,8.4,6.3.8,4.4-.8,7.2-5.5,9.4-.4.2-.9.4-1.2.5,3,4.3,6,8.6,9.3,13.5h-5Z"/>
        <path d="M1030.5,73.9c.9-.9,2.5-3.5,2.5-6.7s-1.6-5.3-2.5-6.2c-3.7-4-10-4.3-13.9-.6-4.1,3.8-4.1,10.4,0,14.2,4,3.7,10.1,3.4,13.8-.8ZM1023.2,59.9c4.1,0,7.1,3,7.2,7.3,0,4.4-2.9,7.4-7,7.4-4.1,0-7.3-3.2-7.3-7.3,0-4.1,3.2-7.4,7.1-7.5Z"/>
        <path d="M215,63.5c-1.1,4.4-1.6,8.3-1.9,12.3-.9,9.6-4.1,18.5-8.5,26.8-6.9,12.9-17,22.7-29.6,30.2,0,.1-.3.3-.2.4,0,.2.1.5.2.7-1.3.4-2.7.8-4,1.2-8,2.8-15.8,6.4-24,8.3-16.6,3.8-32.9,2.3-47.7-6.8-13.8-8.5-22.2-20.5-21.6-37.4.6-17.9,14.9-33.3,32.3-35.1,19.1-2,36.3,9.8,40.7,27.9,3.1,12.5-.7,22.3-11.8,29.1-11.9,7.3-24.8,8-38,4.6,0,.5,0,1,0,1.5,19.6,10.5,39.2,9.8,59.1.8,42.1-19.2,54.1-78.6,11.3-109.3-13.6-9.7-28.8-15.1-45.1-17.7-2-.3-4-.6-6-.9h-15c-2,.3-4,.6-6,.9-22.5,3-42.6,11.5-59.8,26.4C18.3,45.2,5.7,67.9.9,95c-.3,2.3-.6,4.7-.9,7v26c.3,1,.6,2,.9,3,3.7,20.5,11.5,39.2,25,55.3,17.4,20.8,39.9,32.7,66.3,37.7,4.6.9,9.2,1.4,13.8,2.1,3,.3,6,.6,9,.9h13c2-.3,4-.6,6-.9,11.1-1.4,21.8-4,32-8.7,24.6-11.2,42.2-29.4,53.7-53.7,6-12.4,9.1-25.7,10-39.2,1.1-15.9-1.3-31.4-7.7-46.2-2.2-5-4.7-9.9-7.1-14.8Z"/>
        <path d="M642,145.6c1,6.9,5.7,10.4,11.9,11.9,9.1,2.1,18.2,2,27.1-1.2,2.7-1,5.5-2.6,7.6-4.5,5.1-4.5,5.6-10.4,4-16.6-1.5-5.6-6-7.7-11.2-8.5-6.4-.9-12.9-1.6-19.3-2.5-1.7-.2-3.3-.9-5.7-1.6.7-2.4,1.3-4.3,1.8-6,9.5.6,18.6,1.6,24.6-6.5,5.7-7.8,4.3-16.7,1.4-25.1,2.7-2.3,7.4-.8,8.9-5.8-1.7-.4-3.1-1-4.6-1.1-6.6-.4-13.3-.7-19.9-1-2.8,0-5.7-.2-8.5.3-6.5,1-11.5,4.2-13.9,10.7-3.5,9.7-1.1,19.5,6.5,26.3-4.4,6.3-4.5,8.2-.6,14.3-.6.3-1.1.7-1.7,1-6.9,3.9-9.4,8.7-8.3,16ZM651.9,96.9c0-9.6,4-13.5,13.7-13.5,9.8,0,13.7,3.9,13.7,13.5,0,9.8-3.7,13.4-13.7,13.4s-13.7-3.7-13.7-13.3ZM663.5,130.9c5,.4,9.9,1.1,14.9,1.8,3.7.5,6.9,1.6,7.6,5.9.8,4.5-.7,8.5-4.9,10.5-2.9,1.4-6.3,2.1-9.5,2.9-1.9.4-4,.3-6,.4v.3c-3.5-.5-7.1-.6-10.3-1.6-7-2.1-8.9-10.4-3.6-15.5,3.2-3.1,7.2-4.9,11.8-4.5Z"/>
        <path d="M522.5,128.6c3.4,1.2,5.9,2.2,8.4,2.9,12.7,3.2,23.1-1.8,26.5-13.1,2.9-9.6,2.8-19.4-.4-29-2.7-7.7-8.4-11.6-16.5-12.4-6.9-.7-13.2,1.2-19,4.8q-2.5-3.2-6.1-3.6v79h7.1v-28.6ZM522.9,86.9c6-3.5,12.6-4.1,19.2-2.7,4,.8,6.7,3.7,7.9,7.6,2.5,8.3,2.5,16.8,0,25.1-1.5,5.2-5.2,8-10.7,8.3-5.7.3-11.3,0-16.5-3.2v-35.1Z"/>
        <path d="M466.9,128.6c3.3,1.1,6.1,2.3,8.9,2.9,13.5,3.2,23.8-2.7,26.7-15.5,1.8-7.9,1.8-15.9-.2-23.7-2.6-10.1-9-15-19.4-15.4-6.4-.2-12,2-17.4,5-1.5-1.8-1.9-5.4-5.7-3.1v78.8c2.6-.2,4.6-.3,7.1-.5v-28.5ZM467.1,87c6.4-3.6,13.3-4.4,20.4-2.4,4,1.1,6.3,4.4,7.2,8.2,1.9,7.7,2,15.5,0,23.2-1.5,5.9-5.3,8.9-11.4,9.3-5.5.3-10.9-.1-16.3-3.3v-35Z"/>
        <path d="M769.8,132.1c6.7.4,12.7-1.7,18.4-5,1.4,2,1.8,5,5.5,3.3V52h-6.9v28.6c-3.1-1.1-5.7-2.3-8.4-3-13.2-3.4-23.9,2.2-27,14.4-2.2,8.7-2.2,17.5.4,26.2,2.7,8.8,8.8,13.3,18,13.9ZM758.9,93.1c1.6-6.2,5.4-9.2,11.9-9.4,5.5-.2,11,0,15.9,3.4v34.9c-6.5,3.8-13.6,4.5-20.8,2.3-4.2-1.2-6.3-4.8-7.1-9-1.5-7.4-1.7-14.9.2-22.2Z"/>
        <path d="M353.5,131.1c2.2-.1,3.8-.2,6.1-.3,1.1-14.8,0-29.4.6-43.8,4.5-2.8,9.3-3.4,14.1-3.4,8,0,10.5,2.6,10.6,10.5,0,10.3,0,20.7,0,31,0,1.8.3,3.5.5,5.5h6.4c.2-1.7.5-3,.5-4.2,0-11.3.1-22.7,0-34-.1-9.6-5.1-15-14.7-15.3-4.7-.1-9.4,1.3-14.1,2.1-1.1.2-2.1.7-3.7,1.3v-28.5h-6.9c-.2,1.9-.5,3.4-.5,4.8,0,23,0,46,0,69,0,1.7.7,3.4,1.1,5.3Z"/>
        <path d="M724.2,98c-4.1.3-8.3.4-12.4,1.2-9.4,1.7-14.2,7.9-13.6,17.3.5,9.1,6.3,14.8,15.7,15.6,6.7.6,12.9-1,18.6-4.7,1,1.3,1.9,2.5,2.8,3.7,3.9-.1,3.5-2.6,3.5-4.7,0-10.7,0-21.3,0-32,0-2-.3-4-.7-5.9-1-5-4-8.6-8.8-10-8.7-2.6-17.4-2.3-25.9,1.1-.4.2-.8.6-1.4,1.1.1,1.4.2,2.8.4,4.8,2.2-.2,3.9-.5,5.6-.6,4-.4,7.9-1.2,11.9-1.1,9.3.1,12.4,4.2,10.7,13.8-2,.1-4.2.3-6.3.4ZM731.1,105.7c0,5.1,0,10.2,0,15.3-5,3.7-10.4,4.7-16.2,4.3-5.4-.4-8.2-2.9-8.9-7.6-.9-6.2,1.3-10.8,6.5-12.5,2.3-.8,4.9-.9,7.3-1.2,3.6-.4,7.2-.7,11-1,.1,1.1.3,1.9.3,2.7Z"/>
        <path d="M268.6,131.7c5.9.4,11.9-.7,17.8-1.3,1.5-.2,3-1.2,4.7-2-.1-1.9-.3-3.4-.4-5.6-2.2.5-3.7,1-5.3,1.2-4.9.5-9.9,1.2-14.9,1.1-5.4,0-9-3.2-10.6-8.3-.8-2.6-1.1-5.5-1.7-8.9h34.5c1.2-6.7.7-12.4-.7-18-2.1-8.2-7.2-12.3-15.7-12.9-2-.1-4-.1-6,0-9.3.5-15.8,5.6-18,14.6-2.2,8.7-2.2,17.5,0,26.2,2.2,8.2,7.7,13.4,16.3,14ZM273.5,83.5c9.2.3,12.9,5.7,12.2,18.1h-27c0-12.4,4.9-18.4,14.9-18.1Z"/>
        <path d="M419.1,131.5c4.7.7,9.6.5,14.3-.3,6.4-1,10.8-5.2,12.6-11.4,1.4-4.9,1.8-10.1,2.6-14.2-.6-5.1-.8-9.3-1.7-13.3-2-9.4-8.1-14.6-17.8-15.2-2.2-.1-4.3-.2-6.5,0-10.1.6-16.4,5.9-18.4,15.8-1.6,7.7-1.6,15.6,0,23.3,1.6,8.2,6.2,14.2,14.8,15.4ZM411.9,92.6c1.1-5.1,4.6-8,9.8-8.6,2.5-.3,5-.3,7.5,0,5.4.5,9.1,3.4,10.1,8.8.8,3.9,1,7.9,1.4,11.4-.4,4.2-.4,7.9-1.1,11.4-1.2,6.2-4.7,9.1-11,9.7-2.3.2-4.7.2-7-.1-5.2-.6-8.6-3.6-9.7-8.7-1.6-7.9-1.7-15.9,0-23.8Z"/>
        <path d="M942.8,131.4c4.8.7,10,.5,14.8-.2,6.2-1,10.5-5.1,12.3-11.2,1.4-4.9,1.9-10.1,2.7-14.3-.6-5.2-.8-9.6-1.7-13.8-2-9.2-8.1-14.2-17.6-14.9-2.2-.1-4.3-.2-6.5,0-10.1.5-16.4,5.9-18.4,15.8-1.5,7.8-1.6,15.6,0,23.3,1.6,8,6,14,14.5,15.2ZM936,92.8c.6-5.4,4.5-8.3,9.9-8.9,2-.2,4-.3,6-.1,7.1.5,10.9,3.9,12,11,.5,3.3.5,6.6.8,11.2-.4,2.9-.6,7.1-1.5,11.1-1.1,4.9-4.7,7.5-9.6,8.1-1.8.2-3.6.3-5.5.2-7.7-.3-11.7-3.3-12.5-10.8-.7-7.2-.4-14.6.4-21.8Z"/>
        <path d="M602.3,87.3c5-3.4,10-3.8,15-3.7,7.4.2,9.9,2.6,9.9,10,0,10.5,0,21,0,31.5,0,1.9.5,3.7.8,5.7h6.2c.2-2,.6-3.4.6-4.8,0-11.2.1-22.3,0-33.5,0-9.5-5.1-14.7-14.6-15.6-7-.7-13.4,1.1-19.3,4.8-1.5-2.2-2.2-5.4-5.7-2.9v51.7h7v-43.3Z"/>
        <path d="M328,124.2c-3,.9-6.2,1.3-9.3,1.1-4.6-.3-9.2-1.3-13.9-2-2.4,1.7-2.1,3.8-.3,6.3,8.7,2.7,17.6,4,26.7.8,7.3-2.5,10.7-8.4,10.2-16.4-.5-6.9-3.7-10.4-11.6-12.3-3.1-.7-6.2-1-9.4-1.5-1.6-.3-3.3-.6-4.9-1-3.3-.9-4.9-3.1-4.9-6.6,0-4.9,2.2-8,7.3-8.4,4.9-.4,9.9.2,14.9.5,1.9.1,3.8.5,6.3.9v-6c-8.1-2.9-15.8-3.7-23.6-1.8-8,2-12.5,7.9-12.2,15.5.3,7.1,4.2,11,13,12.7,3.6.7,7.3.9,10.8,1.7,4.8,1.1,6.6,3.2,6.9,7.3.3,4.6-1.6,7.8-6.1,9.2Z"/>
        <path d="M901.7,124.8c-4.7.5-9.6,0-14.4-.4-2.3-.2-4.5-.9-7.4-1.5-.3,2.3-.5,4-.7,6.3,10.2,3.1,19.4,4.5,28.7.8,6.8-2.7,9.9-8.3,9.3-16-.5-6.9-3.5-10.3-11-12.3-1.8-.5-3.6-.7-5.4-1-3.1-.5-6.3-.8-9.3-1.7-3.9-1.1-5-3-4.9-7,0-4.6,2.3-7.6,7.2-8,4.9-.4,9.9.2,14.9.5,1.9.1,3.8.6,6.4,1v-6.3c-2.8-.7-5.2-1.6-7.6-1.9-6.6-.9-13.3-1.4-19.6,1.6-5.7,2.7-8.9,8.3-8.5,14.6.4,6.2,3.5,9.8,10.5,11.7,2.9.8,5.9,1,8.8,1.5,2,.3,4,.6,5.9,1.2,4,1.3,5.6,3.7,5.5,7.8,0,4.8-2.9,8.4-8.3,9Z"/>
        <path d="M828.2,131.8c6.8-17.5,13.6-34.7,20.7-53-3.2-.4-5.2-.6-7.8-1-5.2,14.4-10.3,28.3-15.7,43.1-6.1-14.9-10.1-29.3-16.2-43-2.4.2-4.1.3-5.7.4-.6,3.9,15.4,46.9,19.7,53.5h4.9Z"/>
        <path d="M990.9,130.7v-43.4c6.9-4.7,14.4-3.4,22.1-3.8-.1-2.3-.2-4-.3-5.8-8.7-2.1-16.2,0-23.2,4.2q-2-3.5-5.1-3.4c-1.8,4.8-1.4,48.6.6,52.5,1.5,0,3.2-.2,5.8-.3Z"/>
        <path d="M865.6,84.1c0-1.9-.5-3.8-.8-6.1-2.3.1-4,.2-5.7.3-.4,1.5-.9,2.4-.9,3.3,0,14-.2,28,0,41.9,0,6.2,4.3,8.9,11.8,7.5.1-1.4.2-2.7.3-3.9-1.7-.9-3.1-1.7-4.7-2.5,0-1.7,0-3.4,0-5,0-11.8,0-23.6,0-35.5Z"/>
        <path d="M579.2,78c-2.6.1-4.3.2-6,.3-.4,1.3-.9,2.1-1,2.8,0,14.2,0,28.3,0,42.5,0,1.7.8,3.6,1.8,5.1,2.1,3,7.7,4.1,10.1,1.9v-3.7c-1.6-.7-2.8-1.2-4.3-1.9-.7-15.7.5-31.1-.7-46.9Z"/>
        <path d="M575.9,67.2c3,0,5.4-2.3,5.4-5.3,0-3-2.5-5.3-5.5-5.2-2.8,0-5,2.3-5.1,5.1-.1,3,2.2,5.4,5.2,5.4Z"/>
        <path d="M861.8,67.3c3,0,5.3-2.4,5.3-5.4,0-3-2.5-5.4-5.5-5.2-2.7.1-5.1,2.4-5.1,5.2,0,2.9,2.4,5.5,5.3,5.5Z"/>
        <path d="M873.2,191.3c0-2.9-1.8-4.7-5.6-5-3.1-.2-6.2,0-9.8,0v9.9c3.5,0,6.6.1,9.7,0,3.8-.2,5.6-1.9,5.7-4.9Z"/>
        <path d="M426,199.4c-3.1-.3-6.2,0-9.5,0v10c3.3,0,6.4.1,9.5,0,2.9-.1,4.6-1.8,4.9-4.7.3-2.6-1.6-4.9-4.9-5.3Z"/>
        <path d="M424.3,195.6c1.7-.3,4-1.4,4.6-2.8.2-.4.2-.8.2-1.2,0-2.5-2.2-4.5-4.8-4.5h-7.9v8.7c2.9,0,5.5.4,7.8-.1Z"/>
        <path d="M632.7,186c-6.3.3-10.1,5.5-9.7,13.2.3,6.6,4.6,11,10.6,10.8,3.6,0,6.6-1.6,8.2-4.8,1.1-2.2,1.5-4.7,2.1-7.1-.4-7.8-4.7-12.6-11.3-12.2Z"/>
        <path d="M492.5,186c-6,.4-9.6,5.1-9.5,12.4,0,7.2,4.4,11.9,10.8,11.6,6.3-.3,10.1-5.5,9.7-13.2-.5-7.1-4.7-11.3-11-10.9Z"/>
        <path d="M1021.1,67.9c2.2-.4,2.5-.2,3.5,1.3.5.8,1,1.5,1.5,2.3h1.5c-1-1.4-1.9-2.7-2.7-4,0,0,.2,0,.3-.1,1.4-.6,1.8-1.5,1.6-2.8-.2-1.1-1-1.8-2.5-1.8-1.4,0-2.9,0-4.4,0v8.7h1.1v-3.6ZM1021.1,63.8c1,0,2,0,2.9,0,1.1,0,1.7.6,1.6,1.5,0,.9-.6,1.4-1.7,1.4-.9,0-1.8,0-2.9,0v-2.9Z"/>
      </g>
    </g>
  </g>
</svg>