<?xml version="1.0" encoding="UTF-8"?>
<svg xmlns="http://www.w3.org/2000/svg" version="1.1" viewBox="0 0 370.9 182.8">
  <defs>
    <style>
      .cls-1 {
        fill: #1d1d1b;
      }
    </style>
  </defs>
  <!-- Generator: Adobe Illustrator 28.7.1, SVG Export Plug-In . SVG Version: 1.2.0 Build 142)  -->
  <g>
    <g id="Livello_1">
      <path class="cls-1" d="M80.7,0v20.8c5.1,13.8,12.7,26.6,22.3,37.7V0h-22.3Z"/>
      <path class="cls-1" d="M177.9,85.9c.8-2.8,1.2-5.8,1.2-8.7,0-2.6-.3-5.1-.9-7.6-.7-2.7-1.6-5.3-2.9-7.8-1.4-2.7-3.2-5.1-5.3-7.3-2.4-2.5-5.1-4.5-8.2-6.1-1.5-.8-3.1-1.5-4.7-2.1-1.6-.6-3.3-1-5-1.4-2.2-.4-4.7-.7-7.4-1.1-2-.2-4-.6-6-1.1-2.4-.5-4.6-1.9-6-4-1.2-1.8-1.8-3.9-1.8-6.1,0-1.8.4-3.7,1.3-5.3,1.1-2,2.8-3.5,4.9-4.3.5-.2,1-.3,1.6-.5s1-.2,1-.2h27.9V0h-29c-1.6,0-3.1.3-4.6.7-1.8.5-3.1.9-4.2,1.2-.4.2-.9.4-1.4.5-.5.2-.9.4-1.4.6-.7.4-1.4.7-2.1,1.1s-1.2.7-1.8,1.1c-.3.2-.6.4-.9.6-.4.3-.8.6-1.2,1-.4.3-.8.6-1.1.9l-.6.6c-3,3-5.6,6.4-7.7,10.1-2.1,3.8-3.1,8.5-3.1,14.1,0,2.4.3,4.7.8,7,.5,2.5,1.3,4.9,2.5,7.2,1.2,2.5,2.7,4.8,4.5,6.9,2,2.4,4.3,4.5,6.9,6.2.8.6,1.7,1.1,2.6,1.5,1.1.5,2.1,1,3.3,1.5,1,.5,2.1.9,3.2,1.2.8.3,1.6.6,2.5.7.6.2,1.3.3,1.9.3.5,0,1.1,0,1.6.2.6,0,1.5.2,2.6.4s2.2.4,3.4.6,2.2.4,3.2.6,1.7.4,2.2.5c2.3.5,4.4,1.9,5.6,4,1,1.7,1.5,3.7,1.5,5.7,0,1.8-.6,3.6-1.4,5.2-1.1,2-2.8,3.6-5,4.4l-1.5.6c-.4.1-.7.2-1.1.3h-6.1c10,4.5,20.6,7.4,31.5,8.7.4-.5.7-1,1-1.6,1.6-2.7,2.9-5.6,3.7-8.7"/>
      <path class="cls-1" d="M184.5,0v96.7h.3c7.4,0,14.8-.8,22-2.3V0h-22.3Z"/>
      <path class="cls-1" d="M286.5,14.3c-3.2-3-6.8-5.5-10.7-7.6-3.5-1.8-7.3-3.3-11.1-4.4-.6-.2-1.5-.4-2.6-.7s-2.3-.5-3.5-.8-2.5-.4-3.7-.6S252.6,0,251.7,0h-39.3v93.1c7.7-2.1,15.2-5.1,22.3-8.9V22.3h17.2c.2,0,.8.1,1.9.2.9,0,1.9.3,2.8.5,2.5.6,5,1.5,7.4,2.6,2.7,1.3,5.1,3,7.3,5,2.2,1.9,4,4.2,5.6,6.6.8,1.3,1.5,2.6,2.2,4,4.5-7.4,8.2-15.3,11-23.5-1.1-1.1-2.3-2.3-3.6-3.4"/>
      <polygon class="cls-1" points="51.2 182.8 40.5 182.8 40.5 149.1 25.6 170.8 10.8 149.1 10.8 182.8 0 182.8 0 130.2 10.7 130.2 25.6 151.9 40.6 130.2 51.2 130.2 51.2 182.8"/>
      <path class="cls-1" d="M94.3,182.8h-10.7l-3.7-15.6h-11.6l-3.7,15.6h-10.7l12.3-52.6h15.7l12.4,52.6ZM77.4,156.5l-3.3-14.2-3.4,14.2h6.7Z"/>
      <path class="cls-1" d="M133.9,182.8h-11.7l-9.6-21.3h-4.9v21.3h-10.8v-52.6h21.9c.3,0,.6,0,.9.1.5.1,1,.2,1.4.3,1.2.2,2.4.6,3.5,1.2,1.3.6,2.4,1.4,3.5,2.4,1,.9,1.9,2,2.6,3.2.6,1,1.1,2,1.5,3.1l.3.9c.1.4.2.7.3,1,0,.5.2.9.3,1.4,0,.3.1.5.1.7v1.4c0,1.3-.2,2.6-.5,3.9-.3,1.4-.8,2.7-1.5,3.9-.7,1.3-1.7,2.5-2.8,3.6-1.3,1.2-2.7,2.2-4.3,2.9,0,0-.1,0-.2.1-.1,0-.1.1-.2.2l10.2,22.3ZM122.6,145.8c0-.9-.3-1.7-.7-2.5-.5-1-1.4-1.7-2.4-2.1-.2-.1-.5-.2-.8-.2-.2,0-.4-.1-.6-.1h-10.5v9.8h10.5c.2,0,.4,0,.6-.1.3,0,.5-.2.8-.3,1-.4,1.8-1.1,2.4-2,.4-.8.6-1.6.7-2.5"/>
      <polygon class="cls-1" points="178.3 182.8 165.6 182.8 152.9 163.4 147.2 172.3 147.2 182.8 136.5 182.8 136.5 130.2 147.2 130.2 147.2 152.5 161.8 130.2 174.5 130.2 159.3 153.6 178.3 182.8"/>
      <polygon class="cls-1" points="218.2 182.8 180.9 182.8 180.9 130.2 218.2 130.2 218.2 140.9 191.6 140.9 191.6 151.1 211.6 151.1 211.6 161.8 191.6 161.8 191.6 172.1 218.2 172.1 218.2 182.8"/>
      <polygon class="cls-1" points="268.6 140.9 250.1 140.9 250.1 182.8 239.4 182.8 239.4 140.9 220.8 140.9 220.8 130.2 268.6 130.2 268.6 140.9"/>
      <rect class="cls-1" x="271.2" y="130.2" width="10.7" height="52.6"/>
      <polygon class="cls-1" points="329.2 182.8 318.6 182.8 295.3 149.1 295.3 182.8 284.6 182.8 284.6 130.2 295.2 130.2 318.5 163.9 318.5 130.2 329.2 130.2 329.2 182.8"/>
      <path class="cls-1" d="M370.7,182.8h-13.7c-.5,0-.9,0-1.4-.1l-1.8-.3c-.6-.1-1.2-.2-1.7-.3-.4,0-.8-.2-1.2-.3-3.1-1-6-2.4-8.6-4.4-2.3-1.7-4.3-3.8-5.9-6.2-1.5-2.3-2.6-4.7-3.4-7.3-.7-2.4-1.1-4.9-1.1-7.4,0-2.8.4-5.5,1.3-8.1.9-2.7,2.2-5.2,3.9-7.5,1.7-2.3,3.8-4.4,6.2-6.1,2.5-1.8,5.3-3,8.3-3.7.1,0,.4-.1,1-.2.6-.2,1.2-.3,1.8-.4.6-.1,1.1-.1,1.4-.2.5,0,1,0,1.5-.1h13.6v10.7h-13.9c-.6,0-1.3,0-1.9.3-.6,0-.9.2-.9.3-.9.2-1.8.5-2.6.9-1,.5-1.9,1-2.7,1.7-.9.7-1.7,1.5-2.5,2.3-.8.8-1.4,1.7-1.8,2.7-.1.2-.2.3-.3.5s-.2.3-.3.5c-.1.2-.2.4-.2.6-.1.2-.1.4-.2.6s-.2.6-.3,1-.2.7-.3,1c-.1.5-.2,1.1-.3,1.8,0,.6-.1,1.2-.1,1.7,0,1.4.2,2.8.6,4.2.4,1.4,1,2.8,1.8,4.1.9,1.4,2,2.6,3.2,3.6,1.4,1.2,3.1,2.1,4.8,2.7.3.1.5.2.8.3l.9.3c.4.1.9.2,1.4.3.3,0,.7,0,1,.1h3.1v-10.2h-6.3v-10.7h16.8v31.3Z"/>
      <rect class="cls-1" y="21.1" width="20.4" height="100.3"/>
      <path class="cls-1" d="M45.8,21.1h-20.3v100.3h20.4V57.1l44.4,64.3h20.3v-44.3c-7.9-7.1-14.8-15.3-20.4-24.3v32.6L45.8,21.1Z"/>
      <path class="cls-1" d="M126,101v20.4h26.8c.6,0,1.2-.2,1.8-.3,1.1-.2,2-.3,2.7-.5.5-.2,1-.3,1.6-.5.5-.1,1-.3,1.5-.5,3.3-1.2,6.4-3,9.1-5.2,2.4-2,4.5-4.4,6.1-7,.4-.7.8-1.4,1.1-2.1-8.3-.6-16.5-2.1-24.4-4.6-.3.1-.7.2-1,.2h-25.3Z"/>
      <path class="cls-1" d="M205.5,121.4v-17.5c-6.6,1.2-13.3,1.8-20,1.8h-.5v15.7h20.5Z"/>
      <path class="cls-1" d="M246.5,121.4c1.6,0,3.2-.1,4.8-.4,1.9-.3,3.8-.7,5.5-1.1,10.5-2.6,19.9-8.6,26.7-17.1,3.5-4.3,6.2-9.2,8.2-14.4,2.6-7.1,3.5-14.6,2.7-22.1-.1-1.7-.4-3.4-.8-5-.4-1.9-.9-3.8-1.6-5.7-.6-1.8-1.2-3.6-2-5.3-1.1-2.4-2.4-4.8-3.9-7-3.6,7.2-7.9,14-12.9,20.3.1.4.2.8.3,1.1.2,1.3.3,2.2.4,2.7,0,.4.1.7.2,1.1,0,.3.1.6.1.9v2c0,2.7-.3,5.3-1,7.9-.7,2.8-1.9,5.5-3.4,7.9-1.7,2.6-3.7,5-6.1,7-2.7,2.3-5.8,4-9.1,5.2-.5.2-1.1.4-1.6.5-.7.2-1.4.4-2.2.6-.7.2-1.5.4-2.3.4-.6,0-1.3.1-1.9,0h-15.7v-4.8c-6.6,2.9-13.4,5.2-20.4,6.8v18.5h36Z"/>
      <polygon class="cls-1" points="299.7 121.4 370.8 121.4 370.8 101 320.2 101 320.2 81.5 358.3 81.5 358.3 61 320.2 61 320.2 41.5 370.8 41.5 370.8 21.1 299.7 21.1 299.7 121.4"/>
      <path class="cls-1" d="M364.2,3.2c1.2,0,2.3.3,3.3.9,1.1.6,1.9,1.4,2.5,2.5.6,1,.9,2.1.9,3.3,0,1.2-.3,2.3-.9,3.3-.6,1.1-1.4,1.9-2.5,2.5-2,1.2-4.6,1.2-6.6,0-1.1-.6-1.9-1.4-2.5-2.5-.6-1-.9-2.1-.9-3.3,0-1.2.3-2.3.9-3.3.6-1,1.5-1.9,2.5-2.5,1-.6,2.1-.9,3.3-.9ZM364.2,4.3c-.9,0-1.9.2-2.7.7-.9.5-1.6,1.2-2.1,2-.5.9-.7,1.8-.7,2.8,0,.9.2,1.9.7,2.7.5.9,1.2,1.6,2.1,2,.9.4,1.8.7,2.8.7,1,0,1.9-.2,2.8-.7.9-.5,1.5-1.1,2-2,.4-.8.7-1.8.7-2.7,0-1-.2-1.9-.7-2.8-.5-.9-1.2-1.6-2.1-2-.9-.4-1.8-.7-2.8-.7ZM361.3,13.5v-7.1h2.5c.6,0,1.2,0,1.8.2.4.1.7.4.9.7.2.3.3.6.3,1,0,.5-.2,1-.6,1.4-.4.4-.9.6-1.5.7.2,0,.5.2.6.4.3.3.6.8,1.1,1.4l.9,1.4h-1.4l-.6-1.1c-.3-.6-.7-1.2-1.2-1.7-.2-.2-.5-.2-.9-.2h-.7v3h-1.2,0ZM362.4,9.5h1.4c.5,0,1,0,1.4-.3.3-.2.4-.5.4-.8,0-.2,0-.4-.2-.6-.1-.2-.3-.3-.5-.4-.4-.1-.8-.1-1.2-.1h-1.3v2.2h0Z"/>
    </g>
  </g>
</svg>