<?xml version="1.0" encoding="UTF-8"?>
<svg xmlns="http://www.w3.org/2000/svg" version="1.1" viewBox="0 0 1278.8 242.4">
  <!-- Generator: Adobe Illustrator 28.7.1, SVG Export Plug-In . SVG Version: 1.2.0 Build 142)  -->
  <g>
    <g id="Livello_1">
      <g id="lObUFj.tif">
        <g>
          <path d="M175.6,182.8c0,16.3,6.1,59.2-19.4,59.7-28,.5-19-45.5-19-62.6,0-29.9,0-59.9.1-89.8,0-11.2-1.6-24.3,10.1-30.4,10.2-5.2,20,.3,25.6,9.1,2.6-.1,7.5-6,10.2-7.7,4.4-2.6,9.3-4.3,14.3-5.1,10.4-1.8,21.5,0,31,4.5,20.9,9.8,32.6,33.2,34.8,55.3,4.9,49.5-39.5,95.4-87.6,67ZM201,91.7c-35.3-.1-35.2,64.3-.6,64.2,34.1-.2,34.7-64.7.6-64.2Z"/>
          <path d="M745.2,179.4c-17.8,19.7-51.4,15.3-68.8-2.7-28.7-29.7-27-83.4,4-109.5,15-12.6,37.6-15.8,53.8-7.2,4.3,2.3,8,5.7,12.3,8.8,3.6-6.3,8.5-10.9,16.7-11,10.7,0,18.9,7.4,19.1,18.1.3,11.3.1,22.7.1,34,0,20.2.2,40.3,0,60.5-.2,14-12.1,22.9-24.8,18.2-4.5-1.7-8-5.9-12.4-9.2ZM718.1,91.7c-32.9-.8-33.2,62.1-.3,64,35.9,2.2,36.7-64.1.3-64Z"/>
          <path d="M314.6,136.1c.5,22.7,29.9,23.5,45.6,17.8,7.9-2.8,18.2-10.2,27.1-8.1,8.3,2,13.3,11.6,11.5,19.7-4.4,19.8-37,26.1-53.6,26.8-20,.8-39.7-5.3-53.5-20.4-27-29.5-21.7-78.4,8.7-103.2,29.4-23.9,76.6-15,93.3,19.8,5.8,12,15,40.7-2.7,46.6-10.4,3.5-24.6.9-35.5.9-13.6,0-27.3,0-40.9,0ZM314.6,109.8h48.4c-2.2-29.2-45.3-28.5-48.4,0Z"/>
          <path d="M0,123.1C1.8,88.9,23.2,58.3,59.1,55.2c32.1-2.8,58.5,18.7,66,49.3,9.6,38.7-12.1,84.9-55.4,87.7-17.5,1.1-35.8-3.9-48.5-16.4C6.4,161.2,3.5,142.7,0,123.1ZM89.7,123.5c1.1-39.5-49.2-41.3-51.3-2.2-.8,15,6.5,32.4,23.1,34.3,18.4,2.1,28.4-15.8,28.2-32.1Z"/>
          <path d="M448.5,69.3c11.9-16,36.3-17.3,53.7-10.6,21.7,8.4,24.7,30,25,50.5.2,12.5.2,25,.2,37.5,0,10.1,2.7,24.9-2.7,34-4,6.7-12.3,10.6-20,8.8-11.1-2.5-14.4-14.2-15.4-24.2-2-20.5,7.2-48.8-2.7-67.9-9-17.2-31.9-11.1-36.3,5.8-6.1,23.5,3.6,48.8-3.4,72-5.4,17.9-29.6,19.7-35.1.6-3.8-13.2-.9-30.7-.8-44.5,0-14.6,0-29.1,0-43.7,0-10.3-.7-22.5,9.8-28.1,10.8-5.8,21.5.4,27.6,9.6Z"/>
          <path d="M600.7,192.5c-84.4.7-81.9-139.6,3.2-137.3,15.5.4,44,5.9,41.4,27.1-2.9,24.4-25.8,10.5-40.2,9.5-34.4-2.4-41.8,56-9.7,63.2,15.6,3.5,40.1-17,48.6,4.5,9.7,24.6-27.6,31.1-43.4,32.9Z"/>
          <path d="M908.9,58.7c.7-15-2.5-45.2,20.4-43.9,20.5,1.2,17.6,29.4,17.6,43.8,13.9,1.1,31.3.7,29.9,19.4-1.2,16.3-17.2,15.2-29.8,16.2,0,21.5,0,43.1,0,64.6,0,13.4-1.4,32-19.7,30.9-19.7-1.1-18.1-22.5-18.1-36.7,0-19.6,0-39.2,0-58.7-13.3-2-27.3-4.8-23.5-22.7,2.3-10.9,13.6-12.2,23.2-12.8Z"/>
          <path d="M833.2,68.8c11.8-9.2,28.6-22,41.2-6,10.1,12.7.8,25-11.7,29.9-15.4,6-26.6,7.9-28.9,26.5-2.2,18.1,4.8,41.5-1.8,58.7-4.7,12.3-21.1,15.9-30.5,6.6-11.5-11.4-5.5-40.8-5.5-55.6,0-9.7,0-19.4,0-29.2,0-8.7-1.6-19.5.5-27.9,5-19.2,27.2-16.6,36.7-3.1Z"/>
          <path d="M1197.6,133.1c9.2-11.4,18.7-22.1,28.7-32.8,6-6.4,23.5-21.2,18-31.8-5.4-10.2-28-10.5-37.5-11.2-16.1-1.1-32.1-1.2-48.2-1.3-30.4-.2-61.3-1.3-90.7-9.5-22.6-6.3-50.5-22.5-58.3-46.4,11.9,8.2,22,17.1,35.7,22.6,15.5,6.2,32,8.8,48.5,10.6,37.2,4,74.8,3.3,112.1,4,13.8.3,88.9-3.4,69.9,25.8-9.2,14.1-23.9,25.2-36.4,36.2-13.1,11.5-26.2,25.2-40.8,34.8-.3-.3-.6-.6-.9-.9Z"/>
          <path d="M1058,172.2c0-25.3,39.5-25,39.1.2-.4,25-39.1,25-39.1-.2Z"/>
          <path d="M1167.1,152.7c26.4,0,24.2,41.1-1.7,39-24.1-2-22.8-39,1.7-39Z"/>
        </g>
      </g>
    </g>
  </g>
</svg>