<?xml version="1.0" encoding="UTF-8"?>
<svg xmlns="http://www.w3.org/2000/svg" version="1.1" viewBox="0 0 284 66">
  <defs>
    <style>
      .cls-1 {
        fill: #1d1d1b;
        fill-rule: evenodd;
      }
    </style>
  </defs>
  <!-- Generator: Adobe Illustrator 28.7.1, SVG Export Plug-In . SVG Version: 1.2.0 Build 142)  -->
  <g>
    <g id="Livello_1">
      <g>
        <g>
          <path class="cls-1" d="M91.8,15.1h-6.7v-2.5c0-1.8.3-2.9,1-3.5.7-.6,1.7-.9,3.1-.9,0,0,.3,0,1.4.2,1.4.4,2.7.3,3.6-.7.6-.6.9-1.3.9-2.1s-.2-1.1-.5-1.6c-.3-.5-.8-.8-1.3-1.1-1.7-.8-3.5-1.3-5.5-1.3s-3.2.4-4.6,1.1c-1.5.8-2.7,2-3.6,3.6-.9,1.6-1.4,3.7-1.4,6.2v2.7h-2.7c-.8,0-1.6.3-2.1.9-.6.6-.9,1.3-.9,2.2s.3,1.6.9,2.2c.6.6,1.3.9,2.2.9h2.7v22.5c0,1,.3,1.8,1,2.4.7.7,1.5,1,2.4,1s1.8-.3,2.4-1c.7-.7,1-1.5,1-2.4v-22.5h6.7c.9,0,1.6-.3,2.2-.9.6-.6.9-1.3.9-2.1s-.3-1.6-.9-2.2c-.6-.6-1.3-.9-2.2-.9Z"/>
          <path class="cls-1" d="M117.9,27.7h-15.8c.2-1.4.6-2.7,1.3-3.7.8-1.2,1.8-2.1,3-2.6,2.4-1.1,4.9-1.1,7.3,0,1.2.6,2.2,1.4,3,2.6.7,1,1.1,2.2,1.3,3.7ZM117.9,16.6c-2.2-1.4-4.9-2.2-8-2.2s-6.1.8-8.3,2.3c-2.2,1.5-3.9,3.6-5,6.1-1.1,2.5-1.6,5.2-1.6,8.1,0,5.2,1.4,9.2,4.3,12.1,2.8,2.9,6.8,4.3,11.8,4.3s4.5-.2,6-.7c1.6-.5,3.1-1.1,4.7-2,1.3-.7,1.9-1.7,1.9-2.8s-.3-1.6-1-2.2c-.6-.6-1.3-.8-2.2-.8s-1,.1-1.4.3c-1.1.6-2.3,1-3.5,1.3-1.2.3-2.6.5-4.2.5-2.9,0-5.2-.7-6.8-2.1-1.4-1.3-2.3-3-2.7-5.2h19.2c1,0,1.9-.3,2.5-1,.6-.7.9-1.5.9-2.4,0-2.8-.6-5.4-1.7-7.8-1.2-2.4-2.9-4.3-5.1-5.8h0Z"/>
          <path class="cls-1" d="M151.5,27.7h-15.8c.2-1.4.6-2.7,1.3-3.7.8-1.2,1.8-2.1,3-2.6,2.4-1.1,4.9-1.1,7.3,0,1.2.6,2.2,1.4,3,2.6.7,1,1.1,2.2,1.3,3.7ZM151.5,16.6c-2.2-1.4-4.9-2.2-8-2.2s-6.1.8-8.3,2.3c-2.2,1.5-3.9,3.6-5,6.1-1.1,2.5-1.6,5.2-1.6,8.1,0,5.2,1.4,9.2,4.3,12.1,2.8,2.9,6.8,4.3,11.8,4.3s4.5-.2,6-.7c1.6-.5,3.1-1.1,4.7-2,1.3-.7,1.9-1.7,1.9-2.8s-.3-1.6-1-2.2c-.6-.6-1.3-.8-2.2-.8s-1,.1-1.4.3c-1.1.6-2.3,1-3.5,1.3-1.2.3-2.6.5-4.2.5-2.9,0-5.2-.7-6.8-2.1-1.4-1.3-2.3-3-2.7-5.2h19.2c1,0,1.9-.3,2.5-1,.6-.7.9-1.5.9-2.4,0-2.8-.6-5.4-1.7-7.8-1.2-2.4-2.9-4.3-5.1-5.8h0Z"/>
          <path class="cls-1" d="M178,40.8c-2.7,0-4.9-.8-6.5-2.6-1.6-1.7-2.5-4.2-2.5-7.4s.8-5.7,2.5-7.4c1.6-1.7,3.8-2.6,6.5-2.6s3.3.4,4.8,1.1c1.4.7,2.7,1.7,3.8,2.9v11.9c-1.1,1.2-2.4,2.1-3.8,2.9-1.5.8-3.1,1.1-4.8,1.1ZM190.1,1.7c-.9,0-1.8.3-2.4,1-.7.7-1,1.5-1,2.5v12.8c-2.7-2.3-5.9-3.5-9.4-3.5s-5,.7-7.3,2c-2.3,1.3-4.2,3.2-5.6,5.7-1.4,2.5-2.1,5.4-2.1,8.8s.7,6.3,2.1,8.8c1.4,2.5,3.3,4.4,5.6,5.7,2.3,1.3,4.8,2,7.3,2s6.7-1.2,9.4-3.5c0,.9.4,1.6,1,2.2.7.7,1.5,1,2.4,1s1.8-.3,2.4-1c.7-.7,1-1.5,1-2.4V5.2c0-.9-.3-1.8-1-2.4-.7-.7-1.5-1-2.4-1h0Z"/>
          <path class="cls-1" d="M211.9,41.1c-2.1,0-3.5-.4-4.3-1.1-.8-.7-1.2-1.7-1.2-2.9,0-2.6,2.8-3.9,8.2-3.9h5.7v3.9c-1,1.1-2.2,2-3.7,2.8-1.5.8-3.1,1.2-4.7,1.2h0ZM221.3,16.2c-2-1.2-4.4-1.8-7.3-1.8s-7.1.7-10.5,2.2c-1.3.6-2,1.6-2,2.9s.3,1.6.9,2.1c.6.6,1.3.9,2.1.9s.6,0,1-.2c1.4-.5,2.7-.8,3.8-1,1.1-.2,2.4-.3,3.9-.3,2.5,0,4.4.5,5.5,1.5,1.1,1,1.6,2.6,1.7,4.8h-6.4c-4.6,0-8.2.9-10.6,2.8-2.5,1.9-3.8,4.4-3.8,7.6s.5,3.6,1.4,5.1c.9,1.5,2.2,2.6,3.8,3.4,1.6.8,3.3,1.1,5.2,1.1,4.1,0,7.6-1.2,10.4-3.5,0,.9.4,1.6,1,2.3.7.7,1.5,1,2.4,1s1.8-.3,2.4-1c.7-.7,1-1.5,1-2.4v-16.8c0-2.2-.5-4.2-1.4-6.1-.9-1.9-2.4-3.4-4.4-4.6h0Z"/>
          <path class="cls-1" d="M249.3,40.6c-.3,0-.6,0-.8,0h-.6c-.7.3-1.4.5-2.2.5s-1.8-.2-2.4-.5c-.6-.3-.7-1.4-.7-2.3v-17.2h5.9c.9,0,1.6-.3,2.2-.9.6-.6.9-1.3.9-2.1s-.3-1.6-.9-2.2c-.6-.6-1.3-.9-2.2-.9h-5.9v-4c0-.5-.2-1-.5-1.3-.7-.8-1.9-.8-2.9.1l-8,7.8c-.5.4-.8,1-.8,1.6s.2,1,.5,1.3c.4.4.8.5,1.3.5h3.5v17.6c0,5.6,3.3,8.6,9.4,8.6s3.6-.4,5.3-1.2c1.5-.8,1.8-1.9,1.8-2.7s-.3-1.5-.9-2.1c-.6-.6-1.3-.8-2-.8h0Z"/>
          <path class="cls-1" d="M282.5,15.8c-.7-.7-1.5-1-2.4-1s-2.4.4-3.2,2.2l-8.6,20.8-8.4-21c-.3-.6-.7-1.1-1.2-1.5-.6-.4-1.2-.6-1.9-.6s-1.8.3-2.4,1c-.7.7-1,1.5-1,2.4s0,.9.3,1.4l11,26.9-5.5,14c-.1.4-.2.8-.2,1.2,0,.9.3,1.7,1,2.4.6.7,1.4,1,2.3,1s2.3-.4,3.2-2.3l18-43.3c.2-.4.2-.8.2-1.3,0-.9-.3-1.8-1-2.4h0Z"/>
        </g>
        <path class="cls-1" d="M66.6,2.8l-.4-.4c-3.2-3.2-8.4-3.2-11.6,0l-26.3,26.3,6.1,6.1c2,1.7,4.6,2.7,7.2,2.8h1.7s23.3-23.2,23.3-23.2c3.2-3.2,3.2-8.4,0-11.6Z"/>
        <path class="cls-1" d="M31,38.2L14.7,21.8c-3.2-3.2-8.5-3.5-11.9-.5-3.6,3.3-3.7,8.9-.3,12.3l16.5,16.5c1.7,1.7,3.8,2.5,6,2.5s4.4-.8,6-2.5l9.2-9.2h-2c-2.7-.1-5.2-1.1-7.2-2.8Z"/>
      </g>
    </g>
  </g>
</svg>