<?xml version="1.0" encoding="UTF-8"?>
<svg xmlns="http://www.w3.org/2000/svg" version="1.1" viewBox="0 0 269.7 117.4">
  <defs>
    <style>
      .cls-1 {
        fill: #1d1d1b;
      }

      .cls-2 {
        fill: #fff;
      }
    </style>
  </defs>
  <!-- Generator: Adobe Illustrator 28.7.1, SVG Export Plug-In . SVG Version: 1.2.0 Build 142)  -->
  <g>
    <g id="Livello_1">
      <path class="cls-1" d="M83.2,41.6c0,23-18.6,41.6-41.6,41.6S0,64.6,0,41.6C0,18.6,18.6,0,41.6,0h0c23,0,41.5,18.6,41.6,41.6h0"/>
      <path class="cls-1" d="M176.4,41.6c0,23-18.6,41.6-41.6,41.6s-41.6-18.6-41.6-41.6S111.8,0,134.8,0h0c23,0,41.5,18.6,41.6,41.6"/>
      <path class="cls-1" d="M13.9,96.3v3.4h-4.5v17.3h-4.2v-17.3H.7v-3.4h13.2Z"/>
      <path class="cls-1" d="M15.6,96.3h4v6.7h0c.8-1.3,2.3-2.1,3.8-2,2.5,0,4,1.4,4,4.4v11.6h-4v-10.7c0-1.6-.5-2.2-1.7-2.2s-2.1.8-2.1,2.6v10.3h-4v-20.7Z"/>
      <path class="cls-1" d="M33.6,109.8v1.2c0,1.8.5,3.6,2,3.6s1.9-1,2.1-2.9h3.6c-.2,3.6-1.9,5.7-5.7,5.7-5.8,0-6-4.5-6-8.4s.8-8.1,6.2-8.1,5.7,3.1,5.7,7.9v.9h-8ZM37.7,107.5c0-2.4-.4-3.7-2-3.7s-2.1,1.7-2.1,3.1v.6h4.1Z"/>
      <path class="cls-1" d="M50.7,96.3h7.3c4.2,0,5.7,3.1,5.7,6.2s-2.7,6.2-6.6,6.2h-2.2v8.2h-4.2v-20.7ZM54.9,105.7h1.9c1.7,0,2.8-1,2.8-3.1s-.8-3.2-2.9-3.2h-1.7v6.3Z"/>
      <path class="cls-1" d="M70.6,101c4.8,0,6.2,2.8,6.2,8.2s-1.6,8.2-6.2,8.2c-4.8,0-6.2-2.8-6.2-8.2s1.6-8.2,6.2-8.2ZM70.6,114.7c1.6,0,2.2-1.6,2.2-5.5s-.5-5.5-2.2-5.5-2.2,2.3-2.2,5.5.2,5.5,2.2,5.5Z"/>
      <path class="cls-1" d="M81.8,111.9v.5c-.1,1.1.6,2.1,1.7,2.2.1,0,.2,0,.4,0,1.2,0,2-.6,2-1.9,0-.9-.6-1.6-1.5-1.8l-2.8-1c-2.2-.8-3.3-2.2-3.3-4.3s1.6-4.7,5.8-4.7,5.3,1.6,5.3,4.4v.6h-3.6c0-1.6-.5-2.3-1.8-2.3-.9-.1-1.8.6-1.9,1.5,0,0,0,.1,0,.2,0,.8.4,1.4,1.7,1.8l2.4.8c2.5.8,3.5,2.1,3.5,4.5s-2.4,4.9-5.8,4.9-5.8-2-5.8-5v-.6h3.6Z"/>
      <path class="cls-1" d="M92.7,96.9h4v4.5h2.3v2.7h-2.3v8.4c0,1.2.3,1.7,1.4,1.7.3,0,.6,0,.9,0v2.7c-.9,0-1.7.2-2.6.2-3.1,0-3.7-1-3.7-4.1v-9h-2v-2.7h2v-4.4Z"/>
      <path class="cls-1" d="M107.7,117v-20.7h4.2v20.7h-4.2Z"/>
      <path class="cls-1" d="M114.8,101.4h3.8v1.8h0c.8-1.5,2.3-2.3,4-2.2,2.5,0,4,1.4,4,4.4v11.5h-4v-10.7c0-1.6-.5-2.2-1.7-2.2s-2.1.8-2.1,2.6v10.3h-4v-15.6Z"/>
      <path class="cls-1" d="M130.2,96.9h4v4.5h2.3v2.7h-2.3v8.4c0,1.2.3,1.7,1.4,1.7.3,0,.6,0,.9,0v2.7c-.9,0-1.7.2-2.6.2-3.1,0-3.7-1-3.7-4.1v-9h-2v-2.7h2v-4.4Z"/>
      <path class="cls-1" d="M141.4,109.8v1.2c0,1.8.5,3.6,2,3.6s1.9-1,2.1-2.9h3.6c-.1,3.6-1.9,5.7-5.7,5.7-5.8,0-6-4.5-6-8.4s.8-8.1,6.2-8.1,5.7,3.1,5.7,7.9v.9h-8ZM145.5,107.5c0-2.4-.4-3.7-2-3.7s-2.1,1.7-2.1,3.1v.6h4.1Z"/>
      <path class="cls-1" d="M151.4,101.4h3.8v2.1h0c.6-1.5,2-2.5,3.6-2.5.2,0,.5,0,.7,0v3.8c-.4,0-.9,0-1.2,0-1.5-.2-2.8.9-3,2.4,0,.1,0,.3,0,.4v9.3h-4v-15.6Z"/>
      <path class="cls-1" d="M161.1,101.4h3.8v1.8h0c.8-1.5,2.3-2.3,4-2.2,2.5,0,4,1.4,4,4.4v11.5h-4v-10.7c0-1.6-.5-2.2-1.7-2.2s-2.1.8-2.1,2.6v10.3h-4v-15.6Z"/>
      <path class="cls-1" d="M175.6,106.2v-.4c0-3.6,2.5-4.8,5.5-4.8,4.8,0,5.7,2,5.7,4.8v8.2c0,1,0,2.1.5,3h-3.8c-.2-.5-.4-1.1-.5-1.6h0c-.9,1.6-2.1,2-4,2-2.8,0-3.8-2.4-3.8-4.5s1.2-4.1,4-4.9l2.3-.6c1.2-.3,1.6-.8,1.6-1.8s-.5-1.9-1.9-1.9c-1,0-1.8.7-1.9,1.7,0,0,0,.2,0,.3v.4h-3.6ZM182.9,109.2c-.5.4-1.1.6-1.7.8-1.6.3-2.3,1.1-2.3,2.5s.4,2.2,1.5,2.2c1.3,0,2.4-1,2.5-2.3,0,0,0,0,0-.1v-3.1Z"/>
      <path class="cls-1" d="M188.9,114l6.2-9.3h-5.9v-3.2h10.7v3.1l-6.2,9.3h6.2v3.2h-11v-3Z"/>
      <path class="cls-1" d="M202.1,96.1h4v3.4h-4v-3.4ZM202.1,101.4h4v15.6h-4v-15.6Z"/>
      <path class="cls-1" d="M214.5,101c4.8,0,6.1,2.8,6.1,8.2s-1.6,8.2-6.1,8.2c-4.8,0-6.2-2.8-6.2-8.2s1.6-8.2,6.2-8.2ZM214.5,114.7c1.6,0,2.1-1.6,2.1-5.5s-.5-5.5-2.1-5.5-2.1,2.3-2.1,5.5.2,5.5,2.1,5.5Z"/>
      <path class="cls-1" d="M222.8,101.4h3.8v1.8h0c.8-1.5,2.3-2.3,4-2.2,2.5,0,4,1.4,4,4.4v11.5h-4v-10.7c0-1.6-.5-2.2-1.7-2.2s-2.1.8-2.1,2.6v10.3h-4v-15.6Z"/>
      <path class="cls-1" d="M237.3,106.2v-.4c0-3.6,2.5-4.8,5.5-4.8,4.8,0,5.7,2,5.7,4.8v8.2c0,1,0,2.1.5,3h-3.8c-.2-.5-.4-1.1-.5-1.6h0c-.9,1.6-2.1,2-4,2-2.8,0-3.8-2.4-3.8-4.5s1.2-4.1,3.9-4.9l2.3-.6c1.2-.3,1.6-.8,1.6-1.8s-.5-1.9-1.9-1.9c-1,0-1.8.7-1.9,1.7,0,0,0,.2,0,.3v.4h-3.6ZM244.7,109.2c-.5.4-1.1.6-1.7.8-1.6.3-2.3,1.1-2.3,2.5s.4,2.2,1.5,2.2c1.3,0,2.4-.9,2.5-2.2,0,0,0-.1,0-.2v-3.1Z"/>
      <path class="cls-1" d="M251.5,96.3h4v20.7h-4v-20.7Z"/>
      <path class="cls-1" d="M261.7,109.8v1.2c0,1.8.5,3.6,2,3.6s1.9-1,2.1-2.9h3.6c-.1,3.6-1.9,5.7-5.7,5.7-5.8,0-6-4.5-6-8.4s.8-8.1,6.2-8.1,5.7,3.1,5.7,7.9v.9h-8ZM265.8,107.5c0-2.4-.4-3.7-2-3.7s-2.1,1.7-2.1,3.1v.6h4.1Z"/>
      <path class="cls-1" d="M269.6,41.6c0,23-18.6,41.6-41.6,41.6s-41.6-18.6-41.6-41.6S205,0,228,0h0c23,0,41.6,18.6,41.6,41.5h0"/>
      <path class="cls-2" d="M31.4,61.4v-4.3l5.6-.4c.8,0,.9-.3.9-1.1v-27.4h-5.6c-.6,0-.8,0-.9.6l-.9,4.4-5.9.3v-11.2h34.8v11.2l-5.9-.3-.9-4.4c0-.5-.3-.6-.9-.6h-5.5v27.5c0,.8,0,1,.9,1l5.9.4v4.3h-21.6Z"/>
      <path class="cls-2" d="M120.1,61.4v-4.3l3.4-.4c.8,0,.9-.3.9-1.1v-27.5c0-.8,0-1-.9-1.1l-3.4-.4v-4.3h18.3c10,0,13,5.3,13,11.5,0,9.4-5.7,13.2-14.8,13.2h-4v8.6c0,.9.1,1,.9,1.1l7.7.4v4.3h-21.1ZM135.4,41.2c3.6,0,7.5-.8,7.5-6.9s-3.2-6.1-7-6.1h-3.2v13h2.7Z"/>
      <path class="cls-2" d="M219.1,61.4v-4.2l3.9-.4c.8,0,.9-.3.9-1.1v-27.6c0-.8-.1-1-.9-1.1l-3.9-.4v-4.3h18.1v4.3l-4.2.4c-.8.1-.9.2-.9,1v27.6c0,.9,0,1,.9,1.1l4.2.4v4.2h-18.1Z"/>
    </g>
  </g>
</svg>