<?xml version="1.0" encoding="UTF-8"?>
<svg xmlns="http://www.w3.org/2000/svg" version="1.1" viewBox="0 0 1600 380.2">
  <!-- Generator: Adobe Illustrator 28.7.1, SVG Export Plug-In . SVG Version: 1.2.0 Build 142)  -->
  <g>
    <g id="Livello_1">
      <g>
        <path d="M1600,195c-.5,3.1-1,6.1-1.6,9.8h-147.9c1.2,18.7,14.8,34.3,34.5,40.2,19.5,5.8,39.3,4.7,58.9,1.4,11.3-1.9,22.3-5.1,33.9-7.8,2,12,4.1,24.6,6.2,37.2.5,3,.6,6,1.5,8.8,1.6,5-.4,7-5,8.6-28.8,9.7-58.5,12.7-88.6,11.6-19.1-.7-37.1-5.8-53.9-14.9-24.3-13.2-40.8-33-48.4-59.6-10.7-37.6-9.9-74.8,8.2-110.3,20.7-40.6,64.1-63,109.5-57.8,23.5,2.7,44.6,10.3,61.8,27.2,17.3,17,25.2,38.3,28.9,61.7.7,4.6,1.4,9.2,2,13.7v30ZM1536.5,159.9c-1.2-28.5-18.5-45-45.5-43.9-22.3.9-41,21.3-40,43.9h85.5Z"/>
        <path d="M0,289c3-13.8,6-27.6,9-41.3.7-3.1,1.3-6.1,1.9-8.6,13.6,3.5,26.8,7.4,40.2,10.3,15.1,3.2,30.4,3.8,45.7,1.6,5.8-.8,11.6-2.1,14.5-8.2,3.7-7.8,1.7-15.7-6.7-20.5-8.8-5-18.1-9-27.4-13.1-11.2-5-22.9-9.1-33.9-14.6C6.7,175.8-5.8,128.8,16.6,95.4c9.8-14.6,24.1-23.1,40.6-28.2,31.6-9.9,80.8-4.7,110.5,6.9-3.7,16.5-7.4,33.2-11.2,50.2-8.8-2.3-17.1-4.8-25.7-6.7-14.8-3.2-29.7-4.2-44.6-1.5-11,2-15.8,8.1-15.3,17.6.3,5.6,3.3,9.6,7.9,11.9,8.7,4.4,17.7,8.4,26.6,12.4,12.4,5.6,25.3,10.3,37.3,16.8,27.7,15,37.9,34.3,34.7,69-2.7,29.5-21,47.8-52.8,56.3-21.2,5.6-42.8,5.7-64.5,4.5C39.3,303.4,19.3,298.6,0,291c0-.7,0-1.3,0-2Z"/>
        <path d="M685,0v67.9h78.5v54.4h-78.2c-.1,2.3-.2,4.1-.3,5.8,0,26-.2,52,0,78,0,6.3.9,12.7,2.4,18.7,4.1,16.5,13.3,23.6,30.3,24.1,13.9.4,27.6-1.5,40.8-5.7,1.6-.5,3.1-.9,5.1-1.4,3.1,16.9,6.1,33.6,9.2,50.6-13.7,5.4-27.5,9.6-42,10.9-16.7,1.5-33.3,1.7-49.7-1.9-32.6-7.2-52.3-27.2-58.1-60-2.1-11.6-3.2-23.5-3.3-35.2-.3-63.3-.1-126.6-.2-189.9,0-4,.5-6,5.4-6.7,18-2.5,35.8-5.6,53.7-8.6,1.1-.2,2.2-.6,3.3-1,1,0,2,0,3,0Z"/>
        <path d="M1196.1,84.1c16.5-11.5,34.9-18.3,54.7-20.5,20.1-2.2,40-.7,58.7,7.9,25,11.4,37.3,32.3,41.4,58.5,1.9,12.3,2.9,24.8,3,37.3.4,41.7.1,83.3.1,125v6.4h-65.3c0-2.2,0-4.3,0-6.4,0-40.8,0-81.7-.3-122.5,0-8.7-1.3-17.6-3.3-26.2-4.3-18.3-16.6-27-35.3-24.5-8.3,1.1-16.2,4.5-24.3,7-2.6.8-2.7,2.5-2.4,5,1.5,12.7,3.7,25.4,3.8,38.1.5,42,.2,84,.2,126,0,1.1,0,2.3-.2,3.6h-65.2v-5.9c0-39,.3-78-.2-117-.1-11.1-1.3-22.3-3.7-33.1-3.8-17.1-13.6-24.3-31-24.1-7.8,0-15.6,1.1-23.4,1.7-1,0-1.9.5-3.3.9v177.6h-65.4v-5.3c0-70.7,0-141.3,0-212,0-4.2,1.1-5.9,5.4-7,31.4-7.5,63.1-12.2,95.4-11.6,21.9.4,41.6,6.5,58.9,20.1.5.4,1.1.7,1.7,1.2Z"/>
        <path d="M1002.2,205.1h-148.3c1,12.6,6.6,22.2,15.9,29.8,12.3,10.1,27,13.5,42.4,14,23,.7,45.5-2.3,67.2-10.5.4-.2.9-.1,2-.3,2.9,17.4,5.8,34.8,8.8,53.4-9.4,2.7-18.6,5.9-28.1,7.9-24.7,5.3-49.7,7.5-75,4.8-21.6-2.3-41.6-9.4-58.9-22.5-19.8-15-32.1-35.4-37.3-59.7-8-37.3-6.6-73.8,13.7-107.3,23.9-39.7,60.4-55.4,105.7-52.2,15.6,1.1,30.5,5.3,44.1,13.2,18,10.5,31,25.5,38.9,44.8,11.1,27.1,11.6,55.4,9,84.7ZM939.9,159.9c.4-24.8-16.4-43-39.4-44-25.4-1.1-43.3,14.9-46.2,44h85.6Z"/>
        <path d="M181,68c22.6,0,44.6,0,66.6.2,1.2,0,3.1,2.1,3.5,3.5,9.7,31.5,19,63,28.9,94.4,5.7,17.9,12.4,35.4,19.2,54.6,1.7-4.6,3-7.7,3.9-10.9,13.3-45.1,26.7-90.3,39.8-135.5,1.4-4.7,2.8-6.6,8.2-6.5,20.1.4,40.3.2,61.2.2-1.7,5.8-3.1,11.1-4.8,16.5-22.2,72.6-47.4,144.1-79.5,213-7.5,16.1-16,31.9-25.6,46.7-14.5,22.4-36,33.9-62.7,35.7-19.2,1.3-37.9-.6-56.1-6.9-1.5-.5-3-1.2-5-2.1,3.8-17.3,7.5-34.5,11.2-51.2,8.5,1.6,16.6,3.6,24.8,4.7,25,3.3,38.3-4.2,49.6-26.6,2.8-5.5,3-9.8,0-15.6-33.5-66.7-60.9-135.9-81.7-207.7-.6-1.9-1.1-3.8-1.7-6.3Z"/>
        <path d="M425.4,238.8c12,3.3,23.4,6.9,35,9.5,16.7,3.8,33.6,4.9,50.6,2.7,11-1.4,15.7-5.8,16.4-14.8.5-6.9-3.2-11.6-8.8-14.5-9.6-4.9-19.5-9.2-29.3-13.7-12.2-5.6-25-10.2-36.6-16.8-21.1-12-31.1-31-31.9-55.2-.7-19.9,4-37.7,19.3-51.4,12.5-11.2,27.4-17.7,43.8-20.4,32.7-5.4,64.7-1.4,96.1,8.7.6.2,1.2.5,2.4,1-3.8,16.8-7.5,33.6-11.2,49.8-13-2.8-25.4-6.5-38-7.9-10.8-1.2-22-.9-32.8.6-11.9,1.6-17.5,10.2-14.2,20,1.2,3.7,4.6,7.7,8,9.5,10.1,5.3,20.8,9.5,31.3,14.2,11.2,5.1,22.5,9.9,33.4,15.6,25.3,13.3,34.5,35.3,33.6,63-1,31.8-21.5,52.8-53.1,61.7-21.4,6-43.2,5.1-65,4.2-18.6-.8-36.5-5.4-54.1-11.1-4.5-1.5-5.8-3.1-4.7-8.1,3.6-15.4,6.5-30.9,9.7-46.5Z"/>
      </g>
    </g>
  </g>
</svg>