<?xml version="1.0" encoding="UTF-8"?>
<svg xmlns="http://www.w3.org/2000/svg" version="1.1" viewBox="0 0 185 52">
  <defs>
    <style>
      .cls-1 {
        fill: #1d1d1b;
      }
    </style>
  </defs>
  <!-- Generator: Adobe Illustrator 28.7.1, SVG Export Plug-In . SVG Version: 1.2.0 Build 142)  -->
  <g>
    <g id="Layer_1">
      <g id="g3568">
        <path id="path3072" class="cls-1" d="M91.7,50.6c0-.6-.1-1.2-.1-1.8-.8,1.4-1.9,2-3.5,2s-4.1-1-4.1-3.5,3.7-3.8,5.7-3.8,1.3,0,1.8.1c0-1.5-1.2-1.9-2.5-1.9s-2.4.2-3.6.8v-2.6c1.4-.5,2.8-.8,4.4-.8,2.8,0,5.2,1.2,5.2,4.6v4.1c0,.8,0,1.8.2,2.6h-3.6,0ZM89,48.4c1.5,0,2.3-1.3,2.3-2.6h-1.6c-1.3,0-2.3.4-2.3,1.5s.7,1.2,1.6,1.2Z"/>
        <path id="path3076" class="cls-1" d="M108.3,50.6h-3.6v-2c-.5,1.3-2,2.2-3.8,2.2-3.2,0-5-2.7-5-6s1.7-5.6,4.7-5.6,2.8.4,3.8,1.7v-6.3h3.9v15.9h0ZM102.2,48c1.3,0,2.3-1.2,2.3-2.8s-.9-2.8-2.3-2.8-2.3,1.3-2.3,2.7.8,2.9,2.3,2.9h0Z"/>
        <path id="path3080" class="cls-1" d="M110.2,39.7h3.5v2c.7-1.6,2.3-2.3,4-2.3,2.9,0,4.2,2.1,4.2,4.4v6.8h-3.8v-5.3c0-2.1-.7-2.8-1.8-2.8-1.6,0-2.4,1-2.4,3.5v4.7h-3.8v-10.9Z"/>
        <path id="path3084" class="cls-1" d="M123.9,34.8h2v9.4l4.3-4.4h2.7l-5,4.7,5.7,6h-2.8l-4.8-5.6v5.6h-1.9v-15.7Z"/>
        <path id="path3088" class="cls-1" d="M134.4,39.8h1.9v1.7c.5-1.2,1.7-1.9,2.8-1.9s.9,0,1.3.1v1.8c-.3-.1-.7-.2-1-.2-1.8,0-2.9,1.7-2.9,4.4v4.9h-2v-10.8Z"/>
        <path id="path3092" class="cls-1" d="M146.1,39.6c3.2,0,5.4,2.4,5.4,5.7s-2.2,5.7-5.4,5.7-5.6-2.5-5.6-5.7,2.3-5.7,5.6-5.7ZM146.1,49.3c2.3,0,3.4-2.1,3.4-4s-1.3-4-3.4-4-3.4,2-3.4,4,1,4,3.4,4Z"/>
        <path id="path3096" class="cls-1" d="M152.9,39.8h1.9v1.7c.6-1.3,2-2,3.6-2,2.8,0,4,1.8,4,4.6v6.4h-2v-5.6c0-2.5-.5-3.8-2.3-3.9-2.3,0-3.2,1.9-3.2,4.4v4.9h-2v-10.6h.1Z"/>
        <path id="path3100" class="cls-1" d="M169.4,39.6c3.2,0,5.4,2.4,5.4,5.7s-2.2,5.7-5.4,5.7-5.6-2.5-5.6-5.7c.1-3.2,2.2-5.7,5.6-5.7ZM169.4,49.3c2.3,0,3.4-2.1,3.4-4s-1.3-4-3.4-4-3.4,2-3.4,4,1,4,3.4,4Z"/>
        <path id="path3104" class="cls-1" d="M175.9,48.5c.8.5,1.9.7,2.5.7.9,0,2-.4,2-1.6,0-2-4.7-1.8-4.7-4.8s1.7-3.4,3.8-3.4,1.7.2,2.5.4v1.8c-.5-.2-1.8-.5-2.2-.5-.9,0-1.9.4-1.9,1.3,0,2.2,4.7,1.6,4.7,5s-1.9,3.4-3.8,3.4-2-.1-2.9-.6v-1.7h0Z"/>
        <path id="path3108" class="cls-1" d="M46.8,4.1c0-1.7,1.4-3,3-3h20c1.7,0,3,1.4,3,3s-.2,1.3-.6,1.8l-10.4,14.1c-.4.5-.6,1.2-.6,1.8s.2,1.3.6,1.8l16.3,22.2c.3.5.6,1,.6,1.8,0,1.7-1.4,3-3,3h-26c-1.7,0-3-1.4-3-3V4.1h0Z"/>
        <path id="path3112" class="cls-1" d="M37.5,1c-.9,0-1.9.4-2.4,1.2L2.9,45.8c-.3.5-.5,1-.5,1.7,0,1.7,1.4,3,3,3h32.1c1.7,0,3-1.4,3-3V4c0-1.6-1.4-2.9-3-2.9h0Z"/>
      </g>
    </g>
  </g>
</svg>