<?xml version="1.0" encoding="UTF-8"?>
<svg xmlns="http://www.w3.org/2000/svg" version="1.1" viewBox="0 0 516 53">
  <defs>
    <style>
      .cls-1 {
        fill: #1d1d1b;
      }
    </style>
  </defs>
  <!-- Generator: Adobe Illustrator 28.7.1, SVG Export Plug-In . SVG Version: 1.2.0 Build 142)  -->
  <g>
    <g id="Livello_1" focusable="false">
      <path class="cls-1" d="M387.3,1.2h-3.5v3.5c0,.9.4,2,2.2,2h3.5v-3.5c0-.8-.3-2-2.2-2ZM387,12.5h-2.8v28.9c0,1.2.8,2,1.9,2.1h0c0,0,3.2,0,3.2,0V14.6c-.1-1.3-.8-2.1-2.3-2.1h0ZM217.6,35.1c-1.2-1.2-2.7-.9-3.6,0-3.7,3.1-7.1,4.3-11.5,4.3-8.8,0-15.8-7.4-15.8-16.9s6.8-16.8,15.8-16.8,7.9,1.3,11.3,4.2c.8.7,2.2,1,3.2-.1.9-.9,1.8-1.9,1.8-1.9l.2-.2-.2-.2c-3.6-3.5-8.1-6.7-16.3-6.7-11.9,0-21.1,9.6-21.1,21.8s9,21.6,21,21.6,11.6-2.2,16.6-7.4v-.2c.1,0,0-.2,0-.2,0,.2-.3-.2-1.4-1.2ZM293.6,11.8c-4.4,0-7.9,1.9-10.6,5.7-1.2-2.4-4-5.9-9.8-5.9s-7.7,2.6-9.7,5.2v-2.2c0-1.5-.9-2.4-2.3-2.4h-2.8v31.1h2.8c1.4,0,2.2-.4,2.2-2.1v-15.5c0-5.4,3.5-9.4,8.2-9.4s7.6,3.3,7.6,8.9v16c0,1.5.8,2.2,2.2,2.2h2.8v-17.8c0-6.4,4.1-9.2,8.2-9.2s7.7,3.3,7.7,8.9v15.6c0,1.3.3,2.5,2.3,2.5h2.7v-19.1c.1-7.7-4.3-12.5-11.5-12.5h0ZM329.7,11.9c-4.6,0-8.4,2-11.5,6.3v-3.2c0-1.6-.9-2.4-2.5-2.4h-2.5v38.2c0,1.5.7,2.2,2.2,2.2h2.8v-14.8c3.1,4,6.8,6,11.5,6,7.2,0,14.8-5.7,14.8-16.2s-7.6-16.1-14.8-16.1ZM339.3,28c0,6.8-4.3,11.5-10.5,11.5s-10.8-4.4-10.8-11.6,5.5-11.6,10.8-11.6c5.2.1,10.5,4.1,10.5,11.7ZM422.2,14.7v2.6c-2.1-2.7-5.8-5.7-11.7-5.7s-7.4,1.4-10.1,3.9c-2.9,2.7-4.5,6.6-4.5,10.8,0,9.5,7.5,14.6,14.6,14.6s8.5-1.9,11.8-5.9v3c0,6.8-4,10.7-10.8,10.7s-6.5-.8-9.5-2.5c-.8-.5-1.4-.7-1.9-.7s-1.2.3-1.6,1c-.8,1.3-1.1,1.9-1.1,1.9v.2c-.1,0,.1,0,.1,0,4.1,2.9,8.8,4.3,14,4.3,10,0,15.8-5.5,15.8-15.1V12.4h-2.8c-.9,0-2.3.8-2.3,2.3ZM422.5,26.6c0,6.4-5.6,10.2-11,10.2s-10.3-4.4-10.3-10.2,4.4-10.1,10.3-10.1c5.3-.1,11,3.4,11,10.1ZM450.9,11.9c-4.4,0-7.8,1.8-10.2,5.4v-2.6c0-1.5-1.2-2.1-2.4-2.1h-2.8v31.1h5.1v-17.8c-.1-5.5,3.6-9.3,8.9-9.3s8.2,3.3,8.2,9v16c0,1.5.7,2.1,2,2.1h3v-19.4c.1-7.6-4.5-12.4-11.8-12.4h0ZM363.3,12c-3.9,0-7.4.8-11.2,2.5h-.2c0,.1.1.3.1.3,0,0,.5,1.4.9,2.4s1.6,1.1,2.5.7c2.6-1,4.9-1.5,7.5-1.5,5.7,0,8.8,2.9,8.8,8.1v7.5c0,4.7-4.2,8-10,8s-7.5-1.8-7.5-5.8,3.1-5.9,8.7-5.9h2.5c1.5,0,2.2-.7,2.2-2.1v-1.7h-5.2c-8.5,0-13.3,3.6-13.3,9.8s3.6,9.9,11.7,9.9,8.1-1.7,10.8-4.9v2.1c0,1.4.7,2,2.2,2h2.8v-19c-.1-7.9-4.8-12.4-13.3-12.4ZM237.4,12c-4.8,0-8.2,1.2-11.2,2.5l-.2.2v.2c.1,0,.6,1.4,1,2.4s1.6,1.1,2.5.7c2.6-1,4.9-1.5,7.5-1.5,5.7,0,8.9,2.9,8.9,8.1v7.4c0,4.7-4.2,8-10,8s-7.4-1.8-7.4-5.8,3.1-5.9,8.6-5.9h2.5c1.5,0,2.2-.7,2.2-2.1v-1.7h-5.1c-8.5,0-13.4,3.6-13.4,9.8s3.6,9.9,11.6,9.9,8.1-1.7,10.9-4.9v2.1c0,1.4.7,2,2.1,2h2.8v-19c-.1-7.9-4.8-12.4-13.3-12.4h0ZM514.2,23.6c-.7-.6-29.2-20.5-30.5-21.3l-.4-.3v4.9c0,1.6.8,2.1,1.8,2.9h.2c1.4,1.1,21.7,15.2,24.4,17.1-2.7,1.9-23.3,16.2-24.6,17-1.6,1-1.7,1.7-1.7,3.1v4.7s30.3-21.1,30.9-21.6c1.4-1,1.7-2.3,1.7-3.1v-.6c0-1-.6-2-1.8-2.8Z"/>
      <path class="cls-1" d="M496.4,29.1c.8,0,1.6-.3,2.4-.9,1-.7,1.9-1.3,1.9-1.3l.3-.2-.3-.2c-.1-.1-13.4-9.3-14.8-10.2-.6-.5-1.4-.6-1.9-.3s-.9.8-.9,1.6v3.1h.1c.1.2,9.2,6.5,11,7.7.8.5,1.5.7,2.2.7h0ZM72.3,36.4c-1.1-1.1-2.5-.4-3.1,0-2.3,2.1-4.9,3.1-7.7,3.1-6.1,0-10.9-5.1-10.9-11.7s4.7-11.6,10.6-11.6,5.6,1.5,7.4,2.9c1.3,1.1,2.4,1.2,3.3.2.8-.8,1.7-1.8,1.7-1.8l.2-.2-.2-.2c-3.5-3.8-7.4-5.5-12.4-5.5-8.9,0-16,7.1-16,16.2s7.2,16.2,16,16.2,10.2-3.3,12.6-6.1h.2l-.2-.2s-.5-.4-1.5-1.4ZM105.5,1.2h-3.5v3.5c0,.9.4,2,2.2,2h3.5v-3.1c0-1.4-.8-2.4-2.2-2.4ZM105.1,12.5h-2.9v28.9c0,1.2.8,2,1.9,2.1h0c0,0,3.2,0,3.2,0V14.6c0-1.3-.7-2.1-2.2-2.1ZM138,14.2c-.4,1.1-8,19.5-9.5,22.9-1.4-3.5-9-21.9-9.4-22.9-.5-1.2-1.5-1.9-2.8-1.9h-3.6l.2.3c0,.4,12.2,28.3,12.7,29.4.5,1.3,1.3,1.6,2.6,1.6h.6c1.2,0,2-.5,2.5-1.6s12.6-28.8,12.7-29.1l.2-.4h-3.5c-1.3,0-2.2.5-2.7,1.7ZM169.3,26.2h-11.9c-1.3,0-2.1.8-2.1,2.1v2h.3c5.7-.1,12.3-.1,15-.1s2.8-.4,3.7-1.3c.8-.9,1.2-2.3,1.1-3.9-.9-8-6.6-13.2-14.4-13.2s-15,7-15,16.2,6.7,16.2,15.6,16.2,9.1-1.8,12.8-5.8l.2-.2-.2-.2s-.7-.6-1.5-1.3c-1.2-1-2.3-.6-2.9,0-2.2,2-4.9,3-8.2,3-5.7,0-9.9-4.1-10.6-10.2,0,0-.1-.7-.1-1.6s.1-1.7.1-1.7c.6-6,4.6-10.2,9.7-10.2s8.8,3.4,9.3,8.6c.1.5,0,.9-.1,1.1-.3.4-.5.5-.8.5h0ZM25.5,2.8c-.6-1.2-1.3-1.6-2.6-1.6h-1.2c-1,0-1.9.6-2.4,1.5-.4.9-18,40.1-18.2,40.5l-.2.4h3.3c1.4,0,2.3-.6,3-2,.6-1.2,3.5-7.8,4-8.9h12.9c1.6,0,2.6-1,2.6-2.5v-2.2h-13.5L22.3,7.6c1.9,4.2,14.6,33.2,15.2,34.4s2.7,1.6,3.3,1.6h3l-.2-.4c0-.4-17.5-39.1-18.1-40.4ZM94.8,39.1c-.5-.3-1.2-.4-1.9-.2-1.1.3-1.9.5-2.9.5-3.2,0-4.9-1.6-4.9-4.9v-17.5h9.7v-2.1c0-1.6-1.4-2.4-2.6-2.4h-7.2V3.7c0-1.4-1-2.4-2.5-2.4h-2.5v33.9c0,5.7,3.1,8.9,8.9,8.9s4.7-.5,6.3-1.3h0v-.2s0-.9,0-2c0-.8-.3-1.2-.6-1.5Z"/>
    </g>
  </g>
</svg>