<svg xmlns="http://www.w3.org/2000/svg" xmlns:xlink="http://www.w3.org/1999/xlink" width="77" height="77" viewBox="0 0 77 77">
  <defs>
    <clipPath id="clip-path">
      <rect id="Rettangolo_196" data-name="Rettangolo 196" width="43.54" height="39.748" fill="none"/>
    </clipPath>
  </defs>
  <g id="Raggruppa_797" data-name="Raggruppa 797" transform="translate(-1764 -3012)">
    <g id="Raggruppa_399" data-name="Raggruppa 399" transform="translate(0 2007)">
      <circle id="Ellisse_2" data-name="Ellisse 2" cx="38.5" cy="38.5" r="38.5" transform="translate(1764 1005)" fill="#242121"/>
    </g>
    <g id="Raggruppa_796" data-name="Raggruppa 796" transform="translate(1778.953 3030.626)">
      <g id="Raggruppa_795" data-name="Raggruppa 795" clip-path="url(#clip-path)">
        <path id="Tracciato_63" data-name="Tracciato 63" d="M41.468,10.9,37.518,14q-4.826,3.8-9.654,7.6a3.525,3.525,0,0,1-4.884-.029q-4.765-3.76-9.539-7.509c-.265-.208-.567-.367-.976-.628a13.855,13.855,0,0,0-1.732,1.061,2.509,2.509,0,0,0-.661,2.608,3.158,3.158,0,0,0,.39,1.022c1.479,2.582,2.976,5.153,4.464,7.729a3.528,3.528,0,0,0,1.8,1.518,2.056,2.056,0,0,0,1.971-.144c.515-.321,1.048-.613,1.575-.915A3.981,3.981,0,0,1,25,26.675a6.6,6.6,0,0,1,1.068,1.03,19.24,19.24,0,0,1,3.64,6.373,5.355,5.355,0,0,1,.187,1.608,2.279,2.279,0,0,1-1.219,1.991c-5.229,3.083-10.3,2.63-15.2-.732a17.836,17.836,0,0,1-5.2-5.521c-2.068-3.421-4.1-6.867-6-10.383A17.639,17.639,0,0,1,.063,11,12.713,12.713,0,0,1,6.236.825c.176-.11.367-.2.538-.315a2.683,2.683,0,0,1,3.508.34A10.8,10.8,0,0,1,12.7,3.992c.493.914.936,1.856,1.425,2.772a.814.814,0,0,0,.42.28,1.105,1.105,0,0,0,.38.009q12.59,0,25.18.005a5.381,5.381,0,0,1,1.328.13,2.668,2.668,0,0,1,2.092,2.738c0,6.2-.027,12.4.019,18.6a2.854,2.854,0,0,1-2.822,2.952c-3.229.044-6.459.022-9.688.012a1.025,1.025,0,0,1-.055-2.05c.222-.02.447-.013.671-.013h8.489a4.993,4.993,0,0,0,.575-.021.736.736,0,0,0,.756-.855c.005-.849,0-1.7,0-2.547V10.9ZM21.421,37.675a10.933,10.933,0,0,0,5.213-1.2c1.449-.775,1.5-.94.882-2.488A19.469,19.469,0,0,0,24.8,29.419a7.023,7.023,0,0,0-1.137-1.162,1.735,1.735,0,0,0-2.327-.174c-.6.34-1.173.724-1.793,1.012a4.384,4.384,0,0,1-1.536.474,4.983,4.983,0,0,1-4.8-2.582c-1.572-2.618-3.075-5.279-4.6-7.926a5.259,5.259,0,0,1-.447-1,4.718,4.718,0,0,1,2.194-5.794c.532-.254,1.021-.6,1.538-.881a1.627,1.627,0,0,0,.864-1.772,5.627,5.627,0,0,0-.271-1.262A19.406,19.406,0,0,0,9.732,3.266a6.4,6.4,0,0,0-1.106-1.05.63.63,0,0,0-.555-.047,8.912,8.912,0,0,0-1.407.816,10.851,10.851,0,0,0-4.586,8.869,17.273,17.273,0,0,0,2.36,8.894c1.689,3.031,3.452,6.021,5.216,9.009a18.354,18.354,0,0,0,3.485,4.257,12.546,12.546,0,0,0,8.282,3.662M40.36,9.136H14.8a4.157,4.157,0,0,1-.649,2.889c.22.161.416.3.6.444q4.692,3.691,9.382,7.384c1.064.838,1.553.834,2.626-.01l9.871-7.77L40.36,9.136" transform="translate(0 0)" fill="#fff"/>
      </g>
    </g>
  </g>
</svg>
