<svg xmlns="http://www.w3.org/2000/svg" width="21.764" height="21.773" viewBox="0 0 21.764 21.773">
  <g id="Raggruppa_357" data-name="Raggruppa 357" transform="translate(-10.772 -9.176)">
    <g id="Raggruppa_368" data-name="Raggruppa 368" transform="translate(10.772 9.176)">
      <rect id="Rettangolo_100" data-name="Rettangolo 100" width="4.494" height="14.516" transform="translate(0.432 7.258)" fill="#222221"/>
      <path id="Tracciato_22" data-name="Tracciato 22" d="M13.429,14.533a2.679,2.679,0,1,0-2.657-2.679,2.669,2.669,0,0,0,2.657,2.679" transform="translate(-10.772 -9.176)" fill="#222221"/>
      <path id="Tracciato_23" data-name="Tracciato 23" d="M21.918,22.489c0-2.041.939-3.256,2.738-3.256,1.652,0,2.446,1.167,2.446,3.256v7.619h4.472v-9.19c0-3.888-2.2-5.768-5.282-5.768a5.059,5.059,0,0,0-4.374,2.4V15.593h-4.31V30.108h4.31Z" transform="translate(-9.809 -8.335)" fill="#222221"/>
    </g>
  </g>
</svg>
