<svg id="Raggruppa_756" data-name="Raggruppa 756" xmlns="http://www.w3.org/2000/svg" xmlns:xlink="http://www.w3.org/1999/xlink" width="30.173" height="19.639" viewBox="0 0 30.173 19.639">
  <defs>
    <clipPath id="clip-path">
      <rect id="Rettangolo_157" data-name="Rettangolo 157" width="30.173" height="19.639" fill="#222221"/>
    </clipPath>
  </defs>
  <g id="Raggruppa_753" data-name="Raggruppa 753" clip-path="url(#clip-path)">
    <path id="Tracciato_58" data-name="Tracciato 58" d="M31.751,99.613l8.985,10.355a5.177,5.177,0,0,1-.538.142,3.441,3.441,0,0,1-.513.021q-12.8,0-25.594,0c-.335,0-.669-.062-1.1-.1l9.034-10.412c.815.673,1.608,1.324,2.4,1.979a3.631,3.631,0,0,0,4.929,0c.792-.652,1.583-1.306,2.4-1.982" transform="translate(-11.8 -90.493)" fill="#222221"/>
    <path id="Tracciato_59" data-name="Tracciato 59" d="M12.212.2c.273-.072.485-.141.7-.181A2.438,2.438,0,0,1,13.359,0q12.828,0,25.656,0a11.13,11.13,0,0,1,1.161.128c-.139.146-.184.205-.241.252q-5.992,4.953-11.987,9.9a2.584,2.584,0,0,1-3.549,0Q18.444,5.374,12.492.453C12.415.39,12.344.32,12.212.2" transform="translate(-11.094 -0.001)" fill="#222221"/>
    <path id="Tracciato_60" data-name="Tracciato 60" d="M.358,10.394l9.055,7.482L.437,28.232a1.646,1.646,0,0,1-.424-.986A2.538,2.538,0,0,1,0,26.87q0-7.588,0-15.177a2.1,2.1,0,0,1,.358-1.3" transform="translate(0 -9.443)" fill="#222221"/>
    <path id="Tracciato_61" data-name="Tracciato 61" d="M226.789,17.9l9.063-7.48a1.859,1.859,0,0,1,.345,1.142q0,1.645,0,3.289,0,6.013,0,12.026a2.232,2.232,0,0,1-.42,1.4L226.789,17.9" transform="translate(-206.028 -9.471)" fill="#222221"/>
  </g>
</svg>
