<svg id="Raggruppa_424" data-name="Raggruppa 424" xmlns="http://www.w3.org/2000/svg" xmlns:xlink="http://www.w3.org/1999/xlink" width="25.137" height="20.994" viewBox="0 0 25.137 20.994">
  <defs>
    <clipPath id="clip-path">
      <rect id="Rettangolo_111" data-name="Rettangolo 111" width="25.137" height="20.994" fill="none"/>
    </clipPath>
  </defs>
  <g id="Raggruppa_423" data-name="Raggruppa 423" clip-path="url(#clip-path)">
    <path id="Tracciato_31" data-name="Tracciato 31" d="M13.465,16.358c.077.053.139.091.2.135q2.784,2.107,5.569,4.214a1.086,1.086,0,0,0,1.823-.66q.519-2.324,1.027-4.65,1.5-6.8,3-13.6A1.383,1.383,0,0,0,23.139.145c-1.059.42-2.126.818-3.189,1.225L.648,8.76A.837.837,0,0,0,0,9.575c0,.394.225.655.685.812,1.786.606,3.572,1.21,5.354,1.824a.6.6,0,0,0,.569-.06Q13.251,8.077,19.9,4.016c.056-.034.112-.089.17-.092.081-.005.2,0,.237.053a.3.3,0,0,1-.022.243c-.035.071-.116.12-.178.177L17.117,7.152q-3.509,3.23-7.015,6.464a.638.638,0,0,0-.209.367c-.13,1.678-.243,3.357-.364,5.035-.017.24,0,.456.257.563s.425-.023.594-.191c.47-.469.944-.934,1.418-1.4.552-.543,1.106-1.084,1.667-1.633" transform="translate(0 0)" fill="#222"/>
    <path id="Tracciato_32" data-name="Tracciato 32" d="M13.465,16.358c-.561.549-1.114,1.091-1.667,1.633-.474.465-.948.93-1.418,1.4-.169.169-.345.3-.594.191s-.274-.324-.257-.563c.121-1.679.234-3.358.364-5.035a.638.638,0,0,1,.209-.367q3.5-3.238,7.015-6.464L20.11,4.4c.062-.057.143-.106.178-.177a.3.3,0,0,0,.022-.243c-.036-.05-.156-.058-.237-.053-.059,0-.115.058-.17.092Q13.254,8.081,6.609,12.151a.6.6,0,0,1-.569.06C4.257,11.6,2.471,10.993.685,10.387.225,10.231,0,9.969,0,9.575A.837.837,0,0,1,.648,8.76l19.3-7.39C21.013.963,22.08.565,23.139.145A1.383,1.383,0,0,1,25.083,1.8q-1.506,6.8-3,13.6-.513,2.325-1.027,4.65a1.086,1.086,0,0,1-1.823.66q-2.786-2.105-5.569-4.214c-.058-.044-.12-.082-.2-.135" transform="translate(0 0)" fill="#222"/>
  </g>
</svg>
