<svg id="Raggruppa_552" data-name="Raggruppa 552" xmlns="http://www.w3.org/2000/svg" xmlns:xlink="http://www.w3.org/1999/xlink" width="30.951" height="31.077" viewBox="0 0 30.951 31.077">
  <defs>
    <clipPath id="clip-path">
      <rect id="Rettangolo_58" data-name="Rettangolo 58" width="30.951" height="31.077" fill="#fff"/>
    </clipPath>
  </defs>
  <g id="Raggruppa_551" data-name="Raggruppa 551" clip-path="url(#clip-path)">
    <path id="Tracciato_10" data-name="Tracciato 10" d="M66.622,65.97a3.544,3.544,0,0,1-3.425,2.9c-.153.012-.305,0-.458,0a12.017,12.017,0,0,1-5.058-1.74,17.356,17.356,0,0,1-6.064-6.293,4.744,4.744,0,0,1,.208-5.684,2.35,2.35,0,0,1,2.322-.8c.353.04.514.3.636.586.417.978.826,1.96,1.241,2.94.244.578-.128.966-.435,1.36-.925,1.181-.923,1.171-.023,2.4a10.551,10.551,0,0,0,4.564,3.553.791.791,0,0,0,1.067-.244,12,12,0,0,0,.856-1.065c.374-.621.818-.644,1.407-.343.814.415,1.632.827,2.476,1.169a1.043,1.043,0,0,1,.687,1.262" transform="translate(-43.027 -46.032)" fill="#fff"/>
    <path id="Tracciato_11" data-name="Tracciato 11" d="M30.807,13.152A15.532,15.532,0,0,0,13.133.212,15.383,15.383,0,0,0,1.912,22.565a1.415,1.415,0,0,1,.119,1.151C1.345,26.123.7,28.539,0,31.077c2.555-.665,4.987-1.284,7.407-1.937a2.085,2.085,0,0,1,1.586.148,14.328,14.328,0,0,0,8.062,1.441A15.413,15.413,0,0,0,30.807,13.152M17.882,28.028a13.04,13.04,0,0,1-8.735-1.574,1.445,1.445,0,0,0-1.22-.137c-1.36.383-2.735.713-4.236,1.1.4-1.436.752-2.731,1.128-4.019a1.436,1.436,0,0,0-.166-1.271,12.749,12.749,0,0,1,9.5-19.4A12.9,12.9,0,0,1,28.451,13.4,12.888,12.888,0,0,1,17.882,28.028" transform="translate(0 0)" fill="#fff"/>
    <path id="Tracciato_12" data-name="Tracciato 12" d="M66.622,65.97a3.544,3.544,0,0,1-3.425,2.9c-.153.012-.305,0-.458,0a12.017,12.017,0,0,1-5.058-1.74,17.356,17.356,0,0,1-6.064-6.293,4.744,4.744,0,0,1,.208-5.684,2.35,2.35,0,0,1,2.322-.8c.353.04.514.3.636.586.417.978.826,1.96,1.241,2.94.244.578-.128.966-.435,1.36-.925,1.181-.923,1.171-.023,2.4a10.551,10.551,0,0,0,4.564,3.553.791.791,0,0,0,1.067-.244,12,12,0,0,0,.856-1.065c.374-.621.818-.644,1.407-.343.814.415,1.632.827,2.476,1.169a1.043,1.043,0,0,1,.687,1.262" transform="translate(-43.027 -46.032)" fill="#fff"/>
    <path id="Tracciato_13" data-name="Tracciato 13" d="M66.622,65.97a3.544,3.544,0,0,1-3.425,2.9c-.153.012-.305,0-.458,0a12.017,12.017,0,0,1-5.058-1.74,17.356,17.356,0,0,1-6.064-6.293,4.744,4.744,0,0,1,.208-5.684,2.35,2.35,0,0,1,2.322-.8c.353.04.514.3.636.586.417.978.826,1.96,1.241,2.94.244.578-.128.966-.435,1.36-.925,1.181-.923,1.171-.023,2.4a10.551,10.551,0,0,0,4.564,3.553.791.791,0,0,0,1.067-.244,12,12,0,0,0,.856-1.065c.374-.621.818-.644,1.407-.343.814.415,1.632.827,2.476,1.169a1.043,1.043,0,0,1,.687,1.262" transform="translate(-43.027 -46.032)" fill="#fff"/>
  </g>
</svg>
