<svg id="Raggruppa_422" data-name="Raggruppa 422" xmlns="http://www.w3.org/2000/svg" xmlns:xlink="http://www.w3.org/1999/xlink" width="19.899" height="19.994" viewBox="0 0 19.899 19.994">
  <defs>
    <clipPath id="clip-path">
      <rect id="Rettangolo_110" data-name="Rettangolo 110" width="19.899" height="19.994" fill="none"/>
    </clipPath>
  </defs>
  <g id="Raggruppa_421" data-name="Raggruppa 421" clip-path="url(#clip-path)">
    <path id="Tracciato_29" data-name="Tracciato 29" d="M0,19.995c.084-.019.136-.029.187-.043q2.436-.639,4.872-1.282a.472.472,0,0,1,.366.041,9.743,9.743,0,0,0,6.418.941A9.91,9.91,0,1,0,1.328,14.727a.353.353,0,0,1,.037.289c-.3,1.087-.6,2.176-.9,3.265L0,19.995" transform="translate(0 0)" fill="#fff"/>
    <path id="Tracciato_30" data-name="Tracciato 30" d="M0,20l.469-1.714c.3-1.089.594-2.178.9-3.265a.353.353,0,0,0-.037-.289,9.909,9.909,0,1,1,10.515,4.925,9.743,9.743,0,0,1-6.418-.941.472.472,0,0,0-.366-.041q-2.434.646-4.872,1.282c-.051.013-.1.024-.187.043M6.737,5.347a.958.958,0,0,0-.86.252,3.846,3.846,0,0,0-.51.625A2.929,2.929,0,0,0,5.2,8.917a7.927,7.927,0,0,0,1.016,1.726,9.272,9.272,0,0,0,5.476,3.886,2.917,2.917,0,0,0,2.48-.328,1.939,1.939,0,0,0,.843-1.754.315.315,0,0,0-.2-.306c-.175-.085-.347-.175-.522-.259-.487-.233-.971-.472-1.464-.692-.316-.141-.413-.095-.619.171-.235.3-.479.6-.726.892a.359.359,0,0,1-.49.112A6.747,6.747,0,0,1,7.634,9.5c-.179-.3-.158-.364.063-.626s.4-.531.591-.806a.412.412,0,0,0,.015-.4C8.061,7.077,7.81,6.5,7.582,5.908c-.158-.408-.4-.652-.845-.561" transform="translate(0 -0.001)" fill="#222"/>
  </g>
</svg>
