<?xml version="1.0" standalone="no"?>
<!DOCTYPE svg PUBLIC "-//W3C//DTD SVG 20010904//EN"
 "http://www.w3.org/TR/2001/REC-SVG-20010904/DTD/svg10.dtd">
<svg version="1.0" xmlns="http://www.w3.org/2000/svg"
 width="640.000000pt" height="640.000000pt" viewBox="0 0 640.000000 640.000000"
 preserveAspectRatio="xMidYMid meet">
<metadata>
Created by potrace 1.14, written by Peter Selinger 2001-2017
</metadata>
<g transform="translate(0.000000,640.000000) scale(0.100000,-0.100000)"
fill="#000000" stroke="none">
<path d="M5614 5946 c-113 -36 -166 -69 -249 -152 -67 -68 -77 -81 -113 -150
-41 -82 -199 -403 -211 -434 -6 -14 -15 -32 -21 -40 -5 -8 -80 -159 -166 -335
-86 -176 -187 -383 -225 -461 -38 -78 -69 -146 -69 -152 0 -6 -4 -12 -8 -14
-6 -2 -73 -130 -77 -148 -1 -3 -51 -106 -112 -230 -61 -124 -167 -342 -237
-485 -70 -143 -131 -267 -136 -275 -6 -8 -14 -25 -19 -36 -12 -28 -191 -393
-297 -608 -46 -93 -82 -171 -80 -175 2 -3 145 -6 318 -5 332 1 376 6 468 50
28 13 53 24 56 24 12 0 120 89 151 124 42 48 80 112 132 221 23 50 47 97 52
105 4 8 16 31 25 50 10 19 78 159 152 310 290 593 342 700 342 707 0 3 7 14
16 24 8 9 17 23 18 31 1 7 56 121 120 253 243 492 406 826 406 830 0 2 13 26
28 52 16 26 29 50 29 53 1 9 410 849 430 883 2 4 -143 7 -324 7 -312 -1 -331
-3 -399 -24z"/>
<path d="M3770 4649 c-58 -4 -123 -12 -145 -19 -85 -25 -180 -85 -252 -156
-70 -70 -77 -81 -208 -347 -74 -151 -135 -278 -135 -283 0 -4 -7 -15 -16 -25
-8 -9 -17 -23 -18 -31 -1 -7 -59 -128 -128 -268 -166 -338 -353 -718 -503
-1025 -67 -137 -178 -362 -245 -500 -68 -137 -121 -251 -119 -251 2 -1 -3 -10
-12 -20 -8 -11 -23 -38 -34 -61 -10 -23 -48 -104 -86 -180 -37 -76 -64 -140
-60 -143 12 -7 598 -4 641 3 19 4 50 11 68 16 18 5 35 10 37 10 3 1 27 12 55
25 98 47 185 124 242 213 23 35 170 327 173 343 3 15 141 286 148 291 5 3 8 9
7 13 -1 4 29 68 66 144 36 75 70 146 75 157 5 11 13 27 19 35 5 8 56 112 113
230 57 118 150 308 206 422 56 114 101 209 99 210 -2 2 7 17 20 35 12 17 22
34 22 37 0 3 61 131 136 283 279 568 384 784 384 790 0 4 7 15 17 25 9 10 14
21 11 24 -8 8 -456 10 -578 3z"/>
<path d="M1807 3333 c-1 -1 -27 -3 -57 -4 -66 -3 -147 -26 -218 -62 -66 -33
-71 -38 -155 -121 -67 -67 -73 -78 -245 -425 -97 -196 -176 -358 -177 -361 0
-3 -46 -97 -102 -210 -55 -113 -165 -335 -243 -495 -78 -159 -176 -360 -218
-445 -42 -85 -75 -157 -73 -159 1 -2 -1 -7 -6 -10 -4 -3 -28 -49 -53 -101 -25
-52 -49 -98 -53 -101 -5 -3 -8 -9 -8 -13 1 -3 -36 -81 -81 -174 -45 -92 -82
-170 -82 -174 -1 -4 -7 -13 -13 -19 -7 -7 -13 -17 -13 -21 0 -4 143 -8 318 -8
353 0 383 4 507 64 71 35 167 118 218 188 22 30 197 379 328 654 16 33 32 64
36 68 5 4 8 11 8 14 0 7 45 98 196 405 37 75 64 137 61 137 -4 0 -2 4 4 8 12
7 75 136 73 148 0 4 3 10 8 13 4 3 35 62 68 131 33 69 63 127 67 128 5 2 8 9
8 15 0 7 41 95 91 197 50 102 136 277 190 390 55 113 104 212 109 220 11 16
19 34 43 90 l15 35 -275 0 c-151 0 -275 -1 -276 -2z"/>
</g>
</svg>
