<?xml version="1.0" encoding="UTF-8"?>
<svg id="Livello_2" data-name="Livello 2" xmlns="http://www.w3.org/2000/svg" viewBox="0 0 249.54 255.92">
  <defs>
    <style>
      .cls-1 {
        stroke-width: 0px;
      }
    </style>
  </defs>
  <g id="Livello_1-2" data-name="Livello 1">
    <g>
      <path class="cls-1" d="M44.13,12.79c5.64-.02,10.58,1.83,14.89,5.49,8.19,6.96,15.13,15.09,21.13,23.89,5.47,8.02,10.51,16.39,15,25,6.05,11.59,1.33,21.68-7.74,28.47-2.27,1.7-4.64,3.28-6.75,5.15-6.15,5.48-6.5,12.28-3.77,19.44,4.11,10.75,10.16,20.38,17.74,29.04,10.65,12.18,23.67,21.14,38.26,27.9,4.68,2.17,9.7,4.07,14.55,1.16,2.8-1.69,5.06-4.48,7.13-7.12,3.64-4.67,7.64-8.81,13.13-11.25,7.18-3.19,14.35-2.47,21.3.61,3.56,1.57,7.08,3.42,10.22,5.69,10.86,7.86,21.57,15.91,32.26,24,1.9,1.44,3.56,3.28,5.1,5.12,6.99,8.37,6.56,17.54,2.1,26.68-8.17,16.75-21.33,27.76-39.33,32.93-7.98,2.29-15.4.07-22.55-2.98-24.66-10.53-47.91-23.61-69.51-39.55-24.16-17.83-45.31-38.73-63.17-62.89C27.09,126.47,13.23,101.58,3.15,74.69c-3.87-10.33-4.33-20.98-.49-31.55,4.18-11.5,12.36-19.36,23.02-24.84,5.79-2.98,11.76-5.53,18.46-5.51Z"/>
      <path class="cls-1" d="M249.54,113.32c-.27,3.22-.24,6.5-.88,9.64-.87,4.27-4,6.46-8.73,6.77-4.67.3-8.48-1.68-9.74-5.74-.9-2.89-1.07-6.02-1.4-9.07-2.22-20.76-7.08-40.63-19.45-57.97-8.92-12.5-20.9-21.07-34.94-26.9-13.15-5.47-26.92-8.49-41.05-10.06-8.09-.9-11.55-7.91-7.56-15.03C127.86,1.25,131.32.03,135.26,0c11.47-.07,22.76,1.22,33.7,4.8,27.65,9.05,48.9,26.26,64.05,50.93,11.52,18.76,15.92,35.17,16.52,57.58Z"/>
      <path class="cls-1" d="M215.88,107.83c-.18,2.74-.12,5.51-.6,8.2-.83,4.68-4.15,7.19-9.27,7.42-5.07.23-8.6-2.01-9.73-6.75-.83-3.46-.97-7.08-1.57-10.6-1.47-8.55-3.57-16.93-7.54-24.72-5.88-11.54-15.65-18.44-27.6-22.32-7.09-2.3-14.45-3.79-21.72-5.54-4.33-1.04-8.12-2.6-9.29-7.51-1.75-7.37,3.43-13.97,10.96-13.32,32.53,2.84,56.76,18.09,70.72,48.17,3.94,8.48,5.52,17.59,5.63,26.97Z"/>
      <path class="cls-1" d="M145.37,66.03c10.39.61,18.55,5.45,25.56,12.47,6.93,6.94,11.8,15.07,12.55,25.1.21,2.78,0,5.68-.58,8.4-1,4.62-4.31,7.22-8.77,7.51-4.48.29-8.28-2.05-9.87-6.46-.78-2.16-1.15-4.5-1.49-6.79-1.46-9.77-7.6-16.47-17.24-18.68-2.26-.52-4.57-.92-6.78-1.61-4.24-1.33-6.46-4.01-6.71-7.74-.28-4.29,1.98-8.75,5.69-10.27,2.41-.98,5.09-1.3,7.64-1.91Z"/>
    </g>
  </g>
</svg>