<svg id="Raggruppa_556" data-name="Raggruppa 556" xmlns="http://www.w3.org/2000/svg" xmlns:xlink="http://www.w3.org/1999/xlink" width="32.988" height="33.036" viewBox="0 0 32.988 33.036">
  <defs>
    <clipPath id="clip-path">
      <rect id="Rettangolo_60" data-name="Rettangolo 60" width="32.988" height="33.036" fill="#fff"/>
    </clipPath>
  </defs>
  <g id="Raggruppa_555" data-name="Raggruppa 555" clip-path="url(#clip-path)">
    <path id="Tracciato_16" data-name="Tracciato 16" d="M10.257,26.495a22.511,22.511,0,0,0,8.88,8.853c.716-.725,1.393-1.415,2.077-2.1A3.86,3.86,0,0,1,22.84,32.18a2.854,2.854,0,0,1,2.837.588c.78.69,1.505,1.444,2.241,2.182.774.777,1.56,1.545,2.291,2.361a3.08,3.08,0,0,1,.06,4.052c-.21.258-.438.5-.669.741-.681.7-1.357,1.41-2.057,2.095A5.317,5.317,0,0,1,23.2,45.666a17.174,17.174,0,0,1-6.273-1.937,32.218,32.218,0,0,1-9.392-6.991A31.069,31.069,0,0,1,1,26.616a13.835,13.835,0,0,1-1-4.378,5.362,5.362,0,0,1,1.5-4.209c.857-.861,1.674-1.77,2.59-2.563a3.031,3.031,0,0,1,4.434.06c1.489,1.4,2.918,2.862,4.31,4.356a2.943,2.943,0,0,1,.015,3.953c-.7.8-1.476,1.533-2.22,2.294-.1.107-.217.208-.382.365M1.852,22.04c.074.531.113,1.069.227,1.591a20.467,20.467,0,0,0,2.674,6.355A31.619,31.619,0,0,0,17.894,42.112a15.208,15.208,0,0,0,5.382,1.681,3.609,3.609,0,0,0,3.132-1.1c.634-.673,1.292-1.324,1.937-1.987a6,6,0,0,0,.434-.476,1.277,1.277,0,0,0-.031-1.759c-.11-.132-.23-.256-.352-.378q-1.3-1.3-2.6-2.6c-.38-.38-.755-.766-1.144-1.137a1.24,1.24,0,0,0-1.841-.041c-.106.091-.2.19-.3.289-.739.737-1.473,1.478-2.216,2.21a1.414,1.414,0,0,1-1.768.3c-.451-.226-.9-.455-1.336-.713a23.176,23.176,0,0,1-5.193-4.312,18.6,18.6,0,0,1-3.411-4.862A1.572,1.572,0,0,1,9,25.07c.779-.756,1.561-1.512,2.308-2.3a1.209,1.209,0,0,0,.012-1.815c-.077-.09-.158-.176-.241-.26q-1.823-1.827-3.648-3.653a1.393,1.393,0,0,0-2.285,0c-.7.689-1.372,1.4-2.081,2.072A3.758,3.758,0,0,0,1.852,22.04" transform="translate(0 -12.654)" fill="#fff"/>
    <path id="Tracciato_17" data-name="Tracciato 17" d="M135.116,0c.405.084.894.164,1.371.289a17.917,17.917,0,0,1,13.233,14.136.965.965,0,0,1-.383,1.079.948.948,0,0,1-1.061-.025,1.139,1.139,0,0,1-.428-.8,15.833,15.833,0,0,0-5.506-9.362,15.579,15.579,0,0,0-6.078-3.137c-.477-.125-.966-.207-1.445-.328A.937.937,0,0,1,134.1.781.973.973,0,0,1,135.116,0" transform="translate(-116.762 -0.001)" fill="#fff"/>
    <path id="Tracciato_18" data-name="Tracciato 18" d="M132.067,47.316a.932.932,0,0,1,1.131-.927,10.747,10.747,0,0,1,6.957,4.4,10.6,10.6,0,0,1,1.831,4.325.945.945,0,1,1-1.833.454,16.368,16.368,0,0,0-.659-2.115,8.816,8.816,0,0,0-6.578-5.2.93.93,0,0,1-.849-.935" transform="translate(-115 -40.379)" fill="#fff"/>
  </g>
</svg>
