<svg id="Raggruppa_554" data-name="Raggruppa 554" xmlns="http://www.w3.org/2000/svg" xmlns:xlink="http://www.w3.org/1999/xlink" width="33.492" height="38.155" viewBox="0 0 33.492 38.155">
  <defs>
    <clipPath id="clip-path">
      <rect id="Rettangolo_59" data-name="Rettangolo 59" width="33.492" height="38.155" fill="#fff"/>
    </clipPath>
  </defs>
  <g id="Raggruppa_553" data-name="Raggruppa 553" clip-path="url(#clip-path)">
    <path id="Tracciato_14" data-name="Tracciato 14" d="M10.358,25.2c-.087-.139-.157-.252-.228-.363-1.276-1.994-2.577-3.972-3.821-5.984a11.738,11.738,0,0,1-1.658-8.486,11.881,11.881,0,0,1,7.293-9.3A11.653,11.653,0,0,1,23.918,2.419a11.844,11.844,0,0,1,4.831,7.469,11.9,11.9,0,0,1-1.6,8.993c-1.259,2.019-2.561,4.01-3.844,6.014-.058.091-.108.188-.178.311.741.152,1.456.283,2.163.446a19.738,19.738,0,0,1,5.066,1.775A6.272,6.272,0,0,1,33,29.753a3.262,3.262,0,0,1-.212,3.736A7.014,7.014,0,0,1,30.1,35.61a22.79,22.79,0,0,1-6.771,2.018,41.906,41.906,0,0,1-11.157.283,26.858,26.858,0,0,1-8.194-2A8.169,8.169,0,0,1,.923,33.785a3.467,3.467,0,0,1,.271-4.973,10.414,10.414,0,0,1,4.385-2.418c1.491-.445,3.023-.755,4.536-1.125.069-.017.137-.04.244-.072m6.374,5.838c.106-.157.183-.265.254-.377,2.673-4.188,5.335-8.384,8.023-12.563a9.8,9.8,0,0,0,.654-10.269,9.489,9.489,0,0,0-7.93-5.468A9.661,9.661,0,0,0,8.6,6.493,10.1,10.1,0,0,0,8.233,17.73q2.406,3.734,4.788,7.483c1.227,1.921,2.451,3.844,3.712,5.822m.015,4.934c1.4-.09,2.8-.149,4.192-.276a25.206,25.206,0,0,0,7.117-1.6,6.952,6.952,0,0,0,2.753-1.71,1.217,1.217,0,0,0-.014-1.875,6.035,6.035,0,0,0-1.972-1.369,23.189,23.189,0,0,0-6.569-1.793.646.646,0,0,0-.755.374c-1.226,1.952-2.474,3.89-3.707,5.838a1.186,1.186,0,0,1-1.224.659,1.239,1.239,0,0,1-.886-.667q-1.9-3-3.811-5.992a.389.389,0,0,0-.471-.227c-.534.108-1.079.158-1.614.257a17.738,17.738,0,0,0-5.66,1.842,7.108,7.108,0,0,0-1.488,1.153,1.143,1.143,0,0,0-.01,1.751,4.613,4.613,0,0,0,.8.715A12.659,12.659,0,0,0,7.293,34.73a37.549,37.549,0,0,0,9.454,1.238" transform="translate(0 -0.001)" fill="#fff"/>
    <path id="Tracciato_15" data-name="Tracciato 15" d="M86.042,51.342a5.581,5.581,0,1,1-5.572-5.6,5.6,5.6,0,0,1,5.572,5.6m-2.236-.024a3.345,3.345,0,1,0-3.331,3.351,3.376,3.376,0,0,0,3.331-3.351" transform="translate(-63.722 -38.926)" fill="#fff"/>
  </g>
</svg>
